<?xml version="1.0" encoding="UTF-8"?>
<!DOCTYPE svg PUBLIC "-//W3C//DTD SVG 1.1//EN" "http://www.w3.org/Graphics/SVG/1.1/DTD/svg11.dtd">
<!-- Creator: CorelDRAW X7 -->
<svg xmlns="http://www.w3.org/2000/svg" xml:space="preserve" width="50mm" height="50mm" version="1.1" style="shape-rendering:geometricPrecision; text-rendering:geometricPrecision; image-rendering:optimizeQuality; fill-rule:evenodd; clip-rule:evenodd"
viewBox="0 0 5000 5000"
 xmlns:xlink="http://www.w3.org/1999/xlink">
 <defs>
  <style type="text/css">
   <![CDATA[
    .fil0 {fill:#7F705A;fill-rule:nonzero}
   ]]>
  </style>
 </defs>
 <g id="Layer_x0020_1">
  <metadata id="CorelCorpID_0Corel-Layer"/>
  <path class="fil0" d="M5000 2500c0,1381 -1119,2500 -2500,2500 -1381,0 -2500,-1119 -2500,-2500 0,-1381 1119,-2500 2500,-2500 1381,0 2500,1119 2500,2500zm-2756 -1100c386,0 943,2 1095,9 141,6 218,30 269,49 65,26 112,56 161,103 -1,2 -1,4 -1,5 -69,258 -256,459 -500,697 -302,293 -632,508 -771,508 -139,0 -469,-215 -771,-508 -245,-238 -431,-439 -500,-697l0 0c51,-50 99,-82 166,-108 51,-19 128,-43 268,-49 153,-7 199,-9 584,-9zm248 1632c2,0 3,0 5,0 1,0 3,0 5,0 107,-2 274,-74 459,-193 78,136 180,295 300,438 91,108 194,206 307,279 -50,15 -120,30 -229,35 -152,7 -709,9 -1095,9 -385,0 -431,-2 -584,-9 -111,-5 -182,-20 -232,-37 112,-72 214,-170 305,-277 120,-143 221,-302 299,-438 185,119 353,191 460,193zm683 -344c92,-72 185,-152 274,-239 197,-191 363,-370 471,-570 6,35 10,75 12,122 7,152 8,134 8,520 0,386 -1,326 -8,478 -6,141 -30,217 -50,268 -19,49 -40,87 -69,124 -127,-50 -248,-158 -353,-283 -115,-135 -211,-290 -285,-420zm-1989 701c-29,-36 -50,-74 -68,-122 -20,-51 -44,-127 -50,-268 -7,-152 -8,-92 -8,-478 0,-386 1,-368 8,-520 2,-43 6,-81 10,-113 109,196 273,373 467,561 89,87 181,167 274,239 -74,130 -171,285 -285,420 -104,124 -223,230 -348,281zm1058 -2249l0 0c-392,0 -441,1 -595,8 -154,7 -259,32 -351,68 -95,37 -176,86 -256,166 -81,81 -130,161 -167,256 -36,92 -60,197 -67,351 -7,154 -9,140 -9,532 0,393 2,336 9,490 7,154 31,259 67,351 37,95 86,175 167,256 80,80 161,129 256,166 92,36 197,61 351,68 154,7 203,8 595,8 393,0 953,-1 1107,-8 154,-7 259,-32 351,-68 95,-37 176,-86 256,-166 81,-81 130,-161 167,-256 36,-92 60,-197 67,-351 7,-154 9,-97 9,-490 0,-392 -2,-378 -9,-532 -7,-154 -31,-259 -67,-351 -37,-95 -86,-175 -167,-256 -80,-80 -161,-129 -256,-166 -92,-36 -197,-61 -351,-68 -154,-7 -714,-8 -1107,-8z"/>
 </g>
</svg>
