<?xml version="1.0" encoding="UTF-8"?>
<!DOCTYPE svg PUBLIC "-//W3C//DTD SVG 1.1//EN" "http://www.w3.org/Graphics/SVG/1.1/DTD/svg11.dtd">
<!-- Creator: CorelDRAW X7 -->
<svg xmlns="http://www.w3.org/2000/svg" xml:space="preserve" width="50mm" height="50mm" version="1.1" style="shape-rendering:geometricPrecision; text-rendering:geometricPrecision; image-rendering:optimizeQuality; fill-rule:evenodd; clip-rule:evenodd"
viewBox="0 0 5000 5000"
 xmlns:xlink="http://www.w3.org/1999/xlink">
 <defs>
  <style type="text/css">
   <![CDATA[
    .fil0 {fill:#C5E4E7;fill-rule:nonzero}
   ]]>
  </style>
 </defs>
 <g id="Layer_x0020_1">
  <metadata id="CorelCorpID_0Corel-Layer"/>
  <g id="_632265082592">
   <path class="fil0" d="M289 2395c210,-243 443,-381 694,-410 423,-49 744,230 783,265 199,126 631,622 649,644 605,694 911,869 1006,910 3,-2 7,-3 7,-3l18 -9 1554 614 0 409 -1740 -682 0 -10c-129,-43 -484,-117 -1326,-60 -28,2 -685,46 -914,-4 -52,-3 -477,-33 -741,-368 -43,-53 -80,-113 -109,-176 -81,-175 -110,-386 -88,-633 -7,-5 -18,-12 -24,-27 -27,-58 23,-194 46,-250 66,-162 128,-233 185,-210zm63 1237c248,315 672,332 676,333l9 0c211,51 884,5 890,5 484,-33 812,-23 1031,0 -231,-50 -579,-107 -1069,-147 -33,-1 -830,-29 -1200,-234 -8,-4 -189,-103 -348,-267 -76,-79 -131,-158 -171,-237 8,220 69,403 182,547zm-150 -811c-3,394 525,682 532,686 350,193 1151,222 1161,222 419,34 734,80 962,124 -313,-105 -740,-228 -1164,-286 -26,-3 -629,-80 -993,-364 -14,-9 -310,-217 -474,-423 -8,15 -16,29 -24,41zm555 306c344,270 941,345 948,346 379,52 759,155 1062,252 -282,-147 -626,-344 -933,-577 -4,-4 -479,-373 -915,-428 -5,-1 -398,-69 -645,-32 145,202 476,435 483,439zm-438 -592c-3,19 -7,38 -14,55 262,-27 612,34 627,37 460,58 940,431 960,446 341,259 730,475 1027,623 -193,-131 -450,-322 -770,-595 -6,-6 -591,-553 -977,-664 -6,-2 -572,-170 -853,98zm445 -246c230,-4 427,56 435,58 406,117 990,661 1013,684 374,318 661,525 859,654 -171,-140 -409,-365 -727,-729 -5,-6 -447,-514 -631,-628l-7 -7c-4,-3 -313,-290 -713,-243 -181,21 -355,107 -516,257 84,-28 180,-44 287,-46z"/>
   <path class="fil0" d="M4391 502c19,-58 113,-60 280,-5 57,19 193,69 219,127 7,15 7,27 5,37 37,26 72,53 105,80l0 125c-3,-3 -5,-5 -8,-7 3,6 6,12 8,18l0 843c-145,402 -542,903 -561,927 -288,398 -470,699 -582,908 125,-182 331,-438 668,-785 4,-4 303,-309 475,-532l0 150c-173,208 -393,434 -407,448 -590,604 -764,922 -814,1047l7 7 -383 1110 -404 0 407 -1189 19 -9c0,0 2,-1 6,-2 31,-100 96,-446 -39,-1356 -5,-28 -103,-679 -71,-911 -1,-53 -5,-478 308,-769 184,-172 439,-260 762,-262zm333 202c50,258 17,618 14,635 -20,461 -352,969 -367,991 -230,361 -413,766 -537,1072 115,-203 284,-472 530,-812 7,-9 504,-636 584,-1029 2,-7 125,-596 -176,-849 -15,-2 -31,-5 -48,-8zm-101 -23c-188,163 -391,507 -394,511 -241,367 -268,968 -269,975 -20,384 -93,773 -166,1084 123,-294 292,-650 498,-972 4,-6 333,-509 353,-947 0,-7 38,-410 -22,-651zm-773 520c-166,366 -130,1167 -129,1174 0,421 -21,740 -46,973 79,-322 167,-759 192,-1186 1,-26 29,-632 283,-1020 7,-14 188,-320 378,-501 -17,-7 -34,-16 -51,-25 -386,39 -625,579 -627,585zm373 -595c-219,26 -397,102 -531,226 -294,274 -277,695 -276,700l-1 10c-32,214 68,880 69,887 71,478 89,806 83,1027 31,-235 60,-587 60,-1078 -3,-32 -39,-829 136,-1215 4,-7 87,-196 238,-369 72,-80 146,-142 222,-188z"/>
  </g>
 </g>
</svg>
