<?xml version="1.0" encoding="UTF-8"?>
<!DOCTYPE svg PUBLIC "-//W3C//DTD SVG 1.1//EN" "http://www.w3.org/Graphics/SVG/1.1/DTD/svg11.dtd">
<!-- Creator: CorelDRAW X7 -->
<svg xmlns="http://www.w3.org/2000/svg" xml:space="preserve" width="50mm" height="50mm" version="1.1" style="shape-rendering:geometricPrecision; text-rendering:geometricPrecision; image-rendering:optimizeQuality; fill-rule:evenodd; clip-rule:evenodd"
viewBox="0 0 5000 5000"
 xmlns:xlink="http://www.w3.org/1999/xlink">
 <defs>
  <style type="text/css">
   <![CDATA[
    .str0 {stroke:#7F705A;stroke-width:7.62}
    .fil0 {fill:none;fill-rule:nonzero}
    .fil1 {fill:#7F705A;fill-rule:nonzero}
   ]]>
  </style>
 </defs>
 <g id="Layer_x0020_1">
  <metadata id="CorelCorpID_0Corel-Layer"/>
  <g>
   <path class="fil0 str0" d="M2659 4995c-52,3 -106,5 -159,5 -1381,0 -2500,-1119 -2500,-2500 0,-1381 1119,-2500 2500,-2500 1381,0 2500,1119 2500,2500 0,1086 -692,2009 -1659,2355"/>
  </g>
  <g>
   <path class="fil1" d="M3359 3190l0 1665 -36 0 0 -1665 18 -17 18 17zm-36 0l0 -17 18 0 -18 17zm633 18l-615 0 0 -35 615 0 17 17 -17 18zm17 -18l0 18 -17 0 17 -18zm0 -643l0 643 -35 0 0 -643 18 -17 17 17zm-17 -17l17 0 0 17 -17 -17zm-587 0l587 0 0 35 -587 0 -17 -18 17 -17zm0 35l-17 0 0 -18 17 18zm18 -589l0 571 -35 0 0 -571 0 0 35 0zm186 -132l0 36 0 0 -10 0 -10 0 -10 0 -9 1 -10 1 -9 1 -9 1 -9 2 -8 1 -8 2 -8 2 -8 2 -7 3 -8 2 -6 3 -7 3 -6 3 -5 3 -6 4 -4 4 -5 3 -4 4 -4 4 -3 5 -3 4 -3 5 -2 5 -2 5 -1 5 -1 6 -1 5 0 7 -35 0 0 -9 1 -9 2 -8 2 -8 3 -8 3 -7 4 -7 4 -7 5 -6 6 -6 5 -6 7 -5 6 -5 7 -5 7 -4 8 -4 8 -3 8 -4 8 -3 9 -3 8 -2 9 -2 10 -2 9 -2 10 -2 10 -1 10 -1 10 -1 10 -1 11 0 10 -1 11 0 0 0zm377 36l-377 0 0 -36 377 1 17 17 -17 18zm17 -18l0 18 -17 0 17 -18zm-4 -686l4 686 -35 1 -4 -687 17 -17 18 17zm-18 -17l18 0 0 17 -18 -17zm-628 4l628 -4 1 35 -629 4 0 0 0 -35zm-669 704l-35 0 0 0 1 -36 3 -35 4 -35 6 -34 8 -34 10 -33 11 -32 12 -32 14 -31 16 -30 16 -30 19 -28 19 -28 21 -27 22 -25 23 -25 24 -23 26 -22 26 -21 28 -20 29 -19 29 -17 30 -16 32 -14 32 -13 32 -11 34 -10 34 -8 35 -6 35 -5 36 -3 37 -1 0 35 -35 1 -34 3 -33 5 -33 6 -33 7 -32 10 -31 10 -30 13 -30 13 -29 15 -28 16 -27 18 -26 19 -25 20 -25 21 -23 22 -22 24 -21 24 -20 25 -18 26 -17 27 -16 28 -15 29 -13 29 -12 31 -11 30 -9 32 -7 32 -6 32 -4 33 -3 34 -1 34 0 0zm-35 680l0 -680 35 0 0 680 -17 18 -18 -18zm35 0l0 18 -17 0 17 -18zm-603 -17l586 0 0 35 -586 0 -18 -18 18 -17zm-18 17l0 -17 18 0 -18 17zm0 643l0 -643 35 0 0 643 -17 18 -18 -18zm18 18l-18 0 0 -18 18 18zm614 0l-614 0 0 -35 614 0 18 17 -18 18zm0 -35l18 0 0 17 -18 -17zm-17 1822l0 -1805 35 0 0 1805 -35 0z"/>
  </g>
 </g>
</svg>
