<?xml version="1.0" encoding="UTF-8"?>
<!DOCTYPE svg PUBLIC "-//W3C//DTD SVG 1.1//EN" "http://www.w3.org/Graphics/SVG/1.1/DTD/svg11.dtd">
<!-- Creator: CorelDRAW X7 -->
<svg xmlns="http://www.w3.org/2000/svg" xml:space="preserve" width="50mm" height="50mm" version="1.1" style="shape-rendering:geometricPrecision; text-rendering:geometricPrecision; image-rendering:optimizeQuality; fill-rule:evenodd; clip-rule:evenodd"
viewBox="0 0 5000 5000"
 xmlns:xlink="http://www.w3.org/1999/xlink">
 <defs>
  <style type="text/css">
   <![CDATA[
    .fil0 {fill:#7F705A}
   ]]>
  </style>
 </defs>
 <g id="Layer_x0020_1">
  <metadata id="CorelCorpID_0Corel-Layer"/>
  <g>
   <path class="fil0" d="M5000 2500c0,1381 -1119,2500 -2500,2500 -1381,0 -2500,-1119 -2500,-2500 0,-1381 1119,-2500 2500,-2500 1381,0 2500,1119 2500,2500zm-757 1743c446,-446 722,-1062 722,-1743 0,-681 -276,-1297 -722,-1743 -446,-446 -1062,-722 -1743,-722 -681,0 -1297,276 -1743,722 -446,446 -722,1062 -722,1743 0,681 276,1297 722,1743 446,446 1062,722 1743,722 681,0 1297,-276 1743,-722z"/>
  </g>
  <g>
   <path class="fil0" d="M3153 2703c-18,-8 -69,-33 -120,-58 -48,-23 -96,-46 -111,-51l-1 0 -1 -1c-10,15 -24,32 -39,50 -25,30 -57,68 -71,84 -22,25 -46,39 -77,43 -26,3 -52,-3 -83,-18l0 0c-6,-3 -12,-6 -20,-9 -53,-23 -156,-67 -275,-173l0 0c-43,-38 -80,-79 -111,-117 -49,-61 -83,-116 -97,-139 -22,-39 -22,-72 -11,-102 10,-25 24,-40 38,-54 9,-9 17,-19 25,-29 9,-11 19,-22 24,-27 1,-3 3,-6 7,-11l1 0 0 -1c2,-3 4,-7 6,-10 3,-6 6,-11 9,-18l-1 -1c-8,-15 -37,-85 -65,-153 -21,-52 -42,-103 -45,-108l0 0c-6,-14 2,-14 -1,-14 -5,0 -9,0 -12,0 -11,0 -23,-1 -36,-2 -10,0 -20,-1 -31,-1 -5,0 -12,1 -20,5 -7,3 -14,8 -21,15l-1 1 -6 7c-30,32 -96,101 -96,233 0,17 2,33 4,49 3,16 7,33 11,50l0 0c16,54 41,104 64,142 22,38 42,65 48,73l1 0c1,2 4,7 10,15l0 0c43,63 248,364 554,484l0 0c273,106 312,97 346,89l1 0c11,-3 23,-6 39,-8l0 0c25,-2 70,-22 111,-51 30,-21 56,-45 63,-66l0 -1c11,-28 17,-56 20,-78 2,-19 8,-23 7,-26 -4,-4 -5,3 -17,-3 -3,-1 -5,-2 -20,-10zm31 -63c-35,-17 -206,-101 -238,-112 -32,-12 -55,-17 -79,17 -23,35 -90,113 -110,135 -21,23 -40,26 -76,9 -34,-17 -147,-53 -280,-172 -103,-91 -173,-204 -193,-238 -20,-35 -2,-53 15,-71 16,-16 35,-40 53,-60 5,-6 9,-12 13,-17 7,-12 13,-24 21,-41 12,-23 6,-43 -2,-61 -9,-17 -79,-187 -108,-256 -28,-69 -58,-57 -78,-57 -20,0 -43,-4 -67,-4 -23,0 -61,9 -93,44 -32,34 -121,118 -121,288 0,40 7,80 18,118 35,121 111,222 124,239 17,23 240,383 594,522 354,137 354,91 418,85 64,-5 206,-83 235,-164 29,-80 29,-149 20,-164 -8,-14 -32,-22 -66,-40zm768 -320c-19,-762 -647,-1373 -1419,-1373 -763,0 -1385,597 -1418,1347 -1,21 -2,41 -2,62 0,266 75,515 204,728l-256 755 786 -250c204,112 438,176 686,176 784,0 1420,-631 1420,-1409 0,-12 0,-24 -1,-36zm-1419 1220l0 0c-242,0 -468,-72 -657,-196l-458 146 149 -440c-143,-195 -228,-435 -228,-694 0,-39 2,-77 6,-115 59,-600 569,-1070 1188,-1070 627,0 1142,482 1190,1092 2,31 4,62 4,93 0,653 -536,1184 -1194,1184zm1349 -1218c-9,-363 -163,-689 -407,-925 -243,-235 -575,-380 -942,-380 -362,0 -690,142 -932,372 -244,231 -400,551 -416,908l0 0c0,11 -1,22 -1,29l0 1c0,3 0,11 0,29 0,125 17,245 49,359 33,118 82,230 144,332l17 28 -10 31 -212 624 654 -208 29 -9 26 15c98,53 204,96 315,124 108,28 221,42 337,42 373,0 710,-150 954,-392 244,-242 395,-576 395,-946 0,-13 0,-25 0,-32l0 -2zm-1349 1289c-126,0 -248,-19 -363,-53 -108,-32 -210,-79 -304,-137l-427 136 -132 43 44 -132 138 -406c-67,-98 -121,-205 -159,-320 -39,-122 -61,-252 -61,-386 0,-18 0,-39 2,-62 1,-20 2,-40 4,-60l0 0c32,-320 184,-604 410,-808 224,-202 522,-325 848,-325 330,0 632,127 857,333 227,209 377,499 403,823l0 0c1,14 2,30 3,49 1,20 1,36 1,50 0,346 -142,660 -371,887 -229,227 -545,368 -893,368z"/>
  </g>
 </g>
</svg>
