<?xml version="1.0" encoding="UTF-8"?>
<!DOCTYPE svg PUBLIC "-//W3C//DTD SVG 1.1//EN" "http://www.w3.org/Graphics/SVG/1.1/DTD/svg11.dtd">
<!-- Creator: CorelDRAW X7 -->
<svg xmlns="http://www.w3.org/2000/svg" xml:space="preserve" width="50mm" height="50mm" version="1.1" style="shape-rendering:geometricPrecision; text-rendering:geometricPrecision; image-rendering:optimizeQuality; fill-rule:evenodd; clip-rule:evenodd"
viewBox="0 0 5000 5000"
 xmlns:xlink="http://www.w3.org/1999/xlink">
 <defs>
  <style type="text/css">
   <![CDATA[
    .fil0 {fill:#7F705A}
    .fil1 {fill:#7F705A;fill-rule:nonzero}
   ]]>
  </style>
 </defs>
 <g id="Layer_x0020_1">
  <metadata id="CorelCorpID_0Corel-Layer"/>
  <g>
   <path class="fil0" d="M2659 4995c-52,3 -106,5 -159,5 -1381,0 -2500,-1119 -2500,-2500 0,-1381 1119,-2500 2500,-2500 1381,0 2500,1119 2500,2500 0,1086 -692,2009 -1659,2355l0 -1665 615 0 0 -643 -587 0 0 -571c0,-82 93,-114 204,-114l377 1 -4 -687 -629 4c-382,3 -686,314 -686,687l0 680 -586 0 0 643 614 0 0 1805zm-80 -32c14,0 30,-1 45,-1l0 -1736 -579 0 -36 0 0 -36 0 -643 0 -35 36 0 551 0 0 -645c0,-197 80,-378 211,-509l1 0c129,-130 309,-211 509,-213l628 -4 35 0 1 35 4 686 0 36 -35 0 -377 -1 0 0 -1 0c-50,0 -95,7 -127,23 -25,12 -40,30 -40,56l0 0 0 0 0 536 551 0 35 0 0 35 0 643 0 36 -35 0 -580 0 0 1578c463,-176 860,-488 1140,-886 283,-401 449,-890 449,-1418 0,-681 -276,-1297 -722,-1743 -446,-446 -1062,-722 -1743,-722 -681,0 -1297,276 -1743,722 -446,446 -722,1062 -722,1743 0,681 276,1297 722,1743 446,446 1062,722 1743,722 29,0 55,-1 79,-2z"/>
  </g>
  <g>
   <path class="fil1" d="M3376 4818c0,20 -15,36 -35,36 -19,0 -35,-16 -35,-36l70 0zm0 -1628l0 1628 -70 0 0 -1628 35 -35 35 35zm-70 0l0 -35 35 0 -35 35zm650 36l-615 0 0 -71 615 0 35 35 -35 36zm35 -36l0 36 -35 0 35 -36zm0 -643l0 643 -71 0 0 -643 36 -35 35 35zm-35 -35l35 0 0 35 -35 -35zm-587 0l587 0 0 71 -587 0 -35 -36 35 -35zm0 71l-35 0 0 -36 35 36zm36 -607l0 571 -71 0 0 -571 0 0 71 0zm168 -149l0 70 0 0 -10 0 -9 1 -10 0 -9 1 -9 0 -9 1 -8 2 -9 1 -8 1 -7 2 -8 2 -7 2 -7 2 -6 3 -6 2 -6 3 -5 2 -5 3 -4 3 -4 3 -4 3 -3 4 -3 3 -3 3 -2 3 -2 4 -1 3 -2 4 -1 4 -1 4 0 5 0 5 -71 0 1 -10 1 -10 1 -10 3 -9 3 -9 4 -9 5 -8 5 -8 6 -8 6 -6 7 -7 7 -6 7 -5 8 -5 8 -5 8 -5 8 -4 9 -3 9 -3 9 -3 10 -3 9 -3 10 -2 10 -2 10 -1 11 -2 10 -1 11 -1 10 0 11 -1 11 0 11 0 0 0zm377 71l-377 -1 0 -70 377 0 35 35 -35 36zm35 -36l0 36 -35 0 35 -36zm-4 -686l4 686 -71 1 -4 -686 35 -36 36 35zm-36 -35l36 0 0 35 -36 -35zm-628 4l628 -4 1 71 -629 4 0 0 0 -71zm-651 722l-70 0 0 0 0 -37 3 -36 5 -36 6 -35 8 -34 10 -34 11 -34 13 -32 14 -32 16 -31 17 -30 19 -29 20 -28 21 -28 23 -26 24 -25 25 -24 26 -23 27 -21 28 -21 29 -19 31 -17 31 -16 32 -15 33 -13 33 -12 35 -10 35 -8 35 -7 37 -5 36 -3 38 -1 0 71 -34 1 -33 3 -33 4 -32 6 -31 7 -31 9 -31 11 -29 12 -29 13 -28 15 -28 15 -26 18 -26 18 -24 19 -24 21 -22 22 -22 22 -20 24 -19 25 -19 25 -16 27 -16 27 -14 28 -13 28 -12 30 -10 30 -9 30 -7 31 -5 32 -5 32 -2 33 -1 33 0 0zm-70 680l0 -680 70 0 0 680 -35 36 -35 -36zm70 0l0 36 -35 0 35 -36zm-621 -35l586 0 0 71 -586 0 -36 -36 36 -35zm-36 35l0 -35 36 0 -36 35zm0 643l0 -643 71 0 0 643 -35 36 -36 -36zm36 36l-36 0 0 -36 36 36zm614 0l-614 0 0 -71 614 0 35 35 -35 36zm0 -71l35 0 0 35 -35 -35zm-35 1804l0 -1769 70 0 0 1769 -70 0zm70 0c0,20 -15,36 -35,36 -19,0 -35,-16 -35,-36l70 0z"/>
  </g>
 </g>
</svg>
