<?xml version="1.0" encoding="UTF-8"?>
<!DOCTYPE svg PUBLIC "-//W3C//DTD SVG 1.1//EN" "http://www.w3.org/Graphics/SVG/1.1/DTD/svg11.dtd">
<!-- Creator: CorelDRAW X7 -->
<svg xmlns="http://www.w3.org/2000/svg" xml:space="preserve" width="50mm" height="50mm" version="1.1" style="shape-rendering:geometricPrecision; text-rendering:geometricPrecision; image-rendering:optimizeQuality; fill-rule:evenodd; clip-rule:evenodd"
viewBox="0 0 5000 5000"
 xmlns:xlink="http://www.w3.org/1999/xlink">
 <defs>
  <style type="text/css">
   <![CDATA[
    .fil0 {fill:#7F705A}
   ]]>
  </style>
 </defs>
 <g id="Layer_x0020_1">
  <metadata id="CorelCorpID_0Corel-Layer"/>
  <g>
   <path class="fil0" d="M5000 2500l0 2 0 -2 0 -2 0 2zm-111 740l-1 3 -1 4 2 -7zm-19 59l-1 3 -2 3 3 -6zm-1175 1397l-3 2 -4 2 7 -4zm-390 171l-3 2 -4 1 7 -3zm-58 20l-4 1 -3 1 7 -2zm-745 113l-2 0 -2 0 2 0 2 0zm-742 -111l-3 -1 -4 -1 7 2zm-59 -19l-3 -1 -3 -2 6 3zm-1701 -2368l0 -2 0 -2 0 2 0 2zm1695 -2369l3 -2 3 -1 -6 3zm58 -20l4 -1 3 -1 -7 2zm745 -113l2 0 2 0 -2 0 -2 0zm2369 1695l2 3 1 3 -3 -6zm20 58l1 4 1 3 -2 -7z"/>
  </g>
  <g>
   <path class="fil0" d="M3168 2672c-17,-9 -68,-34 -120,-58 -49,-24 -99,-48 -114,-53l0 0c-12,-4 -21,-8 -27,-7 -2,0 -5,3 -10,11l0 0c-10,14 -26,35 -43,56 -26,31 -57,68 -71,82 -16,19 -33,29 -54,32 -19,2 -39,-3 -63,-15l0 0c-6,-3 -13,-6 -22,-9 -51,-22 -151,-65 -266,-167l0 0c-41,-37 -77,-76 -107,-113 -48,-59 -81,-113 -93,-135 -17,-28 -17,-51 -9,-71 7,-19 18,-30 29,-42 10,-9 19,-20 28,-31 9,-10 17,-21 23,-28l10 -12 0 0 1 -1c3,-5 6,-10 8,-15 4,-6 7,-13 11,-21l0 -1c3,-5 3,-9 3,-13 -1,-5 -3,-10 -6,-16 -6,-13 -35,-82 -63,-150 -19,-46 -38,-91 -45,-108l0 -1c-16,-37 -27,-36 -36,-35 -4,0 -7,0 -10,0 -10,0 -22,-1 -33,-2 -11,0 -22,-1 -34,-1 -9,0 -22,2 -35,8 -11,5 -22,12 -32,23l0 1 -7 7c-33,35 -105,111 -105,257 0,19 1,37 4,54 3,18 7,36 12,54l0 0c17,58 43,110 67,151 24,40 45,68 52,77l0 0c1,1 4,6 9,12l0 0c44,65 254,374 570,498l0 0c283,110 328,99 368,90l0 0c10,-3 20,-5 34,-7l0 0c30,-2 82,-25 128,-57 36,-25 66,-55 76,-83l1 -1c11,-31 18,-61 21,-86 3,-27 4,-44 2,-48 -2,-2 -14,-8 -32,-16 -4,-2 -9,-5 -20,-10zm16 -32c-35,-17 -206,-101 -238,-112 -32,-12 -55,-17 -79,17 -23,35 -90,113 -110,135 -21,23 -40,26 -76,9 -34,-17 -147,-53 -280,-172 -103,-91 -173,-204 -193,-238 -20,-35 -2,-53 15,-71 16,-16 35,-40 53,-60 5,-6 9,-12 13,-17 7,-12 13,-24 21,-41 12,-23 6,-43 -2,-61 -9,-17 -79,-187 -108,-256 -28,-69 -58,-57 -78,-57 -20,0 -43,-4 -67,-4 -23,0 -61,9 -93,44 -32,34 -121,118 -121,288 0,40 7,80 18,118 35,121 111,222 124,239 17,23 240,383 594,522 354,137 354,91 418,85 64,-5 206,-83 235,-164 29,-80 29,-149 20,-164 -8,-14 -32,-22 -66,-40zm768 -320c-19,-762 -647,-1373 -1419,-1373 -763,0 -1385,597 -1418,1347 -1,21 -2,41 -2,62 0,266 75,515 204,728l-256 755 786 -250c204,112 438,176 686,176 784,0 1420,-631 1420,-1409 0,-12 0,-24 -1,-36zm-1419 1220l0 0c-242,0 -468,-72 -657,-196l-458 146 149 -440c-143,-195 -228,-435 -228,-694 0,-39 2,-77 6,-115 59,-600 569,-1070 1188,-1070 627,0 1142,482 1190,1092 2,31 4,62 4,93 0,653 -536,1184 -1194,1184zm1384 -1219c-9,-372 -168,-707 -418,-949 -249,-241 -590,-390 -966,-390 -371,0 -708,145 -957,381 -249,237 -410,566 -426,933l0 0c0,10 -1,21 -1,30l0 0c0,7 0,16 0,30 0,128 17,251 50,368 34,122 84,236 148,341l8 14 -5 16 -233 690 720 -229 14 -5 13 7c101,56 209,99 323,128 111,28 227,44 346,44 383,0 729,-154 979,-403 251,-248 405,-592 405,-971 0,-12 0,-25 0,-34l0 -1zm-1384 1254c-123,0 -241,-17 -353,-51 -110,-33 -214,-81 -309,-141l-443 141 -66 21 23 -66 143 -423c-70,-98 -126,-208 -164,-324 -39,-119 -60,-245 -60,-376 0,-19 1,-39 2,-60 1,-20 2,-39 4,-59l0 0c31,-310 178,-586 399,-785 218,-196 507,-316 824,-316 321,0 614,123 833,324 221,203 367,485 392,800l0 0c1,15 2,30 3,48 1,17 1,33 1,48 0,336 -138,641 -360,862 -223,221 -530,357 -869,357z"/>
  </g>
 </g>
</svg>
