<?xml version="1.0" encoding="UTF-8"?>
<!DOCTYPE svg PUBLIC "-//W3C//DTD SVG 1.1//EN" "http://www.w3.org/Graphics/SVG/1.1/DTD/svg11.dtd">
<!-- Creator: CorelDRAW X7 -->
<svg xmlns="http://www.w3.org/2000/svg" xml:space="preserve" width="50mm" height="50mm" version="1.1" style="shape-rendering:geometricPrecision; text-rendering:geometricPrecision; image-rendering:optimizeQuality; fill-rule:evenodd; clip-rule:evenodd"
viewBox="0 0 5000 5000"
 xmlns:xlink="http://www.w3.org/1999/xlink">
 <defs>
  <style type="text/css">
   <![CDATA[
    .fil0 {fill:#7F705A}
   ]]>
  </style>
 </defs>
 <g id="Layer_x0020_1">
  <metadata id="CorelCorpID_0Corel-Layer"/>
  <g>
   <path class="fil0" d="M5000 2500l0 2 0 -2 0 -2 0 2zm-2499 2500l-1 0 -2 0 2 0 1 0zm-2501 -2498l0 -2 0 -2 0 2 0 2zm111 -742l1 -3 1 -4 -2 7zm19 -59l1 -3 2 -3 -3 6zm1565 -1568l3 -2 3 -1 -6 3zm58 -20l4 -1 3 -1 -7 2zm745 -113l2 0 1 0 -1 0 -2 0z"/>
  </g>
  <g>
   <path class="fil0" d="M3309 1951l0 0c-2,0 -4,0 -6,1 7,-1 14,-3 21,-5 -5,1 -10,3 -15,4zm139 -170l0 1 0 -1 0 -1 0 1zm-3 29c0,2 -1,4 -1,6l0 2c0,-3 1,-5 1,-8zm-5 21c0,2 -1,5 -2,7 1,-2 2,-5 2,-7zm-4 11c-2,7 -5,13 -8,20 3,-7 6,-13 8,-20zm-8 20c-11,19 -24,36 -40,50 -7,5 -13,10 -20,15 -2,1 -4,2 -6,3 13,-7 24,-16 35,-27 12,-12 22,-26 31,-41zm-66 68c-8,5 -16,9 -24,12 -2,1 -4,2 -6,2 11,-3 21,-8 30,-14zm-31 15c-2,0 -5,1 -7,2 2,-1 5,-2 7,-2zm-56 9l-1 0 -1 0 1 0 1 0zm-30 -2c-2,-1 -4,-1 -6,-1l-2 -1c3,1 5,1 8,2zm-16 -4c-3,0 -6,-1 -8,-2 2,1 5,2 8,2zm-20 -7l-2 0 -2 -1 4 1zm-12 -5c-3,-1 -5,-2 -7,-3 2,1 4,2 7,3zm-15 -8c-3,-2 -6,-4 -10,-7 4,3 7,5 10,7zm-20 -15c-25,-21 -44,-50 -54,-82 8,27 23,52 43,72 4,4 7,7 11,10zm-57 -95l-1 -2c0,-2 -1,-4 -1,-6 1,3 1,5 2,8zm-4 -36l0 -1 0 -1 0 1 0 1zm6 -47c2,-7 4,-13 6,-20 -2,7 -4,13 -6,20zm6 -20c2,-2 3,-5 4,-7 -1,2 -2,5 -4,7zm4 -7c4,-9 9,-18 14,-26 -5,8 -10,17 -14,26zm17 -30c2,-2 3,-4 5,-6 -2,2 -3,4 -5,6zm8 -9c6,-8 13,-14 20,-21 -4,3 -7,7 -11,10 -3,4 -6,7 -9,11zm23 -23c2,-2 5,-4 7,-5 -2,1 -5,3 -7,5zm11 -8c8,-5 16,-10 25,-14 -9,4 -17,9 -25,14zm25 -14c2,-2 5,-3 8,-4 -3,1 -6,2 -8,4zm8 -4c6,-2 13,-5 20,-7 -7,2 -14,5 -20,7zm64 -13l1 0 1 0 -1 0 -1 0zm51 8c5,1 10,3 15,5 -5,-2 -10,-4 -15,-5zm16 5c2,1 5,2 7,4 -2,-2 -5,-3 -7,-4zm7 4c4,1 8,3 12,5 -4,-2 -8,-4 -12,-5zm12 5c4,3 9,6 14,9 -5,-3 -10,-6 -14,-9zm27 19c4,4 8,8 12,12l-1 -2c-4,-3 -7,-7 -11,-10zm31 34c1,2 3,5 4,7 -1,-2 -3,-5 -4,-7zm5 8c1,2 2,4 4,6 -2,-2 -3,-4 -4,-6zm4 6c2,4 4,8 5,12 -1,-4 -3,-8 -5,-12zm5 12c2,2 3,5 4,7 -1,-2 -2,-5 -4,-7zm7 15c1,4 2,8 4,12 -2,-4 -3,-8 -4,-12z"/>
  </g>
  <g>
   <path class="fil0" d="M2503 1845c-196,0 -372,80 -500,207 -128,128 -207,305 -207,500 0,196 79,372 207,500 128,128 304,207 500,207 195,0 372,-79 499,-207 128,-128 207,-304 207,-500 0,-195 -79,-372 -207,-500 -127,-127 -304,-207 -499,-207zm0 -35c-410,0 -743,332 -743,742 0,410 333,743 743,743 409,0 742,-333 742,-743 0,-410 -333,-742 -742,-742zm0 1224l0 0c-267,0 -482,-216 -482,-482 0,-266 215,-481 482,-481 266,0 481,215 481,481 0,266 -215,482 -481,482zm584 -1658c141,6 217,30 268,50 67,26 116,57 166,108 51,50 82,98 108,166 20,51 44,127 50,268 7,153 8,198 8,584 0,386 -1,432 -8,584 -6,141 -30,218 -50,269 -26,67 -57,115 -108,166 -50,51 -99,82 -166,108 -51,20 -127,43 -268,50 -153,7 -198,8 -584,8 -386,0 -432,-1 -584,-8 -141,-7 -218,-30 -269,-50 -67,-26 -115,-57 -166,-108 -51,-51 -82,-99 -108,-166 -20,-51 -44,-128 -50,-269 -7,-152 -8,-198 -8,-584 0,-386 1,-431 8,-584 6,-141 30,-217 50,-268 26,-68 57,-116 108,-166 51,-51 99,-82 166,-108 51,-20 128,-44 269,-50 152,-7 198,-9 584,-9 385,0 431,2 584,9zm-584 -269l0 0c-393,0 -442,2 -596,9 -154,7 -259,31 -351,67 -95,37 -176,86 -256,167 -81,80 -130,161 -167,256 -36,92 -60,197 -67,350 -7,155 -9,204 -9,596 0,393 2,442 9,596 7,154 31,259 67,351 37,95 86,176 167,256 80,80 161,130 256,167 92,36 197,60 351,67 154,7 203,9 596,9 392,0 441,-2 595,-9 154,-7 259,-31 351,-67 95,-37 176,-87 256,-167 81,-80 130,-161 167,-256 36,-92 60,-197 67,-351 7,-154 9,-203 9,-596 0,-392 -2,-441 -9,-596 -7,-153 -31,-258 -67,-350 -37,-95 -86,-176 -167,-256 -80,-81 -161,-130 -256,-167 -92,-36 -197,-60 -351,-67 -154,-7 -203,-9 -595,-9zm0 1962c-143,0 -273,-57 -366,-151 -94,-94 -151,-223 -151,-366 0,-142 57,-272 151,-365 93,-94 223,-152 366,-152 142,0 272,58 365,152 94,93 152,223 152,365 0,143 -58,272 -152,366 -93,94 -223,151 -365,151zm0 -1737c187,0 294,1 380,2 80,1 129,3 205,7 73,3 129,11 174,20 45,10 79,21 106,32 36,14 67,29 96,48 28,19 55,41 82,68l0 0 0 0c27,27 49,53 68,82 19,29 34,60 48,96 11,27 22,61 32,106 9,45 17,101 20,174 4,76 6,125 7,205 1,86 2,193 2,380 0,187 -1,295 -2,380 -1,81 -3,130 -7,206 -3,73 -11,129 -20,174 -10,45 -21,79 -32,105 -14,36 -29,67 -48,96 -19,29 -41,56 -68,83l0 0 0 0c-27,27 -54,49 -82,68 -29,18 -60,34 -96,48 -27,10 -61,22 -106,31 -45,10 -101,18 -174,21 -76,3 -125,6 -205,7 -86,1 -193,2 -380,2 -188,0 -295,-1 -381,-2 -80,-1 -129,-4 -205,-7 -73,-3 -129,-11 -174,-21 -45,-9 -79,-21 -106,-31 -36,-14 -67,-30 -95,-48 -29,-19 -56,-41 -83,-68l0 0c-27,-27 -49,-53 -68,-83 -19,-29 -34,-60 -48,-96 -10,-26 -22,-60 -32,-105 -9,-45 -17,-101 -20,-174 -4,-76 -6,-125 -7,-206 -1,-85 -2,-192 -2,-380 0,-187 1,-294 2,-380 1,-80 3,-129 7,-205 3,-73 11,-129 20,-174 10,-45 22,-79 32,-106 14,-36 29,-67 48,-96 19,-29 41,-55 68,-82l0 0c27,-27 54,-49 83,-68 28,-19 59,-34 95,-48 27,-11 61,-22 106,-32 45,-9 101,-17 174,-20 76,-4 125,-6 205,-7 86,-1 193,-2 381,-2zm0 -190c-202,0 -313,1 -387,2 -79,1 -130,3 -208,7 -75,3 -138,11 -193,22 -55,11 -102,25 -147,43 -45,17 -87,38 -127,64 -39,25 -78,56 -116,94 -39,39 -70,77 -95,117 -26,40 -47,82 -64,127 -17,45 -32,92 -43,147 -11,55 -19,118 -22,193 -4,77 -6,128 -7,208 -1,74 -2,184 -2,386 0,202 1,313 2,387 1,79 3,130 7,208 3,75 11,138 22,193 11,55 26,102 43,146 17,46 38,88 64,128 25,39 56,78 95,116 38,39 77,70 116,95 40,26 82,46 127,64 45,17 92,32 147,43 55,11 118,18 193,22 78,3 129,6 208,7 74,1 185,1 387,1 201,0 312,0 386,-1 80,-1 131,-4 208,-7 75,-4 138,-11 193,-22 55,-11 102,-26 147,-43 45,-18 87,-38 127,-64 40,-26 78,-56 116,-95l0 0c39,-38 70,-77 95,-116 26,-40 47,-82 64,-128 17,-44 32,-91 43,-146 11,-55 19,-118 22,-193 4,-78 6,-129 7,-208 1,-74 2,-185 2,-387 0,-202 -1,-312 -2,-386 -1,-80 -3,-131 -7,-208 -3,-75 -11,-138 -22,-193 -11,-55 -26,-102 -43,-147 -17,-45 -38,-87 -64,-127 -25,-40 -56,-78 -95,-117l0 0c-38,-38 -76,-69 -116,-94 -40,-26 -82,-47 -127,-64 -45,-18 -92,-32 -147,-43 -55,-11 -118,-19 -193,-22 -77,-4 -128,-6 -208,-7 -74,-1 -185,-2 -386,-2z"/>
  </g>
 </g>
</svg>
