<?xml version="1.0" encoding="UTF-8"?>
<!DOCTYPE svg PUBLIC "-//W3C//DTD SVG 1.1//EN" "http://www.w3.org/Graphics/SVG/1.1/DTD/svg11.dtd">
<!-- Creator: CorelDRAW X7 -->
<svg xmlns="http://www.w3.org/2000/svg" xml:space="preserve" width="50mm" height="50mm" version="1.1" style="shape-rendering:geometricPrecision; text-rendering:geometricPrecision; image-rendering:optimizeQuality; fill-rule:evenodd; clip-rule:evenodd"
viewBox="0 0 5000 5000"
 xmlns:xlink="http://www.w3.org/1999/xlink">
 <defs>
  <style type="text/css">
   <![CDATA[
    .fil0 {fill:#7F705A}
   ]]>
  </style>
 </defs>
 <g id="Layer_x0020_1">
  <metadata id="CorelCorpID_0Corel-Layer"/>
  <g>
   <path class="fil0" d="M5000 2500c0,1381 -1119,2500 -2500,2500 -1381,0 -2500,-1119 -2500,-2500 0,-1381 1119,-2500 2500,-2500 1381,0 2500,1119 2500,2500zm-757 1743c446,-446 722,-1062 722,-1743 0,-681 -276,-1297 -722,-1743 -446,-446 -1062,-722 -1743,-722 -681,0 -1297,276 -1743,722 -446,446 -722,1062 -722,1743 0,681 276,1297 722,1743 446,446 1062,722 1743,722 681,0 1297,-276 1743,-722z"/>
  </g>
  <g>
   <path class="fil0" d="M3448 1781c0,96 -78,173 -174,173 -96,0 -173,-77 -173,-173 0,-96 77,-174 173,-174 96,0 174,78 174,174zm-76 98c25,-25 40,-60 40,-98 0,-38 -15,-73 -40,-98 -25,-25 -60,-40 -98,-40 -38,0 -73,15 -98,40 -25,25 -40,60 -40,98 0,38 15,73 40,98l0 0c25,25 60,40 98,40 38,0 73,-15 98,-40z"/>
  </g>
  <g>
   <path class="fil0" d="M2503 1881c-186,0 -354,75 -475,196 -122,122 -197,290 -197,475 0,186 75,354 197,475 121,122 289,197 475,197 185,0 353,-75 474,-197 122,-121 197,-289 197,-475 0,-185 -75,-353 -197,-475 -121,-121 -289,-196 -474,-196zm0 -71c-410,0 -743,332 -743,742 0,410 333,743 743,743 409,0 742,-333 742,-743 0,-410 -333,-742 -742,-742zm0 1224l0 0c-267,0 -482,-216 -482,-482 0,-266 215,-481 482,-481 266,0 481,215 481,481 0,266 -215,482 -481,482zm584 -1658c141,6 217,30 268,50 67,26 116,57 166,108 51,50 82,98 108,166 20,51 44,127 50,268 7,153 8,198 8,584 0,386 -1,432 -8,584 -6,141 -30,218 -50,269 -26,67 -57,115 -108,166 -50,51 -99,82 -166,108 -51,20 -127,43 -268,50 -153,7 -198,8 -584,8 -386,0 -432,-1 -584,-8 -141,-7 -218,-30 -269,-50 -67,-26 -115,-57 -166,-108 -51,-51 -82,-99 -108,-166 -20,-51 -44,-128 -50,-269 -7,-152 -8,-198 -8,-584 0,-386 1,-431 8,-584 6,-141 30,-217 50,-268 26,-68 57,-116 108,-166 51,-51 99,-82 166,-108 51,-20 128,-44 269,-50 152,-7 198,-9 584,-9 385,0 431,2 584,9zm-584 -269l0 0c-393,0 -442,2 -596,9 -154,7 -259,31 -351,67 -95,37 -176,86 -256,167 -81,80 -130,161 -167,256 -36,92 -60,197 -67,350 -7,155 -9,204 -9,596 0,393 2,442 9,596 7,154 31,259 67,351 37,95 86,176 167,256 80,80 161,130 256,167 92,36 197,60 351,67 154,7 203,9 596,9 392,0 441,-2 595,-9 154,-7 259,-31 351,-67 95,-37 176,-87 256,-167 81,-80 130,-161 167,-256 36,-92 60,-197 67,-351 7,-154 9,-203 9,-596 0,-392 -2,-441 -9,-596 -7,-153 -31,-258 -67,-350 -37,-95 -86,-176 -167,-256 -80,-81 -161,-130 -256,-167 -92,-36 -197,-60 -351,-67 -154,-7 -203,-9 -595,-9zm0 1998c-153,0 -291,-62 -391,-162 -100,-100 -162,-238 -162,-391 0,-152 62,-290 162,-390 100,-100 238,-162 391,-162 152,0 290,62 390,162 100,100 162,238 162,390 0,153 -62,291 -162,391 -100,100 -238,162 -390,162zm0 -1808c181,0 288,0 380,2 82,1 131,3 207,7 75,3 133,11 179,21 47,10 83,22 111,33 39,15 72,31 103,52 31,20 59,43 88,72l0 0c29,29 52,57 72,88 20,31 37,64 52,103 11,28 23,64 33,111 10,46 18,104 21,179 4,76 6,125 7,207 2,92 2,199 2,380 0,182 0,289 -2,381 -1,82 -3,131 -7,206 -3,76 -11,134 -21,180 -10,47 -22,83 -33,111 -15,39 -32,72 -52,103 -20,31 -43,59 -72,88l0 0c-29,29 -57,52 -88,72 -31,20 -64,37 -103,52 -28,11 -64,23 -111,33 -46,10 -104,18 -179,21 -76,4 -125,6 -207,7 -92,1 -199,2 -380,2 -182,0 -289,-1 -381,-2 -82,-1 -131,-3 -207,-7 -75,-3 -133,-11 -179,-21 -47,-10 -83,-22 -111,-33 -39,-15 -72,-32 -103,-52 -31,-20 -59,-44 -88,-72l0 0c-28,-28 -52,-57 -72,-88 -20,-31 -37,-64 -52,-103 -11,-28 -23,-64 -33,-111 -10,-46 -18,-104 -21,-180 -4,-75 -6,-124 -7,-206 -1,-92 -2,-199 -2,-381 0,-181 1,-288 2,-380 1,-82 3,-131 7,-207 3,-75 11,-133 21,-179 10,-47 22,-83 33,-111 15,-39 32,-72 52,-103 20,-31 44,-60 72,-88l0 0c29,-29 57,-52 88,-72 31,-21 64,-37 103,-52 28,-11 64,-23 111,-33 46,-10 104,-18 179,-21 76,-4 125,-6 207,-7 92,-2 199,-2 381,-2zm0 -119c-208,0 -319,0 -387,1 -78,1 -129,3 -206,7 -74,3 -135,11 -188,21 -53,11 -98,25 -141,41 -43,17 -83,37 -121,61 -37,24 -74,54 -110,90 -37,37 -67,74 -91,111 -24,38 -44,78 -60,121 -17,43 -31,88 -41,141 -11,53 -19,114 -22,187 -3,78 -6,129 -7,207 -1,68 -1,179 -1,386 0,208 0,319 1,387 1,77 4,129 7,206 3,74 11,135 22,188 10,53 24,98 41,141 16,43 36,82 60,121 24,37 54,73 91,110 36,37 73,66 110,91 38,24 78,44 121,60 43,17 88,31 141,41 53,11 114,18 188,22 77,3 128,5 206,7 68,1 179,1 387,1 207,0 318,0 386,-1 78,-2 129,-4 206,-7 74,-4 135,-11 188,-22 53,-10 98,-24 141,-41 43,-16 83,-36 121,-60 38,-25 74,-54 110,-90l0 -1c37,-37 67,-73 91,-110 24,-39 44,-78 60,-121 17,-43 31,-88 42,-141 10,-53 18,-114 21,-188 3,-77 6,-129 7,-206 1,-68 1,-179 1,-387 0,-207 0,-318 -1,-386 -1,-78 -4,-129 -7,-207 -3,-73 -11,-134 -21,-187 -11,-53 -25,-98 -42,-141 -16,-43 -36,-83 -60,-121 -24,-37 -54,-74 -91,-111l0 0c-36,-36 -72,-65 -110,-90 -38,-24 -78,-44 -121,-61 -43,-16 -88,-30 -141,-41 -53,-10 -114,-18 -188,-21 -77,-4 -128,-6 -206,-7 -68,-1 -179,-1 -386,-1z"/>
  </g>
 </g>
</svg>
