<?xml version="1.0" encoding="UTF-8"?>
<!DOCTYPE svg PUBLIC "-//W3C//DTD SVG 1.1//EN" "http://www.w3.org/Graphics/SVG/1.1/DTD/svg11.dtd">
<!-- Creator: CorelDRAW X7 -->
<svg xmlns="http://www.w3.org/2000/svg" xml:space="preserve" width="50mm" height="50mm" version="1.1" style="shape-rendering:geometricPrecision; text-rendering:geometricPrecision; image-rendering:optimizeQuality; fill-rule:evenodd; clip-rule:evenodd"
viewBox="0 0 5000 5000"
 xmlns:xlink="http://www.w3.org/1999/xlink">
 <defs>
  <style type="text/css">
   <![CDATA[
    .fil0 {fill:#7F705A}
   ]]>
  </style>
 </defs>
 <g id="Layer_x0020_1">
  <metadata id="CorelCorpID_0Corel-Layer"/>
  <g>
   <path class="fil0" d="M2234 1365c213,0 487,0 726,2 168,2 306,4 371,6 73,4 129,12 174,21 45,10 78,21 105,32 35,13 65,28 93,46 29,18 54,39 80,64l16 15 -7 21 0 1 0 0 -1 3 0 0c-35,133 -101,252 -190,368 -87,113 -195,224 -319,344 -151,147 -310,275 -449,367 -144,95 -269,151 -346,151 -77,0 -202,-56 -346,-151 -139,-92 -298,-220 -449,-367 -124,-120 -233,-231 -320,-344 -88,-116 -154,-234 -190,-368l0 0 0 0 -5 -20 14 -15c27,-27 54,-49 83,-67 28,-19 59,-34 95,-48 27,-11 61,-22 106,-32 45,-9 101,-17 174,-21 76,-3 125,-5 205,-6l0 0c86,-2 193,-2 380,-2zm0 35c386,0 943,2 1095,9 141,6 218,30 269,49 65,26 112,56 161,103 -1,2 -1,4 -2,5 -68,258 -255,459 -499,697 -302,293 -632,508 -771,508 -139,0 -469,-215 -771,-508 -245,-238 -431,-439 -500,-697l0 0c51,-50 99,-82 166,-108 51,-19 127,-43 268,-49 153,-7 198,-9 584,-9zm-212 1439c185,119 353,191 460,193 2,0 3,0 5,0 1,0 3,0 4,0 108,-2 275,-74 460,-193 78,136 179,295 300,438 91,108 194,206 307,279 -50,15 -120,30 -229,35 -152,7 -709,9 -1095,9 -386,0 -431,-2 -584,-9 -111,-5 -182,-20 -232,-36 112,-73 214,-171 305,-278 120,-143 221,-302 299,-438zm1143 -151c92,-72 185,-152 274,-239 197,-191 363,-370 471,-570 6,35 10,75 12,122 7,152 8,134 8,520 0,386 -1,326 -8,478 -7,141 -30,217 -50,268 -19,49 -40,87 -69,124 -128,-50 -248,-157 -353,-283 -115,-135 -212,-290 -285,-420zm-2107 -687c2,-43 5,-81 10,-113 108,196 273,373 467,561 88,87 181,167 274,239 -74,130 -171,285 -285,420 -104,124 -223,230 -348,281 -29,-36 -50,-74 -68,-122 -20,-51 -44,-127 -50,-268 -7,-152 -9,-92 -9,-478 0,-386 2,-368 9,-520zm1176 -861l0 0c-392,0 -441,1 -596,8 -153,7 -258,32 -350,68 -95,37 -176,86 -256,166 -81,81 -130,161 -167,256 -36,92 -60,197 -67,351 -7,154 -9,140 -9,532 0,393 2,336 9,490 7,154 31,259 67,351 37,95 86,175 167,256 80,80 161,129 256,166 92,36 197,61 350,68 155,7 204,8 596,8 393,0 953,-1 1107,-8 154,-7 259,-32 351,-68 95,-37 176,-86 256,-166 80,-81 130,-161 167,-256 36,-92 60,-197 67,-351 7,-154 9,-97 9,-490 0,-392 -2,-378 -9,-532 -7,-154 -31,-259 -67,-351 -37,-95 -87,-175 -167,-256 -80,-80 -161,-129 -256,-166 -92,-36 -197,-61 -351,-68 -154,-7 -714,-8 -1107,-8zm249 1857l2 0 0 0 2 0 1 0 0 0 3 0 0 0c48,-1 112,-18 185,-49 77,-32 165,-80 256,-138l32 -20 18 32c39,68 83,141 132,214 50,73 104,148 164,218 44,53 92,104 142,150 50,46 102,87 157,122l63 41 -72 22c-26,9 -58,17 -97,23 -38,7 -84,12 -140,15 -65,2 -203,4 -371,6 -239,2 -513,2 -726,2 -187,0 -294,0 -380,-2l0 0c-80,-1 -129,-3 -205,-6 -58,-3 -105,-8 -144,-15 -39,-7 -71,-15 -98,-24l-70 -23 62 -40c54,-35 106,-76 156,-122 49,-46 96,-96 141,-149 59,-70 114,-145 163,-218 49,-73 94,-146 133,-214l18 -32 31 20c92,58 180,106 257,138 73,31 136,48 185,49l0 0zm660 -337c47,-37 94,-75 139,-114 45,-39 89,-80 133,-122 98,-95 188,-187 266,-279 78,-92 145,-184 198,-282l50 -93 16 104c3,17 5,36 7,58 2,21 4,43 5,68l2 45 0 0c5,110 7,135 7,476 0,313 -1,332 -6,412 -1,19 -2,41 -3,67 -3,73 -11,130 -21,174 -9,45 -21,79 -31,106 -10,26 -21,49 -33,71 -12,21 -26,41 -42,61l-16 21 -24 -10c-67,-26 -132,-67 -194,-118 -61,-50 -119,-110 -173,-174 -58,-69 -112,-142 -160,-215 -48,-72 -91,-145 -129,-211l-15 -27 24 -18zm-1995 750c-15,-19 -29,-39 -41,-61 -12,-21 -22,-44 -32,-69 -11,-27 -22,-61 -32,-106 -9,-44 -17,-101 -20,-174 -1,-26 -3,-48 -4,-67 -4,-80 -5,-99 -5,-412 0,-341 1,-366 7,-476l0 0 2 -45c1,-22 2,-43 4,-63 2,-20 4,-38 6,-54l15 -104 51 92c53,96 120,187 197,278 78,91 167,182 263,275 43,42 88,83 133,122 45,39 91,77 138,114l24 18 -15 27c-37,66 -80,139 -128,211 -48,73 -102,146 -160,215 -54,63 -111,122 -171,172 -61,51 -125,92 -191,118l-25 10 -16 -21zm1086 -2235c-202,0 -312,0 -386,2 -80,1 -131,3 -208,7 -75,3 -138,11 -193,22 -55,11 -102,25 -147,42 -45,18 -87,39 -127,64 -40,26 -78,57 -116,95l-1 0c-38,38 -69,77 -94,117 -26,40 -47,82 -64,127 -18,44 -32,92 -43,146 -11,56 -19,119 -22,194l-2 46 0 0c-5,107 -7,134 -7,484 0,321 1,342 5,420 1,18 2,38 4,68 3,75 11,138 22,194 11,54 25,102 43,146 17,45 38,87 64,127 25,40 56,78 95,117 38,38 76,69 116,95 40,25 82,46 127,64 45,17 92,31 147,42 55,11 118,19 193,22 77,4 128,6 208,7 74,2 184,2 386,2 234,0 517,-1 731,-2 169,-2 309,-4 375,-7 75,-3 138,-11 193,-22 55,-11 102,-25 146,-42 46,-18 87,-39 128,-64 39,-26 78,-57 116,-95l0 0c39,-38 69,-77 95,-117 26,-40 46,-82 64,-127 17,-44 32,-92 43,-146 11,-56 18,-119 22,-194 1,-30 2,-51 3,-68 4,-78 5,-99 5,-420 0,-349 -1,-377 -6,-484l0 0 -2 -46c-4,-75 -11,-138 -22,-194 -11,-54 -26,-102 -43,-146 -18,-45 -38,-87 -64,-127 -25,-40 -56,-78 -95,-117 -38,-38 -77,-69 -116,-95 -41,-25 -82,-46 -128,-64 -44,-17 -91,-31 -146,-42 -55,-11 -118,-19 -193,-22 -66,-3 -206,-5 -375,-7 -213,-1 -497,-2 -731,-2z"/>
  </g>
  <g>
   <path class="fil0" d="M5000 2500l0 2 0 -2 0 -2 0 2zm-2499 2500l-1 0 -2 0 2 0 1 0zm-2501 -2498l0 -2 0 -2 0 2 0 2zm111 -742l1 -3 1 -4 -2 7zm19 -59l1 -3 2 -3 -3 6zm1565 -1568l3 -2 3 -1 -6 3zm58 -20l4 -1 3 -1 -7 2zm745 -113l2 0 1 0 -1 0 -2 0z"/>
  </g>
 </g>
</svg>
