<?xml version="1.0" encoding="UTF-8"?>
<!DOCTYPE svg PUBLIC "-//W3C//DTD SVG 1.1//EN" "http://www.w3.org/Graphics/SVG/1.1/DTD/svg11.dtd">
<!-- Creator: CorelDRAW X7 -->
<svg xmlns="http://www.w3.org/2000/svg" xml:space="preserve" width="50mm" height="50mm" version="1.1" style="shape-rendering:geometricPrecision; text-rendering:geometricPrecision; image-rendering:optimizeQuality; fill-rule:evenodd; clip-rule:evenodd"
viewBox="0 0 5000 5000"
 xmlns:xlink="http://www.w3.org/1999/xlink">
 <defs>
  <style type="text/css">
   <![CDATA[
    .fil0 {fill:#7F705A}
   ]]>
  </style>
 </defs>
 <g id="Layer_x0020_1">
  <metadata id="CorelCorpID_0Corel-Layer"/>
  <g>
   <path class="fil0" d="M2234 1330c204,0 472,0 726,2 169,1 308,3 372,6 76,4 134,12 180,22 47,10 83,22 111,33 37,14 69,30 99,49 31,20 58,42 86,69l31 30 -13 41 0 1 0 0 -1 2 0 0c-37,138 -104,261 -196,380 -88,115 -198,227 -322,348 -153,149 -314,278 -455,371 -150,99 -282,158 -365,158 -84,0 -216,-59 -365,-158 -141,-93 -302,-222 -455,-371 -124,-121 -234,-233 -323,-348 -91,-119 -158,-241 -196,-379l0 0 0 -1 -11 -39 30 -30c28,-28 56,-52 87,-72 31,-20 64,-36 103,-51 28,-11 64,-23 111,-33 46,-10 104,-18 179,-22 76,-3 125,-5 207,-7l0 0c92,-1 199,-1 380,-1zm0 70c386,0 943,2 1095,9 141,6 218,30 269,49 65,26 112,56 161,103 -1,2 -1,4 -2,5 -68,258 -255,459 -499,697 -302,293 -632,508 -771,508 -139,0 -469,-215 -771,-508 -245,-238 -431,-439 -500,-697l0 0c51,-50 99,-82 166,-108 51,-19 127,-43 268,-49 153,-7 198,-9 584,-9zm-212 1439c185,119 353,191 460,193 2,0 3,0 5,0 1,0 3,0 4,0 108,-2 275,-74 460,-193 78,136 179,295 300,438 91,108 194,206 307,279 -50,15 -120,30 -229,35 -152,7 -709,9 -1095,9 -386,0 -431,-2 -584,-9 -111,-5 -182,-20 -232,-36 112,-73 214,-171 305,-278 120,-143 221,-302 299,-438zm1143 -151c92,-72 185,-152 274,-239 197,-191 363,-370 471,-570 6,35 10,75 12,122 7,152 8,134 8,520 0,386 -1,326 -8,478 -7,141 -30,217 -50,268 -19,49 -40,87 -69,124 -128,-50 -248,-157 -353,-283 -115,-135 -212,-290 -285,-420zm-2107 -687c2,-43 5,-81 10,-113 108,196 273,373 467,561 88,87 181,167 274,239 -74,130 -171,285 -285,420 -104,124 -223,230 -348,281 -29,-36 -50,-74 -68,-122 -20,-51 -44,-127 -50,-268 -7,-152 -9,-92 -9,-478 0,-386 2,-368 9,-520zm1176 -861l0 0c-392,0 -441,1 -596,8 -153,7 -258,32 -350,68 -95,37 -176,86 -256,166 -81,81 -130,161 -167,256 -36,92 -60,197 -67,351 -7,154 -9,140 -9,532 0,393 2,336 9,490 7,154 31,259 67,351 37,95 86,175 167,256 80,80 161,129 256,166 92,36 197,61 350,68 155,7 204,8 596,8 393,0 953,-1 1107,-8 154,-7 259,-32 351,-68 95,-37 176,-86 256,-166 80,-81 130,-161 167,-256 36,-92 60,-197 67,-351 7,-154 9,-97 9,-490 0,-392 -2,-378 -9,-532 -7,-154 -31,-259 -67,-351 -37,-95 -87,-175 -167,-256 -80,-80 -161,-129 -256,-166 -92,-36 -197,-61 -351,-68 -154,-7 -714,-8 -1107,-8zm250 1822l2 0 0 0 1 0 0 0 0 0 3 0 0 0c44,-1 103,-17 172,-46 76,-32 162,-78 252,-136l62 -40 37 64c38,68 83,141 131,212 48,73 102,146 160,215 44,52 91,102 140,147 48,44 99,85 152,119l126 81 -143 45c-28,9 -61,17 -102,24 -40,7 -87,12 -145,15 -64,3 -203,5 -372,6 -254,2 -522,2 -726,2 -181,0 -288,0 -380,-1l0 0c-82,-2 -131,-4 -207,-7 -59,-3 -108,-9 -148,-15 -41,-8 -74,-16 -102,-26l-142 -45 125 -80c52,-34 102,-74 151,-119 48,-45 95,-94 138,-146 59,-69 113,-142 161,-215 48,-71 92,-144 131,-212l37 -64 62 40c91,58 176,104 251,136 70,29 129,45 172,46l1 0zm638 -330c47,-37 93,-75 137,-113 44,-38 88,-78 131,-120 98,-95 187,-186 265,-277 76,-89 141,-180 193,-276l100 -185 32 208c3,16 5,36 7,60 2,21 4,44 5,69l2 46 0 0c6,112 7,138 7,477 0,312 -1,332 -6,414 -1,20 -2,43 -3,67 -3,75 -11,133 -21,179 -10,48 -22,83 -33,112 -11,28 -23,52 -35,75 -13,22 -28,44 -45,66l-33 41 -48 -19c-71,-28 -139,-71 -204,-124 -63,-52 -122,-113 -177,-178 -59,-70 -114,-145 -163,-219 -47,-72 -91,-145 -129,-213l-30 -53 48 -37zm-2002 800c-16,-21 -31,-42 -44,-65 -12,-23 -24,-47 -34,-74 -11,-29 -23,-64 -33,-112 -10,-46 -18,-104 -21,-179 -2,-24 -3,-47 -4,-67 -4,-82 -5,-102 -5,-414 0,-340 1,-365 6,-478l0 0 3 -45c1,-22 2,-43 4,-64 2,-22 4,-40 6,-56l30 -208 102 184c52,94 117,183 193,272 77,90 165,180 261,273 43,42 86,82 131,120 43,38 90,76 137,113l48 37 -30 53c-38,68 -82,141 -130,213 -49,74 -103,149 -162,219 -55,65 -114,125 -175,176 -64,53 -131,96 -201,124l-49 19 -33 -41zm1114 -2222c-207,0 -319,1 -386,2 -78,1 -129,3 -207,7 -73,3 -134,10 -187,21 -53,11 -98,25 -141,41 -43,17 -83,36 -121,61 -37,24 -74,53 -111,90l0 0c-36,36 -65,73 -90,111 -24,38 -44,78 -61,121 -16,42 -30,88 -41,140 -10,54 -18,115 -21,188l-2 46 0 1c-5,105 -6,131 -6,482 0,322 1,342 5,418 0,17 1,36 3,69 3,73 11,134 21,188 11,52 25,98 41,140 17,43 37,83 61,121 24,38 54,74 90,111 37,37 74,66 111,90 38,25 78,44 121,61 43,16 88,30 141,41 53,11 114,18 187,21 78,4 129,6 207,7 68,1 179,2 386,2 243,0 531,-1 730,-2 168,-2 308,-4 374,-7 74,-3 135,-10 188,-21 53,-11 98,-25 141,-41 43,-17 82,-36 121,-61 37,-24 73,-53 110,-90l0 0c37,-36 66,-73 90,-111 25,-38 45,-78 61,-121 17,-42 31,-88 41,-140 11,-54 18,-115 22,-188 1,-33 2,-52 3,-69 4,-76 5,-96 5,-418 0,-351 -1,-377 -6,-482l0 0 -2 -47c-4,-73 -11,-134 -22,-188 -10,-52 -24,-98 -41,-140 -16,-43 -36,-83 -61,-121 -24,-38 -53,-74 -90,-111 -37,-37 -73,-66 -110,-90 -39,-25 -78,-44 -121,-61 -43,-16 -88,-30 -141,-41 -53,-11 -114,-18 -188,-21 -66,-3 -205,-5 -373,-7 -200,-1 -488,-2 -731,-2z"/>
  </g>
  <g>
   <path class="fil0" d="M5000 2500c0,1381 -1119,2500 -2500,2500 -1381,0 -2500,-1119 -2500,-2500 0,-1381 1119,-2500 2500,-2500 1381,0 2500,1119 2500,2500zm-757 1743c446,-446 722,-1062 722,-1743 0,-681 -276,-1297 -722,-1743 -446,-446 -1062,-722 -1743,-722 -681,0 -1297,276 -1743,722 -446,446 -722,1062 -722,1743 0,681 276,1297 722,1743 446,446 1062,722 1743,722 681,0 1297,-276 1743,-722z"/>
  </g>
 </g>
</svg>
