<?xml version="1.0" encoding="UTF-8"?>
<!DOCTYPE svg PUBLIC "-//W3C//DTD SVG 1.1//EN" "http://www.w3.org/Graphics/SVG/1.1/DTD/svg11.dtd">
<!-- Creator: CorelDRAW X7 -->
<svg xmlns="http://www.w3.org/2000/svg" xml:space="preserve" width="50mm" height="50mm" version="1.1" style="shape-rendering:geometricPrecision; text-rendering:geometricPrecision; image-rendering:optimizeQuality; fill-rule:evenodd; clip-rule:evenodd"
viewBox="0 0 5000 5000"
 xmlns:xlink="http://www.w3.org/1999/xlink">
 <defs>
  <style type="text/css">
   <![CDATA[
    .fil0 {fill:#7F705A;fill-rule:nonzero}
   ]]>
  </style>
 </defs>
 <g id="Layer_x0020_1">
  <metadata id="CorelCorpID_0Corel-Layer"/>
  <path class="fil0" d="M1778 4639c-49,0 -89,34 -90,76l-35 0c-56,0 -165,-76 -165,-76 -111,59 -587,79 -597,79l-686 0 0 30 683 0c402,7 620,53 620,53 43,-55 137,-67 182,-69 8,35 45,62 88,62 51,0 91,-35 91,-77 0,-43 -40,-78 -91,-78zm-293 142c0,0 -205,-46 -376,-50 0,0 264,-13 366,-62 0,0 73,46 102,56 0,0 -72,33 -92,56zm289 -10c-28,0 -50,-23 -50,-51 0,-28 22,-51 50,-51 27,0 49,23 49,51 0,28 -22,51 -49,51z"/>
  <path class="fil0" d="M4795 4718l-666 0c-10,0 -486,-20 -597,-79 0,0 -109,76 -165,76l-35 0c-1,-42 -41,-76 -90,-76 -51,0 -91,35 -91,78 0,42 40,77 91,77 44,0 80,-27 89,-62 45,2 138,14 181,69 0,0 218,-46 620,-53l663 0 0 -30zm-1548 53c-28,0 -50,-23 -50,-51 0,-28 22,-51 50,-51 27,0 49,23 49,51 0,28 -22,51 -49,51zm288 10c-20,-23 -92,-56 -92,-56 29,-10 102,-56 102,-56 102,49 366,62 366,62 -171,4 -376,50 -376,50z"/>
  <path class="fil0" d="M2937 4592c-131,-9 -241,38 -348,83l-46 20c-111,47 -264,112 -404,107 -127,-4 -200,-37 -200,-91 0,-48 45,-75 134,-82 90,-7 168,46 169,47 7,4 16,3 20,-4 5,-6 4,-16 -3,-20 -4,-3 -87,-61 -188,-53 -134,11 -162,67 -162,112 0,42 30,115 229,121 147,5 296,-52 409,-101l46 -19c104,-44 218,-99 341,-90 146,10 165,57 165,96 0,12 -5,21 -14,30 -23,23 -78,36 -141,34 -78,-2 -136,-24 -136,-24 -8,-4 -17,-1 -20,6 -4,8 -1,17 7,20 3,2 64,25 148,28 72,2 133,-14 163,-43 15,-14 23,-31 23,-51 0,-76 -61,-117 -192,-126z"/>
  <path class="fil0" d="M1329 2430c42,-10 78,-24 108,-41 30,-17 58,-41 86,-70 60,-69 91,-149 91,-243 0,-56 -11,-108 -32,-156 -22,-48 -53,-89 -91,-122 -40,-33 -86,-57 -138,-71 18,8 36,19 56,32 17,12 32,25 46,39 13,14 24,29 34,44 43,64 64,140 64,228 0,46 -6,91 -18,135 -11,42 -28,80 -50,112 -20,28 -41,50 -65,67 -25,18 -55,33 -91,46zm-348 -19l-22 16c32,-3 61,-5 86,-5 28,0 53,1 75,4l-22 -15c-11,-7 -18,-14 -22,-21 -5,-6 -7,-15 -7,-25 0,-5 -1,-10 -1,-19l0 -9 0 -513 0 -9c0,-9 1,-15 1,-19 0,-11 2,-19 5,-24 4,-6 12,-13 24,-22l29 -22c-34,3 -62,5 -83,5 -24,0 -52,-1 -83,-4l-9 -1 29 22c13,9 20,16 23,21 4,5 6,14 6,25 0,5 0,8 0,10l0 9 0 9 0 513 0 9 0 8c0,2 0,5 0,11 0,11 -2,19 -5,24 -3,5 -11,12 -24,22zm137 -571l-1 425c0,46 4,80 12,102 9,20 22,36 42,46 19,11 42,16 69,16 42,0 81,-9 116,-26 35,-16 66,-41 93,-75 27,-33 47,-71 61,-114 14,-45 21,-93 21,-143 0,-67 -13,-127 -37,-180 -25,-53 -59,-95 -103,-125 -44,-30 -94,-45 -148,-45 -43,0 -74,9 -94,28 -21,20 -31,50 -31,91zm-237 615l1 -17c40,-6 68,-22 87,-45 13,-18 20,-53 20,-105l0 -415c0,-31 -1,-55 -4,-70 -5,-16 -12,-30 -21,-41 -18,-20 -45,-33 -82,-39l0 -17c19,1 26,1 22,1l64 3c21,1 43,2 67,2 43,0 90,-2 140,-7 44,-3 78,-5 103,-5 59,0 112,9 159,27 47,18 88,44 124,78 35,33 62,73 81,120 19,46 28,97 28,153 0,56 -10,107 -29,155 -19,47 -47,87 -84,121 -37,33 -80,59 -130,78 -50,17 -106,26 -169,26 -22,0 -58,-2 -108,-6 -35,-3 -70,-5 -103,-5 -27,0 -53,1 -78,2l-75 6c-5,0 -10,0 -13,0zm1391 -35c134,-78 201,-191 201,-339 0,-48 -8,-94 -22,-136 -15,-42 -36,-81 -63,-116 -28,-34 -60,-61 -97,-81 81,70 121,180 121,328 0,44 -4,86 -12,125 -8,40 -19,75 -33,104 -8,18 -16,31 -22,40 -10,13 -19,25 -30,36 -11,11 -25,24 -43,39zm-302 -1c-32,-24 -59,-53 -80,-86 -22,-33 -39,-71 -49,-113 -11,-44 -16,-91 -16,-143 0,-76 11,-141 35,-194 23,-54 60,-100 110,-138 -43,24 -80,52 -111,86 -32,34 -55,72 -71,114 -16,42 -25,87 -25,136 0,47 9,92 25,135 16,42 39,81 71,116 31,34 68,63 111,87zm-89 -342c0,54 6,104 18,150 12,45 29,84 52,117 23,34 50,58 81,75 32,17 67,26 105,26 63,0 118,-25 164,-75 28,-30 51,-71 67,-121 15,-50 23,-108 23,-172 0,-56 -6,-107 -18,-153 -12,-45 -29,-84 -51,-115 -23,-33 -50,-58 -80,-74 -32,-17 -67,-26 -106,-26 -38,0 -73,9 -105,26 -31,18 -58,42 -80,75 -22,32 -40,71 -52,117 -12,46 -18,96 -18,150zm-139 4c0,-52 11,-103 31,-152 20,-48 49,-90 86,-127 36,-36 78,-64 126,-85 48,-19 98,-29 151,-29 71,0 137,17 197,52 60,36 108,84 143,144 36,61 53,126 53,197 0,53 -10,103 -30,151 -20,48 -48,90 -85,126 -36,37 -78,65 -125,86 -48,20 -98,30 -151,30 -72,0 -139,-17 -199,-52 -61,-35 -109,-83 -144,-144 -35,-60 -53,-125 -53,-197zm1233 371c-45,-12 -87,-31 -126,-55 -37,-23 -69,-51 -94,-85 -26,-33 -45,-71 -57,-113 -14,-41 -20,-87 -20,-136 0,-37 3,-70 10,-99 6,-29 17,-57 32,-84 15,-27 34,-51 56,-74 22,-22 50,-44 83,-67 -39,17 -73,38 -102,61 -28,23 -53,50 -74,80 -19,28 -34,61 -45,96 -10,35 -16,71 -16,110 0,40 6,80 18,118 11,36 28,70 50,102 21,31 47,58 78,79 30,21 62,37 96,48 33,10 70,17 111,19zm283 -738l64 196 -18 0c-19,-36 -38,-66 -56,-89 -21,-25 -41,-46 -62,-61 -21,-16 -44,-27 -69,-34 -24,-8 -52,-11 -81,-11 -43,0 -84,8 -121,24 -38,17 -70,40 -97,70 -28,31 -49,66 -64,107 -15,41 -23,85 -23,132 0,70 14,135 42,195 28,58 67,104 117,138 49,34 103,51 163,51 41,0 80,-9 117,-25 36,-16 68,-39 96,-69 28,-31 53,-69 73,-115l23 0c-31,81 -77,143 -139,184 -62,42 -138,63 -227,63 -104,0 -190,-28 -259,-84 -30,-26 -54,-53 -73,-84 -21,-31 -36,-65 -47,-102 -10,-38 -16,-76 -16,-114 0,-73 19,-139 56,-200 37,-61 88,-108 152,-143 64,-34 135,-51 214,-51 32,0 75,4 130,14 36,7 64,10 81,10 9,0 17,0 24,-2zm247 697l-22 16 160 0 -21 -16c-12,-9 -20,-16 -24,-22 -3,-5 -5,-13 -5,-24l0 -13c-1,-1 -1,-3 -1,-6l0 -9 0 -513 0 -9c0,-3 0,-6 1,-7l0 -12c0,-11 2,-19 6,-25 3,-6 11,-13 23,-21l31 -23 -180 0 32 23c12,9 20,16 24,22 3,5 5,13 5,24 0,4 0,10 0,19l0 9 0 513 0 9c0,9 0,14 0,19 0,11 -2,19 -5,24 -3,5 -11,12 -24,22zm408 16l103 0 30 -102c-12,14 -25,27 -39,40 -13,12 -28,23 -44,34 -19,12 -36,21 -50,28zm-49 -347l0 -71c-12,11 -20,17 -24,20 -5,3 -17,8 -36,16 21,6 41,18 60,35zm138 -281l-12 -73 -79 0c19,8 36,17 49,28 12,9 26,24 42,45zm-596 -93l625 0 21 204 -18 0c-19,-63 -47,-109 -84,-139 -38,-30 -87,-45 -147,-45l-31 0c-47,0 -81,9 -101,28 -20,18 -30,49 -30,92l0 187 73 0c55,0 95,-9 120,-26 26,-17 43,-49 53,-94l16 0 0 278 -16 0c-7,-37 -17,-65 -30,-84 -12,-19 -29,-33 -51,-41 -22,-8 -53,-12 -91,-12l-74 0 0 238c0,37 3,64 10,83 7,19 18,33 36,41 17,7 41,11 71,11l51 0c50,0 97,-15 141,-46 50,-34 98,-82 146,-144l4 -6 19 0 -65 224 -648 0 0 -17c39,-6 68,-22 86,-45 14,-18 21,-53 21,-105l0 -415c0,-34 -1,-58 -5,-72 -4,-16 -11,-29 -20,-39 -18,-20 -45,-33 -82,-39l0 -17z"/>
  <path class="fil0" d="M335 3762l111 0c-12,-15 -21,-28 -26,-41 -5,-12 -8,-25 -8,-38 0,-7 0,-12 1,-15 -12,23 -23,40 -34,53 -11,13 -26,27 -44,41zm334 -666l-31 72 212 476 5 12c11,24 17,42 17,54 0,16 -9,33 -27,52l145 0c-17,-16 -31,-33 -43,-53 -13,-22 -27,-49 -42,-83l-236 -530zm-172 394l262 0 -132 -298 -130 298zm333 162l-61 -139 -282 0 -31 70c-15,34 -22,62 -22,85 0,19 4,35 13,49 8,14 21,25 39,34 17,9 39,16 67,22l0 17 -285 0 0 -17c34,-11 63,-31 89,-61 24,-28 50,-74 77,-137l243 -549 15 0 264 594c1,1 2,2 2,2 1,3 1,5 2,6 0,1 1,3 3,6l24 50c13,27 28,47 45,60 17,14 38,23 63,29l0 17 -350 0 0 -17c30,-2 51,-6 63,-11 27,-9 40,-27 40,-51 0,-12 -6,-32 -18,-59zm361 110l125 0c-18,-20 -30,-36 -35,-47 -7,-12 -12,-28 -15,-47 -9,22 -18,39 -29,53 -11,13 -26,26 -46,41zm162 -592l277 555 30 -72 -253 -502c-12,-26 -18,-45 -18,-57 0,-11 3,-22 9,-32l-127 0c21,14 36,30 46,46 14,22 26,42 36,62zm588 571l-30 21 169 0 -29 -23c-12,-10 -21,-31 -24,-64l-61 -524c-1,-13 -1,-20 -1,-20 0,-9 2,-16 6,-22 3,-6 11,-14 22,-23l31 -24 -127 0 69 605 2 12c1,12 1,18 1,20 0,9 -1,16 -4,21 -5,6 -13,13 -24,21zm-53 -579l-250 594 -13 0 -300 -596 -32 371c-2,23 -3,43 -3,59 0,53 11,94 33,123 21,29 56,49 105,60l0 17 -300 0 0 -17c27,-9 51,-24 71,-43 21,-20 37,-43 48,-67 11,-29 20,-74 25,-135l35 -396c-14,-26 -30,-44 -48,-56 -18,-11 -41,-17 -68,-18l0 -17 266 0c-1,2 -2,3 -2,4 0,1 -1,2 -1,3 -7,16 -10,29 -10,39 0,18 9,45 28,83l212 421 176 -410c14,-33 21,-58 21,-75 0,-18 -8,-40 -23,-65l265 0 0 17c-37,4 -63,15 -80,32 -16,16 -25,40 -25,72 0,9 1,19 2,27l2 14 46 407c0,3 0,6 1,8 1,3 1,5 1,7 1,1 1,5 2,11 1,6 2,13 3,23 5,36 16,62 33,79 16,17 40,29 75,35l0 17 -349 0 0 -17c39,-10 67,-22 85,-38 18,-15 27,-35 27,-59 0,-10 -2,-25 -4,-45l-54 -469zm395 600l112 0c-13,-15 -21,-28 -27,-41 -5,-12 -7,-25 -7,-38 0,-7 0,-12 0,-15 -11,23 -23,40 -33,53 -11,13 -26,27 -45,41zm335 -666l-31 72 211 476 6 12c11,24 17,42 17,54 0,16 -9,33 -27,52l145 0c-17,-16 -31,-33 -43,-53 -13,-22 -27,-49 -42,-83l-236 -530zm-173 394l263 0 -132 -298 -131 298zm334 162l-61 -139 -282 0 -31 70c-15,34 -22,62 -22,85 0,19 4,35 13,49 8,14 21,25 38,34 17,9 40,16 67,22l0 17 -284 0 0 -17c33,-11 63,-31 88,-61 25,-28 51,-74 78,-137l243 -549 14 0 264 594c2,1 2,2 2,2 2,3 2,5 3,6 0,1 1,3 2,6l25 50c13,27 28,47 45,60 16,14 37,23 63,29l0 17 -350 0 0 -17c30,-2 51,-6 63,-11 26,-9 40,-27 40,-51 0,-12 -6,-32 -18,-59zm753 113c42,-10 79,-24 108,-41 30,-18 59,-41 86,-71 60,-68 91,-148 91,-242 0,-56 -11,-109 -32,-156 -22,-48 -53,-89 -91,-122 -40,-33 -86,-57 -138,-71 18,8 37,19 56,31 17,13 32,26 46,40 13,14 24,28 35,44 42,64 63,140 63,228 0,46 -6,91 -18,135 -11,42 -28,79 -50,112 -19,27 -41,50 -65,67 -25,18 -55,33 -91,46zm-348 -19l-22 16c32,-3 61,-5 87,-5 27,0 52,1 74,4l-22 -15c-11,-7 -18,-14 -22,-21 -5,-6 -7,-15 -7,-26 0,-4 0,-10 0,-18l0 -9 0 -513 0 -10c0,-8 0,-14 0,-18 0,-11 2,-19 6,-24 3,-6 11,-13 23,-22l29 -22c-34,3 -62,5 -83,5 -24,0 -52,-2 -82,-4l-10 -1 29 22c13,9 20,16 23,21 4,5 6,14 6,25 0,5 0,8 0,10l0 8 0 10 0 513 0 9 0 8c0,2 0,5 0,10 0,12 -2,20 -5,25 -3,5 -11,12 -24,22zm137 -571l-1 424c0,47 4,81 12,103 9,20 23,36 42,46 19,11 42,16 69,16 42,0 81,-9 116,-26 35,-17 66,-42 93,-75 27,-33 47,-71 61,-115 14,-44 21,-92 21,-142 0,-68 -13,-128 -37,-180 -24,-53 -59,-95 -103,-126 -44,-29 -94,-44 -148,-44 -43,0 -74,9 -94,28 -21,19 -31,50 -31,91zm-237 615l2 -17c39,-7 67,-22 86,-46 14,-18 20,-52 20,-105l0 -414c0,-31 -1,-55 -4,-71 -4,-15 -11,-29 -21,-40 -18,-20 -45,-33 -81,-39l0 -17c18,0 25,1 21,1l64 3c21,1 43,2 67,2 43,0 90,-3 140,-7 44,-4 78,-5 103,-5 59,0 112,9 159,27 47,17 88,44 124,77 35,34 62,74 81,121 19,46 28,97 28,153 0,55 -10,107 -29,155 -19,47 -47,87 -84,121 -37,33 -80,59 -130,77 -50,18 -106,27 -168,27 -23,0 -59,-2 -109,-6 -35,-4 -69,-5 -103,-5 -27,0 -52,0 -78,2l-75 5c-5,0 -10,1 -13,1zm1391 -36c134,-77 201,-190 201,-338 0,-48 -8,-94 -22,-137 -15,-42 -36,-80 -63,-115 -28,-34 -60,-61 -97,-81 81,70 121,180 121,328 0,44 -4,85 -12,125 -8,40 -19,74 -33,104 -8,18 -16,31 -22,40 -9,13 -19,25 -30,35 -11,12 -25,25 -43,39zm-302 0c-32,-24 -59,-53 -80,-86 -22,-33 -38,-71 -49,-114 -11,-43 -16,-90 -16,-142 0,-76 12,-141 35,-195 23,-53 60,-99 110,-137 -43,24 -80,52 -111,86 -31,34 -55,72 -71,114 -16,42 -25,87 -25,136 0,47 9,92 25,135 16,42 40,81 71,116 31,34 68,63 111,87zm-89 -342c0,54 6,104 18,150 12,45 29,84 52,117 23,33 50,58 81,75 32,17 67,25 105,25 63,0 118,-24 164,-74 29,-30 51,-71 67,-122 15,-50 23,-107 23,-171 0,-56 -6,-107 -18,-153 -12,-45 -29,-84 -51,-116 -23,-32 -49,-57 -80,-73 -31,-17 -67,-26 -106,-26 -38,0 -73,9 -105,26 -31,17 -58,42 -80,75 -22,31 -39,71 -52,117 -12,46 -18,96 -18,150zm-138 4c0,-52 10,-103 30,-152 20,-48 49,-90 86,-127 36,-36 78,-64 126,-85 48,-20 99,-29 151,-29 71,0 137,17 197,52 60,36 108,84 143,144 36,60 53,126 53,197 0,52 -10,103 -30,151 -20,48 -48,90 -85,126 -36,37 -78,65 -125,85 -48,21 -98,31 -151,31 -72,0 -139,-17 -199,-53 -61,-35 -109,-82 -144,-143 -35,-60 -52,-125 -52,-197z"/>
  <path class="fil0" d="M1757 811c-49,0 -87,33 -89,74l-33 0c-55,0 -161,-74 -161,-74 -108,57 -571,77 -581,77l-668 0 0 29 665 0 0 0c391,7 604,52 604,52 42,-54 132,-65 176,-68 8,35 44,61 87,61 48,0 88,-34 88,-75 0,-42 -40,-76 -88,-76zm-286 138c0,0 -199,-45 -366,-48 0,0 257,-13 356,-61 0,0 71,45 100,54 0,0 -71,33 -90,55zm281 -9c-27,0 -48,-23 -48,-50 0,-28 21,-50 48,-50 26,0 48,22 48,50 0,27 -22,50 -48,50z"/>
  <path class="fil0" d="M4692 888l-648 0c-10,0 -473,-20 -581,-77 0,0 -106,74 -161,74l-33 0c-2,-41 -41,-74 -89,-74 -49,0 -88,34 -88,76 0,41 39,75 88,75 43,0 79,-26 87,-61 44,3 134,14 177,68 0,0 211,-46 603,-52l0 0 645 0 0 -29zm-1507 52c-26,0 -48,-23 -48,-50 0,-28 22,-50 48,-50 27,0 48,22 48,50 0,27 -21,50 -48,50zm281 9c-19,-22 -90,-55 -90,-55 29,-9 100,-54 100,-54 99,48 356,61 356,61 -167,3 -366,48 -366,48z"/>
  <path class="fil0" d="M3059 169c-73,-34 -140,-41 -200,-21 -102,33 -145,130 -150,142 -32,50 -78,208 -80,215 -65,220 -116,292 -133,312 -1,-1 -2,-1 -2,-1l-5 0 -336 353 1 5c7,51 57,61 59,61l6 1 348 -362 -1 -2c24,-23 97,-77 295,-153 6,-2 160,-61 206,-96 12,-6 105,-58 130,-161 4,-17 6,-34 6,-52 0,-48 -15,-99 -46,-153 1,-1 3,-4 3,-8 0,-16 -26,-42 -37,-52 -32,-30 -53,-40 -64,-28zm115 287c-23,97 -117,146 -118,146l-2 1c-43,34 -200,94 -202,94 -113,44 -186,80 -234,109 47,-36 120,-85 227,-146 8,-3 186,-93 248,-179 2,-1 33,-43 51,-97 9,-25 14,-49 14,-71 21,50 27,98 16,143zm-51 -200c42,89 -47,210 -49,211 -59,81 -237,171 -240,173 -91,51 -158,94 -205,128 60,-56 144,-129 234,-187 6,-3 134,-83 187,-186 3,-4 48,-82 64,-146 3,3 6,5 9,7zm-93 128c-50,97 -178,177 -179,177 -81,52 -156,115 -215,169 49,-63 106,-144 151,-229 1,-1 70,-135 163,-193 1,0 83,-57 143,-74 -12,61 -62,148 -63,150zm37 -180c3,3 5,7 9,11 -62,21 -135,71 -139,74 -98,61 -168,196 -171,201 -50,95 -116,185 -168,249 31,-50 69,-120 113,-215 1,-2 76,-188 152,-253 1,-1 112,-99 204,-67zm-127 -10c-52,23 -91,58 -92,59 -80,69 -156,254 -159,261 -51,112 -95,189 -126,239 24,-50 54,-126 88,-242 1,-2 48,-163 78,-209l1 -2c0,-1 40,-98 136,-130 43,-14 92,-12 144,5 -22,2 -45,8 -70,19z"/>
  <path class="fil0" d="M1930 169c-11,-12 -32,-2 -64,28 -11,10 -37,36 -37,52 0,4 2,7 3,8 -31,54 -46,105 -46,153 0,18 2,35 6,52 25,103 118,155 130,161 46,35 200,94 206,96 198,76 270,130 295,153l-1 2 348 362 6 -1c2,0 52,-10 59,-61l1 -5 -336 -353 -5 0c0,0 -1,0 -2,1 -17,-20 -68,-92 -133,-312 -2,-7 -48,-165 -79,-215 -6,-12 -49,-109 -151,-142 -60,-20 -127,-13 -200,21zm-99 144c0,22 5,46 14,71 18,54 49,96 51,97 62,86 240,176 248,179 107,61 180,110 227,146 -48,-29 -121,-65 -234,-109 -2,0 -159,-60 -202,-94l-2 -1c-1,0 -95,-49 -118,-146 -11,-45 -6,-93 16,-143zm44 -64c16,64 61,142 64,146 53,103 181,183 187,186 90,58 174,131 234,187 -47,-34 -114,-77 -205,-128 -3,-2 -181,-92 -241,-173 -1,-1 -90,-122 -49,-211 4,-2 7,-4 10,-7zm21 -15c60,17 142,74 143,74 93,58 162,192 163,193 45,85 102,166 151,229 -58,-54 -134,-117 -215,-169 -1,0 -128,-80 -179,-177 -1,-2 -51,-89 -63,-150zm230 37c76,65 152,251 152,253 44,95 82,165 113,215 -52,-64 -118,-154 -168,-249 -3,-5 -73,-140 -171,-201 -4,-3 -77,-53 -139,-74 3,-4 6,-8 9,-11 92,-32 203,66 204,67zm-147 -96c52,-17 101,-19 144,-5 96,32 136,129 136,130l1 2c30,46 77,207 78,209 34,116 64,192 88,242 -31,-50 -75,-127 -126,-239 -3,-7 -78,-192 -158,-261 -2,-1 -41,-36 -93,-59 -25,-11 -48,-17 -70,-19z"/>
 </g>
</svg>
