<?xml version="1.0" encoding="UTF-8"?>
<!DOCTYPE svg PUBLIC "-//W3C//DTD SVG 1.1//EN" "http://www.w3.org/Graphics/SVG/1.1/DTD/svg11.dtd">
<!-- Creator: CorelDRAW X7 -->
<svg xmlns="http://www.w3.org/2000/svg" xml:space="preserve" width="50mm" height="46.55mm" version="1.1" style="shape-rendering:geometricPrecision; text-rendering:geometricPrecision; image-rendering:optimizeQuality; fill-rule:evenodd; clip-rule:evenodd"
viewBox="0 0 5000 4655"
 xmlns:xlink="http://www.w3.org/1999/xlink"
 enable-background="new 0 0 700 700">
 <defs>
  <style type="text/css">
   <![CDATA[
    .fil1 {fill:#7F705A}
    .fil0 {fill:#7F705A;fill-rule:nonzero}
   ]]>
  </style>
 </defs>
 <g id="Layer_x0020_1">
  <metadata id="CorelCorpID_0Corel-Layer"/>
  <g id="_2358005674704">
   <path class="fil0" d="M2288 3092c-14,0 -25,9 -25,21l-10 0c-16,0 -46,-21 -46,-21 -31,16 -165,22 -168,22l-192 0 0 8 192 0c112,2 173,15 173,15 12,-15 39,-18 51,-19 2,10 13,17 25,17 14,0 25,-9 25,-21 0,-12 -11,-22 -25,-22zm-82 40c0,0 -58,-13 -106,-14 0,0 74,-4 103,-18 0,0 20,13 29,16 0,0 -21,9 -26,16zm81 -3c-8,0 -14,-7 -14,-14 0,-8 6,-15 14,-15 7,0 14,7 14,15 0,7 -7,14 -14,14z"/>
   <path class="fil0" d="M3133 3114l-186 0c-3,0 -137,-6 -168,-22 0,0 -30,21 -46,21l-10 0c0,-12 -11,-21 -25,-21 -14,0 -25,10 -25,22 0,12 11,21 25,21 12,0 23,-7 25,-17 13,1 39,4 51,19 0,0 61,-13 173,-15l186 0 0 -8zm-433 15c-8,0 -14,-7 -14,-14 0,-8 6,-15 14,-15 7,0 13,7 13,15 0,7 -6,14 -13,14zm80 3c-5,-7 -26,-16 -26,-16 9,-3 29,-16 29,-16 29,14 103,18 103,18 -48,1 -106,14 -106,14z"/>
   <path class="fil0" d="M2613 3079c-37,-3 -68,10 -98,23l-13 6c-31,13 -74,31 -113,30 -36,-2 -56,-11 -56,-26 0,-13 13,-21 38,-23 25,-2 47,13 47,13 2,1 4,1 6,-1 1,-2 1,-4 -1,-5 -1,-1 -25,-18 -53,-15 -38,3 -45,18 -45,31 0,12 8,32 64,34 41,1 83,-15 114,-28l13 -6c29,-12 61,-27 96,-25 41,3 46,16 46,27 0,3 -1,6 -4,8 -6,7 -22,11 -39,10 -22,-1 -38,-7 -38,-7 -3,-1 -5,0 -6,2 -1,2 0,5 2,6 1,0 18,7 41,7 21,1 38,-4 46,-12 4,-4 6,-8 6,-14 0,-21 -17,-33 -53,-35z"/>
   <path class="fil0" d="M2162 2473c12,-3 22,-7 30,-12 9,-4 17,-11 24,-19 17,-19 26,-42 26,-68 0,-16 -3,-30 -9,-44 -6,-13 -15,-25 -26,-34 -11,-9 -24,-16 -38,-20 5,2 10,5 16,9 4,3 8,7 12,11 4,4 7,8 10,12 12,18 18,39 18,64 0,13 -2,26 -5,38 -3,12 -8,22 -14,31 -6,8 -12,14 -18,19 -7,5 -16,9 -26,13zm-97 -5l-7 4c9,-1 18,-1 25,-1 7,0 14,0 21,1l-7 -4c-3,-2 -5,-4 -6,-6 -1,-2 -2,-4 -2,-7 0,-2 0,-3 0,-6l0 -2 0 -144 0 -2c0,-3 0,-5 0,-6 0,-3 1,-5 2,-6 1,-2 3,-4 6,-7l8 -6c-9,1 -17,2 -23,2 -6,0 -14,-1 -23,-1l-3 -1 9 6c3,3 5,5 6,6 1,2 2,4 2,7 0,2 0,3 0,3l0 3 0 2 0 144 0 2 0 3c0,0 0,1 0,3 0,3 -1,5 -2,6 -1,2 -3,4 -6,7zm38 -160l0 119c0,13 1,22 3,28 3,6 6,10 12,13 5,3 12,5 19,5 12,0 23,-3 33,-8 9,-4 18,-11 26,-21 7,-9 13,-20 17,-32 4,-12 6,-26 6,-40 0,-18 -4,-35 -11,-50 -7,-15 -16,-27 -29,-35 -12,-8 -26,-13 -41,-13 -12,0 -21,3 -26,8 -6,6 -9,14 -9,26zm-66 172l0 -5c11,-1 19,-6 24,-12 4,-5 6,-15 6,-30l0 -116c0,-9 0,-16 -1,-20 -2,-4 -4,-8 -6,-11 -5,-6 -13,-9 -23,-11l0 -5c5,0 7,0 6,0l18 1c6,1 12,1 19,1 12,0 25,-1 39,-2 12,-1 22,-2 29,-2 16,0 31,3 44,8 14,5 25,12 35,22 10,9 17,20 23,33 5,13 8,28 8,43 0,16 -3,30 -8,44 -6,13 -14,24 -24,34 -10,9 -22,16 -36,22 -14,4 -30,7 -48,7 -6,0 -16,-1 -30,-2 -10,-1 -20,-1 -29,-1 -7,0 -15,0 -22,0l-21 2c-1,0 -3,0 -3,0zm389 -10c38,-22 57,-53 57,-95 0,-13 -3,-26 -7,-38 -4,-12 -10,-23 -17,-32 -8,-10 -17,-18 -27,-23 22,19 34,50 34,92 0,12 -2,24 -4,35 -2,11 -5,21 -9,29 -2,5 -5,9 -6,11 -3,4 -6,7 -9,10 -3,3 -7,7 -12,11zm-84 0c-9,-7 -17,-15 -23,-24 -6,-9 -11,-20 -13,-32 -4,-12 -5,-25 -5,-40 0,-21 3,-39 10,-54 6,-15 17,-28 31,-39 -12,7 -23,15 -31,24 -9,10 -16,20 -20,32 -5,12 -7,24 -7,38 0,13 2,26 7,38 4,12 11,23 20,33 8,9 19,17 31,24zm-25 -96c0,15 1,29 5,42 3,13 8,24 14,33 7,9 14,16 23,21 9,5 19,7 29,7 18,0 34,-7 46,-21 8,-8 15,-20 19,-34 4,-14 7,-30 7,-48 0,-16 -2,-30 -5,-43 -4,-12 -9,-23 -15,-32 -6,-9 -14,-16 -22,-21 -9,-5 -19,-7 -30,-7 -10,0 -20,2 -29,7 -9,5 -16,12 -23,21 -6,9 -11,20 -14,33 -4,13 -5,27 -5,42zm-39 1c0,-14 3,-29 8,-42 6,-14 14,-26 25,-36 10,-10 21,-18 35,-24 13,-5 27,-8 42,-8 20,0 39,5 55,15 17,10 31,23 40,40 11,17 15,35 15,55 0,15 -2,29 -8,42 -6,14 -14,26 -24,36 -10,10 -22,18 -35,24 -13,5 -27,8 -42,8 -20,0 -39,-4 -56,-14 -17,-10 -31,-24 -40,-41 -10,-16 -15,-35 -15,-55zm345 104c-12,-3 -24,-9 -35,-15 -10,-7 -19,-15 -26,-24 -8,-9 -13,-20 -16,-32 -4,-11 -6,-24 -6,-38 0,-10 1,-19 3,-28 2,-8 5,-16 9,-23 4,-8 9,-14 16,-21 6,-6 14,-12 23,-19 -11,5 -21,11 -29,17 -8,7 -15,14 -21,23 -5,8 -9,17 -12,27 -3,10 -5,20 -5,31 0,11 2,22 5,33 4,10 8,19 14,28 6,9 14,16 22,22 9,6 18,11 27,14 9,3 20,5 31,5zm80 -207l18 55 -6 0c-5,-10 -10,-18 -15,-25 -6,-7 -12,-13 -18,-17 -5,-4 -12,-7 -19,-9 -7,-3 -14,-3 -23,-3 -12,0 -23,2 -34,6 -10,5 -19,12 -27,20 -8,9 -13,18 -18,30 -4,11 -6,24 -6,37 0,20 4,38 12,55 8,16 18,29 32,38 14,10 29,15 46,15 12,0 23,-3 33,-7 10,-5 19,-11 27,-20 8,-8 15,-19 20,-32l7 0c-9,23 -22,40 -39,52 -18,11 -39,17 -64,17 -29,0 -53,-8 -72,-23 -9,-8 -16,-15 -21,-24 -6,-9 -10,-18 -13,-28 -3,-11 -4,-22 -4,-32 0,-21 5,-39 15,-56 11,-18 25,-31 43,-41 18,-9 38,-14 60,-14 9,0 21,1 36,4 10,2 18,3 23,3 2,0 5,0 7,-1zm69 196l-6 4 44 0 -5 -4c-4,-3 -6,-5 -7,-7 -1,-1 -2,-3 -2,-6l0 -4c0,0 0,-1 0,-2l0 -2 0 -144 0 -2c0,-1 0,-2 0,-2l0 -4c0,-3 1,-5 2,-7 1,-1 3,-3 7,-6l8 -6 -50 0 9 6c3,3 5,5 7,7 0,1 1,3 1,6 0,1 0,3 0,6l0 2 0 144 0 2c0,3 0,4 0,6 0,3 -1,5 -1,6 -1,2 -4,4 -7,7zm114 4l29 0 8 -28c-3,3 -7,7 -11,11 -3,3 -7,6 -12,9 -5,4 -10,6 -14,8zm-14 -97l0 -20c-3,3 -5,5 -6,6 -2,0 -5,2 -10,4 5,2 11,5 16,10zm39 -79l-3 -20 -22 0c5,2 10,4 13,8 4,2 8,6 12,12zm-167 -26l175 0 6 57 -5 0c-5,-17 -13,-30 -24,-39 -10,-8 -24,-12 -41,-12l-8 0c-14,0 -23,2 -29,8 -5,5 -8,13 -8,25l0 53 20 0c16,0 27,-3 34,-8 7,-4 12,-13 15,-26l4 0 0 78 -4 0c-2,-10 -5,-18 -9,-24 -3,-5 -8,-9 -14,-11 -6,-2 -15,-3 -25,-3l-21 0 0 66c0,11 1,18 3,24 2,5 5,9 10,11 5,2 11,3 20,3l14 0c14,0 27,-4 39,-13 15,-9 28,-23 41,-40l2 -2 5 0 -18 63 -182 0 0 -5c11,-1 19,-6 24,-12 4,-5 6,-15 6,-30l0 -116c0,-10 0,-16 -1,-20 -1,-5 -3,-8 -6,-11 -5,-6 -13,-9 -23,-11l0 -5z"/>
   <path class="fil0" d="M1884 2846l31 0c-4,-4 -6,-8 -8,-11 -1,-4 -2,-7 -2,-11 0,-2 0,-3 0,-4 -3,6 -6,11 -9,15 -3,3 -7,7 -12,11zm93 -186l-9 20 60 133 1 3c3,7 5,12 5,16 0,4 -2,9 -8,14l41 0c-5,-4 -9,-9 -12,-15 -4,-6 -8,-13 -12,-23l-66 -148zm-48 110l73 0 -37 -84 -36 84zm93 45l-17 -39 -79 0 -9 20c-4,10 -6,17 -6,24 0,5 1,10 4,14 2,4 6,7 11,9 5,3 11,5 19,6l0 5 -80 0 0 -5c9,-3 17,-8 25,-17 6,-8 14,-21 21,-38l68 -154 5 0 74 166c0,1 0,1 0,1 0,1 0,1 1,2 0,0 0,0 1,1l6 14c4,8 8,14 13,17 5,4 11,7 18,8l0 5 -99 0 0 -5c9,0 15,-1 18,-3 8,-2 11,-7 11,-14 0,-3 -1,-9 -5,-17zm101 31l35 0c-5,-5 -8,-10 -9,-13 -2,-3 -4,-8 -5,-13 -2,6 -5,11 -8,15 -3,3 -7,7 -13,11zm46 -166l77 156 9 -20 -71 -141c-3,-7 -5,-13 -5,-16 0,-3 1,-6 2,-9l-35 0c6,4 10,8 13,13 4,6 7,12 10,17zm165 160l-9 6 48 0 -9 -6c-3,-3 -5,-9 -6,-18l-17 -147c-1,-4 -1,-6 -1,-6 0,-2 1,-4 2,-6 1,-1 3,-4 6,-6l9 -7 -36 0 20 170 0 3c0,3 0,5 0,6 0,2 0,4 -1,5 -1,2 -3,4 -6,6zm-15 -162l-70 167 -4 0 -84 -167 -9 103c-1,7 -1,13 -1,17 0,15 3,26 9,34 6,9 16,14 30,17l0 5 -84 0 0 -5c7,-2 14,-6 20,-12 6,-5 10,-12 13,-19 3,-8 6,-20 7,-37l10 -111c-4,-8 -8,-13 -14,-16 -5,-3 -11,-5 -19,-5l0 -5 75 0c0,1 -1,1 -1,1 0,1 0,1 0,1 -2,5 -3,8 -3,11 0,5 3,13 8,23l60 118 49 -115c4,-9 6,-16 6,-21 0,-5 -2,-11 -7,-18l75 0 0 5c-11,1 -18,4 -23,9 -4,4 -7,11 -7,20 0,3 0,5 1,8l0 4 13 114c0,0 0,1 0,2 1,1 1,1 1,2 0,0 0,1 0,3 1,2 1,4 1,6 2,10 5,18 9,22 5,5 12,9 21,10l0 5 -97 0 0 -5c11,-3 18,-6 23,-10 5,-5 8,-10 8,-17 0,-3 -1,-7 -1,-13l-15 -131zm110 168l32 0c-4,-4 -6,-8 -8,-11 -1,-4 -2,-7 -2,-11 0,-2 0,-3 0,-4 -3,6 -6,11 -9,15 -3,3 -7,7 -13,11zm94 -186l-8 20 59 133 1 3c3,7 5,12 5,16 0,4 -2,9 -7,14l40 0c-5,-4 -8,-9 -12,-15 -3,-6 -7,-13 -12,-23l-66 -148zm-48 110l73 0 -36 -84 -37 84zm93 45l-17 -39 -79 0 -8 20c-5,10 -7,17 -7,24 0,5 2,10 4,14 2,4 6,7 11,9 4,3 11,5 18,6l0 5 -79 0 0 -5c9,-3 18,-8 25,-17 7,-8 14,-21 21,-38l69 -154 3 0 74 166c1,1 1,1 1,1 1,1 1,1 1,2 0,0 0,0 0,1l7 14c4,8 8,14 13,17 4,4 10,7 18,8l0 5 -98 0 0 -5c8,0 14,-1 17,-3 8,-2 11,-7 11,-14 0,-3 -1,-9 -5,-17zm211 32c12,-3 23,-7 31,-11 8,-5 16,-12 24,-20 17,-19 25,-42 25,-68 0,-16 -3,-31 -9,-44 -6,-13 -15,-25 -25,-34 -11,-9 -24,-16 -39,-20 5,2 10,5 16,9 5,3 9,7 13,11 3,4 6,8 9,12 12,18 18,40 18,64 0,13 -2,26 -5,38 -3,12 -8,22 -14,31 -5,8 -11,14 -18,19 -7,5 -16,9 -26,13zm-97 -5l-6 4c9,-1 17,-1 24,-1 8,0 15,0 21,1l-6 -4c-3,-2 -5,-4 -7,-6 -1,-2 -1,-4 -1,-7 0,-2 0,-3 0,-6l0 -2 0 -144 0 -3c0,-2 0,-3 0,-5 0,-3 0,-5 1,-6 1,-2 3,-4 7,-7l8 -6c-10,1 -18,2 -23,2 -7,0 -15,-1 -23,-1l-3 -1 8 6c4,3 5,5 6,6 1,2 2,4 2,7 0,2 0,3 0,3l0 2 0 3 0 144 0 2 0 3c0,0 0,1 0,3 0,3 -1,5 -1,7 -1,1 -3,3 -7,6zm38 -160l0 119c0,13 1,22 3,28 3,6 7,10 12,13 5,3 12,5 19,5 12,0 23,-3 33,-8 10,-4 18,-11 26,-21 8,-9 13,-19 17,-32 4,-12 6,-26 6,-40 0,-19 -4,-35 -10,-50 -7,-15 -17,-27 -29,-35 -13,-8 -27,-13 -42,-13 -12,0 -20,3 -26,8 -6,6 -9,14 -9,26zm-66 172l0 -5c11,-2 19,-6 24,-13 4,-5 6,-14 6,-29l0 -116c0,-9 0,-15 -1,-20 -1,-4 -3,-8 -6,-11 -5,-6 -13,-9 -23,-11l0 -5c5,0 7,0 6,0l18 1c6,1 12,1 19,1 12,0 25,-1 39,-2 13,-1 22,-2 29,-2 17,0 31,3 45,8 13,5 24,12 34,22 10,9 18,20 23,34 5,12 8,27 8,42 0,16 -3,30 -8,44 -6,13 -13,24 -24,34 -10,9 -22,16 -36,21 -14,5 -30,8 -47,8 -7,0 -17,-1 -31,-2 -10,-1 -19,-1 -29,-1 -7,0 -14,0 -22,0l-21 2c-1,0 -2,0 -3,0zm390 -10c37,-22 56,-53 56,-95 0,-13 -2,-26 -6,-38 -4,-12 -10,-23 -18,-32 -8,-10 -17,-17 -27,-23 23,20 34,50 34,92 0,12 -1,24 -4,35 -2,11 -5,21 -9,29 -2,5 -4,9 -6,11 -2,4 -5,7 -8,10 -3,3 -7,7 -12,11zm-85 0c-9,-7 -17,-15 -22,-24 -7,-9 -11,-20 -14,-32 -3,-12 -5,-25 -5,-40 0,-21 4,-39 10,-55 7,-14 17,-27 31,-38 -12,7 -22,15 -31,24 -9,10 -16,20 -20,32 -5,12 -7,25 -7,38 0,13 2,26 7,38 4,12 11,23 20,33 9,9 19,17 31,24zm-25 -96c0,15 2,29 5,42 3,13 8,24 15,33 6,9 14,16 22,21 9,5 19,7 30,7 17,0 33,-7 46,-21 8,-8 14,-20 18,-34 5,-14 7,-30 7,-48 0,-16 -2,-30 -5,-43 -3,-12 -8,-23 -14,-32 -7,-9 -14,-16 -23,-21 -8,-4 -19,-7 -30,-7 -10,0 -20,3 -29,7 -9,5 -16,12 -22,21 -7,9 -11,20 -15,33 -3,13 -5,27 -5,42zm-39 1c0,-14 3,-29 9,-42 5,-14 14,-26 24,-36 10,-10 22,-18 35,-24 14,-5 28,-8 42,-8 20,0 39,5 56,15 17,10 30,23 40,40 10,17 15,35 15,55 0,15 -3,29 -9,43 -5,13 -13,25 -24,35 -10,10 -21,18 -35,24 -13,6 -27,8 -42,8 -20,0 -39,-4 -56,-14 -17,-10 -30,-23 -40,-41 -10,-16 -15,-35 -15,-55z"/>
   <path class="fil0" d="M2282 2019c-14,0 -24,10 -25,21l-9 0c-16,0 -45,-21 -45,-21 -31,16 -160,22 -163,22l-187 0 0 8 186 0 0 0c110,2 169,15 169,15 12,-16 37,-19 50,-19 2,9 12,17 24,17 13,0 25,-10 25,-21 0,-12 -12,-22 -25,-22zm-80 39c0,0 -56,-13 -103,-13 0,0 72,-4 100,-18 0,0 20,13 28,16 0,0 -20,9 -25,15zm79 -3c-8,0 -14,-6 -14,-14 0,-7 6,-14 14,-14 7,0 13,7 13,14 0,8 -6,14 -13,14z"/>
   <path class="fil0" d="M3104 2041l-181 0c-3,0 -133,-6 -163,-22 0,0 -30,21 -45,21l-9 0c-1,-11 -12,-21 -25,-21 -14,0 -25,10 -25,22 0,11 11,21 25,21 12,0 22,-8 24,-17 12,0 38,3 50,19 0,0 59,-13 169,-15l0 0 180 0 0 -8zm-422 14c-7,0 -13,-6 -13,-14 0,-7 6,-14 13,-14 8,0 14,7 14,14 0,8 -6,14 -14,14zm79 3c-5,-6 -25,-15 -25,-15 8,-3 28,-16 28,-16 27,14 99,18 99,18 -46,0 -102,13 -102,13z"/>
   <path class="fil0" d="M2647 1839c-21,-9 -39,-11 -56,-5 -29,9 -41,36 -42,39 -9,14 -22,59 -23,61 -18,61 -32,81 -37,87 0,0 0,0 0,0l-2 0 -94 99 0 1c2,14 16,17 17,17l1 0 98 -101 0 -1c6,-6 27,-21 82,-42 2,-1 45,-18 58,-27 3,-2 29,-17 37,-45 1,-5 1,-10 1,-15 0,-13 -4,-28 -13,-43 1,0 1,-1 1,-2 0,-5 -7,-12 -10,-15 -9,-8 -15,-11 -18,-8zm32 81c-6,27 -33,41 -33,41l-1 0c-12,10 -56,26 -56,26 -32,13 -52,23 -66,31 13,-10 34,-24 64,-41 2,-1 52,-26 69,-50 1,0 10,-12 15,-27 2,-7 4,-14 4,-20 5,14 7,27 4,40zm-14 -56c12,25 -13,59 -14,59 -16,23 -66,48 -67,48 -26,15 -44,27 -58,36 17,-15 41,-36 66,-52 2,-1 37,-23 52,-52 1,-1 14,-23 18,-41 1,1 2,1 3,2zm-26 36c-14,27 -50,49 -50,49 -23,15 -44,32 -61,48 14,-18 30,-41 43,-65 0,0 19,-37 45,-54 1,0 24,-16 40,-20 -3,17 -17,41 -17,42zm10 -51c1,1 1,2 3,3 -18,6 -38,20 -39,21 -28,17 -47,55 -48,56 -14,27 -33,52 -47,70 8,-14 19,-33 31,-60 1,-1 22,-53 43,-71 0,0 31,-28 57,-19zm-36 -3c-14,7 -25,17 -25,17 -23,19 -44,71 -45,73 -14,31 -26,53 -35,67 7,-14 15,-35 25,-68 0,0 13,-45 21,-58l1 -1c0,0 11,-27 38,-36 12,-4 26,-4 40,1 -6,1 -13,2 -20,5z"/>
   <path class="fil0" d="M2330 1839c-3,-3 -8,0 -17,8 -4,3 -11,10 -11,15 0,1 1,2 1,2 -9,15 -13,30 -13,43 0,5 1,10 2,15 7,28 33,43 36,45 13,9 56,26 58,27 55,21 76,36 83,42l-1 1 98 101 2 0c0,0 14,-3 16,-17l0 -1 -94 -99 -1 0c0,0 0,0 -1,0 -5,-6 -19,-26 -37,-87 -1,-2 -13,-47 -22,-61 -2,-3 -14,-30 -42,-39 -17,-6 -36,-4 -57,5zm-27 41c0,6 1,13 4,20 5,15 13,27 14,27 17,24 67,49 69,50 30,17 51,31 64,41 -13,-8 -34,-18 -66,-31 0,0 -44,-16 -56,-26l-1 0c0,0 -26,-14 -33,-41 -3,-13 -1,-26 5,-40zm12 -18c5,18 17,40 18,41 15,29 51,51 52,52 26,16 49,37 66,52 -13,-9 -32,-21 -57,-36 -1,0 -51,-25 -68,-48 0,0 -25,-34 -14,-59 1,-1 2,-1 3,-2zm6 -4c17,4 40,20 40,20 26,17 45,54 46,54 12,24 28,47 42,65 -16,-16 -38,-33 -60,-48 -1,0 -36,-22 -50,-49 -1,-1 -15,-25 -18,-42zm64 10c22,18 43,70 43,71 12,27 23,46 32,60 -15,-18 -33,-43 -47,-70 -1,-1 -21,-39 -48,-56 -1,-1 -22,-15 -39,-21 1,-1 1,-2 2,-3 26,-9 57,19 57,19zm-41 -27c15,-5 29,-5 41,-1 26,9 38,36 38,36l0 1c8,13 22,58 22,58 9,33 18,54 24,68 -8,-14 -21,-36 -35,-67 -1,-2 -22,-54 -44,-73 -1,0 -12,-10 -26,-17 -7,-3 -14,-4 -20,-5z"/>
  </g>
 </g>
 <g id="Layer_x0020_1_0">
  <metadata id="CorelCorpID_1Corel-Layer"/>
  <rect class="fil1" x="1543" y="395" width="128" height="128"/>
  <rect class="fil1" x="1670" y="395" width="128" height="128"/>
  <rect class="fil1" x="1925" y="395" width="128" height="128"/>
  <rect class="fil1" x="2053" y="395" width="128" height="128"/>
  <rect class="fil1" x="2180" y="395" width="128" height="128"/>
  <rect class="fil1" x="2308" y="395" width="128" height="128"/>
  <rect class="fil1" x="2817" y="395" width="128" height="128"/>
  <rect class="fil1" x="2945" y="395" width="128" height="128"/>
  <rect class="fil1" x="3073" y="395" width="128" height="128"/>
  <rect class="fil1" x="3200" y="395" width="128" height="128"/>
  <rect class="fil1" x="3455" y="395" width="128" height="128"/>
  <rect class="fil1" x="1415" y="523" width="128" height="128"/>
  <rect class="fil1" x="1543" y="523" width="128" height="128"/>
  <rect class="fil1" x="1670" y="523" width="128" height="128"/>
  <rect class="fil1" x="1797" y="523" width="128" height="128"/>
  <rect class="fil1" x="1925" y="523" width="128" height="128"/>
  <rect class="fil1" x="2053" y="523" width="128" height="128"/>
  <rect class="fil1" x="2180" y="523" width="128" height="128"/>
  <rect class="fil1" x="3073" y="523" width="128" height="128"/>
  <rect class="fil1" x="3200" y="523" width="128" height="128"/>
  <rect class="fil1" x="3328" y="523" width="128" height="128"/>
  <rect class="fil1" x="3455" y="523" width="128" height="128"/>
  <rect class="fil1" x="1415" y="650" width="128" height="128"/>
  <rect class="fil1" x="1543" y="650" width="128" height="128"/>
  <rect class="fil1" x="1670" y="650" width="128" height="128"/>
  <rect class="fil1" x="1797" y="650" width="128" height="128"/>
  <rect class="fil1" x="2053" y="650" width="128" height="128"/>
  <rect class="fil1" x="2180" y="650" width="128" height="128"/>
  <rect class="fil1" x="2308" y="650" width="128" height="128"/>
  <rect class="fil1" x="2690" y="650" width="128" height="128"/>
  <rect class="fil1" x="2945" y="650" width="128" height="128"/>
  <rect class="fil1" x="3073" y="650" width="128" height="128"/>
  <rect class="fil1" x="3200" y="650" width="128" height="128"/>
  <rect class="fil1" x="3455" y="650" width="128" height="128"/>
  <rect class="fil1" x="1415" y="777" width="128" height="128"/>
  <rect class="fil1" x="1797" y="777" width="128" height="128"/>
  <rect class="fil1" x="2563" y="777" width="128" height="128"/>
  <rect class="fil1" x="2817" y="777" width="128" height="128"/>
  <rect class="fil1" x="3073" y="777" width="128" height="128"/>
  <rect class="fil1" x="3455" y="777" width="128" height="128"/>
  <rect class="fil1" x="1415" y="905" width="128" height="128"/>
  <rect class="fil1" x="1670" y="905" width="128" height="128"/>
  <rect class="fil1" x="1797" y="905" width="128" height="128"/>
  <rect class="fil1" x="2180" y="905" width="128" height="128"/>
  <rect class="fil1" x="2308" y="905" width="128" height="128"/>
  <rect class="fil1" x="3073" y="905" width="128" height="128"/>
  <rect class="fil1" x="1415" y="1033" width="128" height="128"/>
  <rect class="fil1" x="1670" y="1033" width="128" height="128"/>
  <rect class="fil1" x="1797" y="1033" width="128" height="128"/>
  <rect class="fil1" x="2053" y="1033" width="128" height="128"/>
  <rect class="fil1" x="2180" y="1033" width="128" height="128"/>
  <rect class="fil1" x="2817" y="1033" width="128" height="128"/>
  <rect class="fil1" x="2945" y="1033" width="128" height="128"/>
  <rect class="fil1" x="3073" y="1033" width="128" height="128"/>
  <rect class="fil1" x="3200" y="1033" width="128" height="128"/>
  <rect class="fil1" x="3328" y="1033" width="128" height="128"/>
  <rect class="fil1" x="1415" y="1160" width="128" height="128"/>
  <rect class="fil1" x="1670" y="1160" width="128" height="128"/>
  <rect class="fil1" x="1925" y="1160" width="128" height="128"/>
  <rect class="fil1" x="2180" y="1160" width="128" height="128"/>
  <rect class="fil1" x="2435" y="1160" width="128" height="128"/>
  <rect class="fil1" x="2690" y="1160" width="128" height="128"/>
  <rect class="fil1" x="2945" y="1160" width="128" height="128"/>
  <rect class="fil1" x="3200" y="1160" width="128" height="128"/>
  <rect class="fil1" x="3455" y="1160" width="128" height="128"/>
  <rect class="fil1" x="1543" y="1288" width="128" height="128"/>
  <rect class="fil1" x="1670" y="1288" width="128" height="128"/>
  <rect class="fil1" x="2053" y="1288" width="128" height="128"/>
  <rect class="fil1" x="2180" y="1288" width="128" height="128"/>
  <rect class="fil1" x="2690" y="1288" width="128" height="128"/>
  <rect class="fil1" x="3073" y="1288" width="128" height="128"/>
  <rect class="fil1" x="3328" y="1288" width="128" height="128"/>
  <rect class="fil1" x="3455" y="1288" width="128" height="128"/>
  <rect class="fil1" x="650" y="1415" width="128" height="128"/>
  <rect class="fil1" x="1033" y="1415" width="128" height="128"/>
  <rect class="fil1" x="1160" y="1415" width="128" height="128"/>
  <rect class="fil1" x="1288" y="1415" width="128" height="128"/>
  <rect class="fil1" x="1415" y="1415" width="128" height="128"/>
  <rect class="fil1" x="1543" y="1415" width="128" height="128"/>
  <rect class="fil1" x="1670" y="1415" width="128" height="128"/>
  <rect class="fil1" x="1797" y="1415" width="128" height="128"/>
  <rect class="fil1" x="1925" y="1415" width="128" height="128"/>
  <rect class="fil1" x="2053" y="1415" width="128" height="128"/>
  <rect class="fil1" x="2180" y="1415" width="128" height="128"/>
  <rect class="fil1" x="2563" y="1415" width="128" height="128"/>
  <rect class="fil1" x="3328" y="1415" width="128" height="128"/>
  <rect class="fil1" x="3583" y="1415" width="128" height="128"/>
  <rect class="fil1" x="3838" y="1415" width="128" height="128"/>
  <rect class="fil1" x="3965" y="1415" width="128" height="128"/>
  <rect class="fil1" x="4093" y="1415" width="128" height="128"/>
  <rect class="fil1" x="4220" y="1415" width="128" height="128"/>
  <rect class="fil1" x="4348" y="1415" width="128" height="128"/>
  <rect class="fil1" x="395" y="1543" width="128" height="128"/>
  <rect class="fil1" x="523" y="1543" width="128" height="128"/>
  <rect class="fil1" x="777" y="1543" width="128" height="128"/>
  <rect class="fil1" x="905" y="1543" width="128" height="128"/>
  <rect class="fil1" x="1288" y="1543" width="128" height="128"/>
  <rect class="fil1" x="1797" y="1543" width="128" height="128"/>
  <rect class="fil1" x="1925" y="1543" width="128" height="128"/>
  <rect class="fil1" x="2053" y="1543" width="128" height="128"/>
  <rect class="fil1" x="2435" y="1543" width="128" height="128"/>
  <rect class="fil1" x="2690" y="1543" width="128" height="128"/>
  <rect class="fil1" x="2817" y="1543" width="128" height="128"/>
  <rect class="fil1" x="2945" y="1543" width="128" height="128"/>
  <rect class="fil1" x="3200" y="1543" width="128" height="128"/>
  <rect class="fil1" x="3328" y="1543" width="128" height="128"/>
  <rect class="fil1" x="3838" y="1543" width="128" height="128"/>
  <rect class="fil1" x="4093" y="1543" width="128" height="128"/>
  <rect class="fil1" x="4348" y="1543" width="128" height="128"/>
  <rect class="fil1" x="4475" y="1543" width="128" height="128"/>
  <rect class="fil1" x="395" y="1670" width="128" height="128"/>
  <rect class="fil1" x="777" y="1670" width="128" height="128"/>
  <rect class="fil1" x="1033" y="1670" width="128" height="128"/>
  <rect class="fil1" x="1160" y="1670" width="128" height="128"/>
  <rect class="fil1" x="1288" y="1670" width="128" height="128"/>
  <rect class="fil1" x="1543" y="1670" width="128" height="128"/>
  <rect class="fil1" x="3328" y="1670" width="128" height="128"/>
  <rect class="fil1" x="3455" y="1670" width="128" height="128"/>
  <rect class="fil1" x="3583" y="1670" width="128" height="128"/>
  <rect class="fil1" x="3710" y="1670" width="128" height="128"/>
  <rect class="fil1" x="4093" y="1670" width="128" height="128"/>
  <rect class="fil1" x="4475" y="1670" width="128" height="128"/>
  <rect class="fil1" x="395" y="1797" width="128" height="128"/>
  <rect class="fil1" x="523" y="1797" width="128" height="128"/>
  <rect class="fil1" x="650" y="1797" width="128" height="128"/>
  <rect class="fil1" x="777" y="1797" width="128" height="128"/>
  <rect class="fil1" x="905" y="1797" width="128" height="128"/>
  <rect class="fil1" x="1033" y="1797" width="128" height="128"/>
  <rect class="fil1" x="1288" y="1797" width="128" height="128"/>
  <rect class="fil1" x="1415" y="1797" width="128" height="128"/>
  <rect class="fil1" x="1543" y="1797" width="128" height="128"/>
  <rect class="fil1" x="3328" y="1797" width="128" height="128"/>
  <rect class="fil1" x="3455" y="1797" width="128" height="128"/>
  <rect class="fil1" x="3710" y="1797" width="128" height="128"/>
  <rect class="fil1" x="3838" y="1797" width="128" height="128"/>
  <rect class="fil1" x="4093" y="1797" width="128" height="128"/>
  <rect class="fil1" x="4220" y="1797" width="128" height="128"/>
  <rect class="fil1" x="4348" y="1797" width="128" height="128"/>
  <rect class="fil1" x="4475" y="1797" width="128" height="128"/>
  <rect class="fil1" x="523" y="1925" width="128" height="128"/>
  <rect class="fil1" x="650" y="1925" width="128" height="128"/>
  <rect class="fil1" x="777" y="1925" width="128" height="128"/>
  <rect class="fil1" x="905" y="1925" width="128" height="128"/>
  <rect class="fil1" x="1160" y="1925" width="128" height="128"/>
  <rect class="fil1" x="1543" y="1925" width="128" height="128"/>
  <rect class="fil1" x="3328" y="1925" width="128" height="128"/>
  <rect class="fil1" x="3838" y="1925" width="128" height="128"/>
  <rect class="fil1" x="4220" y="1925" width="128" height="128"/>
  <rect class="fil1" x="4475" y="1925" width="128" height="128"/>
  <rect class="fil1" x="395" y="2053" width="128" height="128"/>
  <rect class="fil1" x="523" y="2053" width="128" height="128"/>
  <rect class="fil1" x="650" y="2053" width="128" height="128"/>
  <rect class="fil1" x="905" y="2053" width="128" height="128"/>
  <rect class="fil1" x="1033" y="2053" width="128" height="128"/>
  <rect class="fil1" x="1288" y="2053" width="128" height="128"/>
  <rect class="fil1" x="1543" y="2053" width="128" height="128"/>
  <rect class="fil1" x="3328" y="2053" width="128" height="128"/>
  <rect class="fil1" x="3455" y="2053" width="128" height="128"/>
  <rect class="fil1" x="3710" y="2053" width="128" height="128"/>
  <rect class="fil1" x="4093" y="2053" width="128" height="128"/>
  <rect class="fil1" x="395" y="2180" width="128" height="128"/>
  <rect class="fil1" x="777" y="2180" width="128" height="128"/>
  <rect class="fil1" x="905" y="2180" width="128" height="128"/>
  <rect class="fil1" x="1033" y="2180" width="128" height="128"/>
  <rect class="fil1" x="1160" y="2180" width="128" height="128"/>
  <rect class="fil1" x="3455" y="2180" width="128" height="128"/>
  <rect class="fil1" x="3710" y="2180" width="128" height="128"/>
  <rect class="fil1" x="4093" y="2180" width="128" height="128"/>
  <rect class="fil1" x="4475" y="2180" width="128" height="128"/>
  <rect class="fil1" x="395" y="2308" width="128" height="128"/>
  <rect class="fil1" x="523" y="2308" width="128" height="128"/>
  <rect class="fil1" x="650" y="2308" width="128" height="128"/>
  <rect class="fil1" x="905" y="2308" width="128" height="128"/>
  <rect class="fil1" x="1288" y="2308" width="128" height="128"/>
  <rect class="fil1" x="1543" y="2308" width="128" height="128"/>
  <rect class="fil1" x="3328" y="2308" width="128" height="128"/>
  <rect class="fil1" x="3455" y="2308" width="128" height="128"/>
  <rect class="fil1" x="3710" y="2308" width="128" height="128"/>
  <rect class="fil1" x="3838" y="2308" width="128" height="128"/>
  <rect class="fil1" x="4475" y="2308" width="128" height="128"/>
  <rect class="fil1" x="523" y="2435" width="128" height="128"/>
  <rect class="fil1" x="777" y="2435" width="128" height="128"/>
  <rect class="fil1" x="1160" y="2435" width="128" height="128"/>
  <rect class="fil1" x="1543" y="2435" width="128" height="128"/>
  <rect class="fil1" x="3328" y="2435" width="128" height="128"/>
  <rect class="fil1" x="3455" y="2435" width="128" height="128"/>
  <rect class="fil1" x="3838" y="2435" width="128" height="128"/>
  <rect class="fil1" x="3965" y="2435" width="128" height="128"/>
  <rect class="fil1" x="4348" y="2435" width="128" height="128"/>
  <rect class="fil1" x="395" y="2563" width="128" height="128"/>
  <rect class="fil1" x="523" y="2563" width="128" height="128"/>
  <rect class="fil1" x="650" y="2563" width="128" height="128"/>
  <rect class="fil1" x="777" y="2563" width="128" height="128"/>
  <rect class="fil1" x="905" y="2563" width="128" height="128"/>
  <rect class="fil1" x="1033" y="2563" width="128" height="128"/>
  <rect class="fil1" x="1415" y="2563" width="128" height="128"/>
  <rect class="fil1" x="1543" y="2563" width="128" height="128"/>
  <rect class="fil1" x="3583" y="2563" width="128" height="128"/>
  <rect class="fil1" x="3710" y="2563" width="128" height="128"/>
  <rect class="fil1" x="3838" y="2563" width="128" height="128"/>
  <rect class="fil1" x="4348" y="2563" width="128" height="128"/>
  <rect class="fil1" x="4475" y="2563" width="128" height="128"/>
  <rect class="fil1" x="395" y="2690" width="128" height="128"/>
  <rect class="fil1" x="523" y="2690" width="128" height="128"/>
  <rect class="fil1" x="650" y="2690" width="128" height="128"/>
  <rect class="fil1" x="777" y="2690" width="128" height="128"/>
  <rect class="fil1" x="905" y="2690" width="128" height="128"/>
  <rect class="fil1" x="1160" y="2690" width="128" height="128"/>
  <rect class="fil1" x="1415" y="2690" width="128" height="128"/>
  <rect class="fil1" x="1543" y="2690" width="128" height="128"/>
  <rect class="fil1" x="3328" y="2690" width="128" height="128"/>
  <rect class="fil1" x="3710" y="2690" width="128" height="128"/>
  <rect class="fil1" x="3838" y="2690" width="128" height="128"/>
  <rect class="fil1" x="4220" y="2690" width="128" height="128"/>
  <rect class="fil1" x="395" y="2817" width="128" height="128"/>
  <rect class="fil1" x="777" y="2817" width="128" height="128"/>
  <rect class="fil1" x="1288" y="2817" width="128" height="128"/>
  <rect class="fil1" x="1415" y="2817" width="128" height="128"/>
  <rect class="fil1" x="1543" y="2817" width="128" height="128"/>
  <rect class="fil1" x="3328" y="2817" width="128" height="128"/>
  <rect class="fil1" x="3455" y="2817" width="128" height="128"/>
  <rect class="fil1" x="3583" y="2817" width="128" height="128"/>
  <rect class="fil1" x="3710" y="2817" width="128" height="128"/>
  <rect class="fil1" x="3838" y="2817" width="128" height="128"/>
  <rect class="fil1" x="4093" y="2817" width="128" height="128"/>
  <rect class="fil1" x="4220" y="2817" width="128" height="128"/>
  <rect class="fil1" x="4475" y="2817" width="128" height="128"/>
  <rect class="fil1" x="523" y="2945" width="128" height="128"/>
  <rect class="fil1" x="650" y="2945" width="128" height="128"/>
  <rect class="fil1" x="905" y="2945" width="128" height="128"/>
  <rect class="fil1" x="1160" y="2945" width="128" height="128"/>
  <rect class="fil1" x="1415" y="2945" width="128" height="128"/>
  <rect class="fil1" x="3328" y="2945" width="128" height="128"/>
  <rect class="fil1" x="3710" y="2945" width="128" height="128"/>
  <rect class="fil1" x="4348" y="2945" width="128" height="128"/>
  <rect class="fil1" x="4475" y="2945" width="128" height="128"/>
  <rect class="fil1" x="523" y="3073" width="128" height="128"/>
  <rect class="fil1" x="777" y="3073" width="128" height="128"/>
  <rect class="fil1" x="1288" y="3073" width="128" height="128"/>
  <rect class="fil1" x="1415" y="3073" width="128" height="128"/>
  <rect class="fil1" x="1543" y="3073" width="128" height="128"/>
  <rect class="fil1" x="3838" y="3073" width="128" height="128"/>
  <rect class="fil1" x="4093" y="3073" width="128" height="128"/>
  <rect class="fil1" x="4348" y="3073" width="128" height="128"/>
  <rect class="fil1" x="395" y="3200" width="128" height="128"/>
  <rect class="fil1" x="523" y="3200" width="128" height="128"/>
  <rect class="fil1" x="650" y="3200" width="128" height="128"/>
  <rect class="fil1" x="777" y="3200" width="128" height="128"/>
  <rect class="fil1" x="1160" y="3200" width="128" height="128"/>
  <rect class="fil1" x="1288" y="3200" width="128" height="128"/>
  <rect class="fil1" x="1415" y="3200" width="128" height="128"/>
  <rect class="fil1" x="1543" y="3200" width="128" height="128"/>
  <rect class="fil1" x="3328" y="3200" width="128" height="128"/>
  <rect class="fil1" x="3455" y="3200" width="128" height="128"/>
  <rect class="fil1" x="3710" y="3200" width="128" height="128"/>
  <rect class="fil1" x="4348" y="3200" width="128" height="128"/>
  <rect class="fil1" x="4475" y="3200" width="128" height="128"/>
  <rect class="fil1" x="777" y="3328" width="128" height="128"/>
  <rect class="fil1" x="1288" y="3328" width="128" height="128"/>
  <rect class="fil1" x="1415" y="3328" width="128" height="128"/>
  <rect class="fil1" x="1543" y="3328" width="128" height="128"/>
  <rect class="fil1" x="1670" y="3328" width="128" height="128"/>
  <rect class="fil1" x="1797" y="3328" width="128" height="128"/>
  <rect class="fil1" x="1925" y="3328" width="128" height="128"/>
  <rect class="fil1" x="2053" y="3328" width="128" height="128"/>
  <rect class="fil1" x="2308" y="3328" width="128" height="128"/>
  <rect class="fil1" x="2690" y="3328" width="128" height="128"/>
  <rect class="fil1" x="2817" y="3328" width="128" height="128"/>
  <rect class="fil1" x="2945" y="3328" width="128" height="128"/>
  <rect class="fil1" x="3073" y="3328" width="128" height="128"/>
  <rect class="fil1" x="3328" y="3328" width="128" height="128"/>
  <rect class="fil1" x="3455" y="3328" width="128" height="128"/>
  <rect class="fil1" x="3583" y="3328" width="128" height="128"/>
  <rect class="fil1" x="3710" y="3328" width="128" height="128"/>
  <rect class="fil1" x="3838" y="3328" width="128" height="128"/>
  <rect class="fil1" x="4093" y="3328" width="128" height="128"/>
  <rect class="fil1" x="4475" y="3328" width="128" height="128"/>
  <rect class="fil1" x="395" y="3455" width="128" height="128"/>
  <rect class="fil1" x="523" y="3455" width="128" height="128"/>
  <rect class="fil1" x="777" y="3455" width="128" height="128"/>
  <rect class="fil1" x="905" y="3455" width="128" height="128"/>
  <rect class="fil1" x="1033" y="3455" width="128" height="128"/>
  <rect class="fil1" x="1160" y="3455" width="128" height="128"/>
  <rect class="fil1" x="1415" y="3455" width="128" height="128"/>
  <rect class="fil1" x="1543" y="3455" width="128" height="128"/>
  <rect class="fil1" x="1797" y="3455" width="128" height="128"/>
  <rect class="fil1" x="1925" y="3455" width="128" height="128"/>
  <rect class="fil1" x="2180" y="3455" width="128" height="128"/>
  <rect class="fil1" x="2563" y="3455" width="128" height="128"/>
  <rect class="fil1" x="2945" y="3455" width="128" height="128"/>
  <rect class="fil1" x="3073" y="3455" width="128" height="128"/>
  <rect class="fil1" x="3328" y="3455" width="128" height="128"/>
  <rect class="fil1" x="3455" y="3455" width="128" height="128"/>
  <rect class="fil1" x="3583" y="3455" width="128" height="128"/>
  <rect class="fil1" x="3710" y="3455" width="128" height="128"/>
  <rect class="fil1" x="3838" y="3455" width="128" height="128"/>
  <rect class="fil1" x="3965" y="3455" width="128" height="128"/>
  <rect class="fil1" x="4475" y="3455" width="128" height="128"/>
  <rect class="fil1" x="1415" y="3583" width="128" height="128"/>
  <rect class="fil1" x="1670" y="3583" width="128" height="128"/>
  <rect class="fil1" x="1925" y="3583" width="128" height="128"/>
  <rect class="fil1" x="2180" y="3583" width="128" height="128"/>
  <rect class="fil1" x="2435" y="3583" width="128" height="128"/>
  <rect class="fil1" x="2945" y="3583" width="128" height="128"/>
  <rect class="fil1" x="3073" y="3583" width="128" height="128"/>
  <rect class="fil1" x="3200" y="3583" width="128" height="128"/>
  <rect class="fil1" x="3455" y="3583" width="128" height="128"/>
  <rect class="fil1" x="3965" y="3583" width="128" height="128"/>
  <rect class="fil1" x="4093" y="3583" width="128" height="128"/>
  <rect class="fil1" x="4348" y="3583" width="128" height="128"/>
  <rect class="fil1" x="4475" y="3583" width="128" height="128"/>
  <rect class="fil1" x="1415" y="3710" width="128" height="128"/>
  <rect class="fil1" x="1543" y="3710" width="128" height="128"/>
  <rect class="fil1" x="1925" y="3710" width="128" height="128"/>
  <rect class="fil1" x="2180" y="3710" width="128" height="128"/>
  <rect class="fil1" x="2308" y="3710" width="128" height="128"/>
  <rect class="fil1" x="2563" y="3710" width="128" height="128"/>
  <rect class="fil1" x="2690" y="3710" width="128" height="128"/>
  <rect class="fil1" x="2817" y="3710" width="128" height="128"/>
  <rect class="fil1" x="3455" y="3710" width="128" height="128"/>
  <rect class="fil1" x="3710" y="3710" width="128" height="128"/>
  <rect class="fil1" x="3965" y="3710" width="128" height="128"/>
  <rect class="fil1" x="4093" y="3710" width="128" height="128"/>
  <rect class="fil1" x="1415" y="3838" width="128" height="128"/>
  <rect class="fil1" x="1543" y="3838" width="128" height="128"/>
  <rect class="fil1" x="1925" y="3838" width="128" height="128"/>
  <rect class="fil1" x="2053" y="3838" width="128" height="128"/>
  <rect class="fil1" x="2308" y="3838" width="128" height="128"/>
  <rect class="fil1" x="2945" y="3838" width="128" height="128"/>
  <rect class="fil1" x="3073" y="3838" width="128" height="128"/>
  <rect class="fil1" x="3328" y="3838" width="128" height="128"/>
  <rect class="fil1" x="3455" y="3838" width="128" height="128"/>
  <rect class="fil1" x="3965" y="3838" width="128" height="128"/>
  <rect class="fil1" x="4475" y="3838" width="128" height="128"/>
  <rect class="fil1" x="1543" y="3965" width="128" height="128"/>
  <rect class="fil1" x="1670" y="3965" width="128" height="128"/>
  <rect class="fil1" x="1797" y="3965" width="128" height="128"/>
  <rect class="fil1" x="2053" y="3965" width="128" height="128"/>
  <rect class="fil1" x="2180" y="3965" width="128" height="128"/>
  <rect class="fil1" x="2308" y="3965" width="128" height="128"/>
  <rect class="fil1" x="2435" y="3965" width="128" height="128"/>
  <rect class="fil1" x="2563" y="3965" width="128" height="128"/>
  <rect class="fil1" x="2690" y="3965" width="128" height="128"/>
  <rect class="fil1" x="2817" y="3965" width="128" height="128"/>
  <rect class="fil1" x="2945" y="3965" width="128" height="128"/>
  <rect class="fil1" x="3073" y="3965" width="128" height="128"/>
  <rect class="fil1" x="3455" y="3965" width="128" height="128"/>
  <rect class="fil1" x="3583" y="3965" width="128" height="128"/>
  <rect class="fil1" x="3710" y="3965" width="128" height="128"/>
  <rect class="fil1" x="3838" y="3965" width="128" height="128"/>
  <rect class="fil1" x="3965" y="3965" width="128" height="128"/>
  <rect class="fil1" x="4220" y="3965" width="128" height="128"/>
  <rect class="fil1" x="4348" y="3965" width="128" height="128"/>
  <rect class="fil1" x="4475" y="3965" width="128" height="128"/>
  <rect class="fil1" x="1670" y="4093" width="128" height="128"/>
  <rect class="fil1" x="1797" y="4093" width="128" height="128"/>
  <rect class="fil1" x="2180" y="4093" width="128" height="128"/>
  <rect class="fil1" x="2817" y="4093" width="128" height="128"/>
  <rect class="fil1" x="2945" y="4093" width="128" height="128"/>
  <rect class="fil1" x="3073" y="4093" width="128" height="128"/>
  <rect class="fil1" x="3455" y="4093" width="128" height="128"/>
  <rect class="fil1" x="3583" y="4093" width="128" height="128"/>
  <rect class="fil1" x="4093" y="4093" width="128" height="128"/>
  <rect class="fil1" x="4348" y="4093" width="128" height="128"/>
  <rect class="fil1" x="1415" y="4220" width="128" height="128"/>
  <rect class="fil1" x="1543" y="4220" width="128" height="128"/>
  <rect class="fil1" x="1670" y="4220" width="128" height="128"/>
  <rect class="fil1" x="1925" y="4220" width="128" height="128"/>
  <rect class="fil1" x="2308" y="4220" width="128" height="128"/>
  <rect class="fil1" x="2563" y="4220" width="128" height="128"/>
  <rect class="fil1" x="2817" y="4220" width="128" height="128"/>
  <rect class="fil1" x="3328" y="4220" width="128" height="128"/>
  <rect class="fil1" x="3455" y="4220" width="128" height="128"/>
  <rect class="fil1" x="3583" y="4220" width="128" height="128"/>
  <rect class="fil1" x="3710" y="4220" width="128" height="128"/>
  <rect class="fil1" x="3838" y="4220" width="128" height="128"/>
  <rect class="fil1" x="4093" y="4220" width="128" height="128"/>
  <rect class="fil1" x="4348" y="4220" width="128" height="128"/>
  <rect class="fil1" x="4475" y="4220" width="128" height="128"/>
  <rect class="fil1" x="1670" y="4348" width="128" height="128"/>
  <rect class="fil1" x="1925" y="4348" width="128" height="128"/>
  <rect class="fil1" x="2053" y="4348" width="128" height="128"/>
  <rect class="fil1" x="2180" y="4348" width="128" height="128"/>
  <rect class="fil1" x="2308" y="4348" width="128" height="128"/>
  <rect class="fil1" x="2563" y="4348" width="128" height="128"/>
  <rect class="fil1" x="2690" y="4348" width="128" height="128"/>
  <rect class="fil1" x="2945" y="4348" width="128" height="128"/>
  <rect class="fil1" x="3073" y="4348" width="128" height="128"/>
  <rect class="fil1" x="3200" y="4348" width="128" height="128"/>
  <rect class="fil1" x="3583" y="4348" width="128" height="128"/>
  <rect class="fil1" x="3965" y="4348" width="128" height="128"/>
  <rect class="fil1" x="4348" y="4348" width="128" height="128"/>
  <rect class="fil1" x="4475" y="4348" width="128" height="128"/>
  <rect class="fil1" x="1543" y="4475" width="128" height="128"/>
  <rect class="fil1" x="1670" y="4475" width="128" height="128"/>
  <rect class="fil1" x="1925" y="4475" width="128" height="128"/>
  <rect class="fil1" x="2180" y="4475" width="128" height="128"/>
  <rect class="fil1" x="2435" y="4475" width="128" height="128"/>
  <rect class="fil1" x="2690" y="4475" width="128" height="128"/>
  <rect class="fil1" x="2817" y="4475" width="128" height="128"/>
  <rect class="fil1" x="3073" y="4475" width="128" height="128"/>
  <rect class="fil1" x="3200" y="4475" width="128" height="128"/>
  <rect class="fil1" x="3455" y="4475" width="128" height="128"/>
  <rect class="fil1" x="3583" y="4475" width="128" height="128"/>
  <rect class="fil1" x="3965" y="4475" width="128" height="128"/>
  <rect class="fil1" x="4220" y="4475" width="128" height="128"/>
  <rect class="fil1" x="4475" y="4475" width="128" height="128"/>
  <path class="fil1" d="M1161 395l-127 0 -128 0 0 0 -127 0 -128 0 -127 0 -128 0 0 127 0 128 0 128 0 127 0 128 0 127 0 128 128 -1 127 0 128 0 127 0 0 0 128 0 127 0 127 0 0 -892 -127 0zm0 255l0 128 0 127 0 128 0 127 -127 0 -128 0 0 0 -127 0 -128 0 -127 0 0 -127 0 -128 0 -127 0 -128 0 -128 127 0 128 0 127 0 0 0 128 0 127 0 0 128z"/>
  <polygon class="fil1" points="905,650 905,650 778,650 650,650 650,778 650,905 650,1033 778,1033 905,1033 905,1033 1033,1033 1033,905 1033,778 1033,650 "/>
  <path class="fil1" d="M4476 395l-127 0 -128 0 0 0 -127 0 -128 0 -127 0 -128 0 0 127 0 128 0 128 0 127 0 128 0 127 0 128 128 -1 127 0 128 0 127 0 0 0 128 0 127 0 127 0 0 -892 -127 0zm0 255l0 128 0 127 0 128 0 127 -127 0 -128 0 0 0 -127 0 -128 0 -127 0 0 -127 0 -128 0 -127 0 -128 0 -128 127 0 128 0 127 0 0 0 128 0 127 0 0 128z"/>
  <polygon class="fil1" points="4220,650 4220,650 4093,650 3965,650 3965,778 3965,905 3965,1033 4093,1033 4220,1033 4220,1033 4347,1033 4347,905 4347,778 4347,650 "/>
  <path class="fil1" d="M1161 3710l-127 0 -128 0 0 0 -127 0 -128 0 -127 0 -128 0 0 128 0 127 0 128 0 127 0 128 0 127 0 128 128 0 127 0 128 0 127 0 0 0 128 0 127 0 127 0 0 -893 -127 0zm0 255l0 128 0 127 0 128 0 127 -127 0 -128 0 0 0 -127 0 -128 0 -127 0 0 -127 0 -128 0 -127 0 -128 0 -127 127 0 128 0 127 0 0 0 128 0 127 0 0 127z"/>
  <polygon class="fil1" points="905,3965 905,3965 778,3965 650,3965 650,4093 650,4220 650,4348 778,4348 905,4348 905,4348 1033,4348 1033,4220 1033,4093 1033,3965 "/>
  <g>
   <path class="fil1" d="M1836 1717l1329 0c64,0 116,52 116,116l0 1332c0,64 -52,116 -116,116l-1329 0c-64,0 -117,-52 -117,-116l0 -1332c0,-64 53,-116 117,-116zm1329 44l-1329 0c-20,0 -38,8 -51,21 -13,13 -21,32 -21,51l0 1332c0,19 8,38 21,51 13,13 31,21 51,21l1329 0c20,0 38,-8 51,-21 13,-13 21,-32 21,-51l0 -1332c0,-19 -8,-38 -21,-51 -13,-13 -31,-21 -51,-21z"/>
  </g>
 </g>
</svg>
