<?xml version="1.0" encoding="UTF-8"?>
<!DOCTYPE svg PUBLIC "-//W3C//DTD SVG 1.1//EN" "http://www.w3.org/Graphics/SVG/1.1/DTD/svg11.dtd">
<!-- Creator: CorelDRAW X7 -->
<svg xmlns="http://www.w3.org/2000/svg" xml:space="preserve" width="50mm" height="50mm" version="1.1" style="shape-rendering:geometricPrecision; text-rendering:geometricPrecision; image-rendering:optimizeQuality; fill-rule:evenodd; clip-rule:evenodd"
viewBox="0 0 5000 5000"
 xmlns:xlink="http://www.w3.org/1999/xlink">
 <defs>
  <style type="text/css">
   <![CDATA[
    .fil1 {fill:#F8F5EF;fill-rule:nonzero}
    .fil0 {fill:#7F705A;fill-rule:nonzero}
   ]]>
  </style>
 </defs>
 <g id="Layer_x0020_1">
  <metadata id="CorelCorpID_0Corel-Layer"/>
  <path class="fil0" d="M5000 2500c0,1381 -1119,2500 -2500,2500 -1381,0 -2500,-1119 -2500,-2500 0,-1381 1119,-2500 2500,-2500 1381,0 2500,1119 2500,2500zm-2497 -690c-410,0 -743,332 -743,742 0,410 333,743 743,743 409,0 742,-333 742,-743 0,-410 -333,-742 -742,-742zm0 1224l0 0c-267,0 -482,-216 -482,-482 0,-266 215,-481 482,-481 266,0 481,215 481,481 0,266 -215,482 -481,482zm0 -1667c385,0 431,2 584,9 141,6 217,30 268,50 67,26 116,57 166,108 51,50 82,98 108,166 20,51 44,127 50,268 7,153 8,198 8,584 0,386 -1,432 -8,584 -6,141 -30,218 -50,269 -26,67 -57,115 -108,166 -50,51 -99,82 -166,108 -51,20 -127,43 -268,50 -153,7 -198,8 -584,8 -386,0 -432,-1 -584,-8 -141,-7 -218,-30 -269,-50 -67,-26 -115,-57 -166,-108 -51,-51 -82,-99 -108,-166 -20,-51 -44,-128 -50,-269 -7,-152 -8,-198 -8,-584 0,-386 1,-431 8,-584 6,-141 30,-217 50,-268 26,-68 57,-116 108,-166 51,-51 99,-82 166,-108 51,-20 128,-44 269,-50 152,-7 198,-9 584,-9zm0 -260l0 0c-393,0 -442,2 -596,9 -154,7 -259,31 -351,67 -95,37 -176,86 -256,167 -81,80 -130,161 -167,256 -36,92 -60,197 -67,350 -7,155 -9,204 -9,596 0,393 2,442 9,596 7,154 31,259 67,351 37,95 86,176 167,256 80,80 161,130 256,167 92,36 197,60 351,67 154,7 203,9 596,9 392,0 441,-2 595,-9 154,-7 259,-31 351,-67 95,-37 176,-87 256,-167 81,-80 130,-161 167,-256 36,-92 60,-197 67,-351 7,-154 9,-203 9,-596 0,-392 -2,-441 -9,-596 -7,-153 -31,-258 -67,-350 -37,-95 -86,-176 -167,-256 -80,-81 -161,-130 -256,-167 -92,-36 -197,-60 -351,-67 -154,-7 -203,-9 -595,-9z"/>
  <path class="fil1" d="M3448 1781c0,96 -78,173 -174,173 -96,0 -173,-77 -173,-173 0,-96 77,-174 173,-174 96,0 174,78 174,174z"/>
 </g>
</svg>
