<?xml version="1.0" encoding="UTF-8"?>
<!DOCTYPE svg PUBLIC "-//W3C//DTD SVG 1.1//EN" "http://www.w3.org/Graphics/SVG/1.1/DTD/svg11.dtd">
<!-- Creator: CorelDRAW X7 -->
<svg xmlns="http://www.w3.org/2000/svg" xml:space="preserve" width="50mm" height="50mm" version="1.1" style="shape-rendering:geometricPrecision; text-rendering:geometricPrecision; image-rendering:optimizeQuality; fill-rule:evenodd; clip-rule:evenodd"
viewBox="0 0 5000 5000"
 xmlns:xlink="http://www.w3.org/1999/xlink">
 <defs>
  <style type="text/css">
   <![CDATA[
    .fil0 {fill:#7F705A;fill-rule:nonzero}
   ]]>
  </style>
 </defs>
 <g id="Layer_x0020_1">
  <metadata id="CorelCorpID_0Corel-Layer"/>
  <path class="fil0" d="M5000 2500c0,1381 -1119,2500 -2500,2500 -1381,0 -2500,-1119 -2500,-2500 0,-1381 1119,-2500 2500,-2500 1381,0 2500,1119 2500,2500zm-1816 140c-35,-17 -206,-101 -238,-112 -32,-12 -55,-17 -79,17 -23,35 -90,113 -110,135 -21,23 -40,26 -76,9 -34,-17 -147,-53 -280,-172 -103,-91 -173,-204 -193,-238 -20,-35 -2,-53 15,-71 16,-16 35,-40 53,-60 5,-6 9,-12 13,-17 7,-12 13,-24 21,-41 12,-23 6,-43 -2,-61 -9,-17 -79,-187 -108,-256 -28,-69 -58,-57 -78,-57 -20,0 -43,-4 -67,-4 -23,0 -61,9 -93,44 -32,34 -121,118 -121,288 0,40 7,80 18,118 35,121 111,222 124,239 17,23 240,383 594,522 354,137 354,91 418,85 64,-5 206,-83 235,-164 29,-80 29,-149 20,-164 -8,-14 -32,-22 -66,-40zm768 -320c-19,-762 -647,-1373 -1419,-1373 -763,0 -1385,597 -1418,1347 -1,21 -2,41 -2,62 0,266 75,515 204,728l-256 755 786 -250c204,112 438,176 686,176 784,0 1420,-631 1420,-1409 0,-12 0,-24 -1,-36zm-1419 1220l0 0c-242,0 -468,-72 -657,-196l-458 146 149 -440c-143,-195 -228,-435 -228,-694 0,-39 2,-77 6,-115 59,-600 569,-1070 1188,-1070 627,0 1142,482 1190,1092 2,31 4,62 4,93 0,653 -536,1184 -1194,1184z"/>
 </g>
</svg>
