<?xml version="1.0" encoding="UTF-8"?>
<!DOCTYPE svg PUBLIC "-//W3C//DTD SVG 1.1//EN" "http://www.w3.org/Graphics/SVG/1.1/DTD/svg11.dtd">
<!-- Creator: CorelDRAW X7 -->
<svg xmlns="http://www.w3.org/2000/svg" xml:space="preserve" width="50mm" height="50mm" version="1.1" style="shape-rendering:geometricPrecision; text-rendering:geometricPrecision; image-rendering:optimizeQuality; fill-rule:evenodd; clip-rule:evenodd"
viewBox="0 0 5000 5000"
 xmlns:xlink="http://www.w3.org/1999/xlink">
 <defs>
  <style type="text/css">
   <![CDATA[
    .fil0 {fill:#7F705A;fill-rule:nonzero}
   ]]>
  </style>
 </defs>
 <g id="Layer_x0020_1">
  <metadata id="CorelCorpID_0Corel-Layer"/>
  <path class="fil0" d="M5000 2500c0,1381 -1119,2500 -2500,2500 -1381,0 -2500,-1119 -2500,-2500 0,-1381 1119,-2500 2500,-2500 1381,0 2500,1119 2500,2500zm-331 -799l-331 0 -11 51c-25,118 -49,244 -76,360l-67 -11c-111,-14 -218,14 -308,74l-46 32c-29,21 -59,48 -84,73 -8,8 -11,13 -18,21 -28,27 -65,78 -87,110 -40,60 -79,133 -104,209 -24,72 -49,179 -26,269 20,78 72,142 148,164 77,23 207,-8 262,-34 60,-29 138,-81 170,-142l16 0c0,19 -37,146 -39,162l329 0 170 -835c11,-56 22,-111 34,-167l68 -336zm-1795 1361c148,0 277,-51 391,-137 8,-6 15,-13 22,-19 34,-27 73,-69 100,-103 29,-37 59,-82 79,-124 36,-72 70,-172 70,-257 0,-77 -8,-128 -53,-189 -16,-21 -41,-46 -63,-61 -18,-12 -33,-22 -52,-31 -58,-28 -137,-47 -201,-47 -105,0 -154,6 -251,41 -20,7 -64,28 -84,39 -134,80 -225,183 -292,334 -14,30 -22,58 -33,90 -10,32 -15,70 -20,106l-3 58c7,59 11,91 46,144 50,77 144,126 232,143 34,7 73,13 112,13zm-1041 0c148,0 277,-51 391,-137 42,-33 89,-80 122,-122 56,-71 101,-152 126,-240 31,-110 42,-233 -30,-330 -28,-38 -72,-72 -115,-92 -10,-5 -18,-8 -29,-13l-30 -10c-94,-31 -199,-31 -296,-12 -57,12 -110,31 -160,58l-40 21c-7,5 -12,9 -19,13 -14,9 -24,17 -37,27 -95,73 -166,166 -218,283 -13,30 -22,58 -32,90 -10,32 -15,70 -20,106l-3 58c7,59 11,91 46,144 26,40 56,65 95,90 67,42 168,66 249,66zm-803 -950l-117 0 -27 140c-2,11 -6,40 -9,47l114 0 -50 249c-4,21 -9,41 -13,63 -5,22 -8,42 -12,63l-25 125c-15,73 -38,179 -50,249l-51 251 333 0c0,-15 8,-46 12,-62l187 -940 242 0 28 -139c3,-14 8,-32 8,-48l-244 0c1,-12 5,-28 7,-40 6,-40 15,-71 34,-107 21,-37 65,-66 124,-66 63,0 117,3 176,22 13,4 31,14 43,15l39 -194c-12,-6 -33,-11 -47,-15 -19,-5 -33,-8 -53,-12 -37,-7 -77,-11 -117,-12l-42 0c-65,2 -130,13 -187,39 -46,20 -103,51 -138,87 -34,35 -49,45 -78,89 -39,59 -70,122 -87,196zm1824 1356c-6,9 -26,26 -36,35l-19 15c-46,37 -74,56 -126,87l-69 38c-18,8 -30,15 -48,22 -121,50 -198,78 -333,97l-132 10 -69 -4c-93,-12 -135,-16 -231,-55 -90,-36 -191,-98 -260,-167 -12,-12 -23,-23 -35,-35 -53,-53 -99,-123 -132,-190 -13,-26 -2,-22 -33,-22 0,12 5,29 8,40 20,87 54,176 99,250 13,21 24,40 38,60l44 58c19,24 75,84 97,103 57,48 78,65 143,104 121,73 275,118 432,118 180,0 256,-9 424,-55 17,-5 34,-11 51,-17 46,-15 103,-40 143,-60 8,-4 14,-8 21,-12 40,-23 63,-33 106,-62l60 -43c16,-11 45,-39 58,-45l48 137c9,22 16,45 24,69 4,12 8,22 12,34 4,11 11,24 12,36l4 0c0,-15 112,-569 132,-670 2,-10 7,-38 10,-45 -10,0 -16,-2 -30,-2l-500 0c-15,0 -130,-2 -130,-2 -8,2 -4,3 0,6l179 136c7,6 12,10 19,15 7,5 15,10 19,16zm-2523 -429l331 0 23 -114c8,-40 15,-79 23,-117l91 -463c4,-19 8,-38 12,-57l34 -176 -329 0 -34 171c-23,113 -151,740 -151,756zm215 -1069l322 0c10,0 15,-45 18,-63l41 -206 -324 0c-10,2 -6,2 -11,28l-41 206c-2,12 -5,24 -5,35z"/>
 </g>
</svg>
