<?xml version="1.0" encoding="UTF-8"?>
<!DOCTYPE svg PUBLIC "-//W3C//DTD SVG 1.1//EN" "http://www.w3.org/Graphics/SVG/1.1/DTD/svg11.dtd">
<!-- Creator: CorelDRAW X7 -->
<svg xmlns="http://www.w3.org/2000/svg" xml:space="preserve" width="50mm" height="46.55mm" version="1.1" style="shape-rendering:geometricPrecision; text-rendering:geometricPrecision; image-rendering:optimizeQuality; fill-rule:evenodd; clip-rule:evenodd"
viewBox="0 0 5000 4655"
 xmlns:xlink="http://www.w3.org/1999/xlink"
 enable-background="new 0 0 700 700">
 <defs>
  <style type="text/css">
   <![CDATA[
    .fil1 {fill:#7F705A}
    .fil0 {fill:#7F705A;fill-rule:nonzero}
   ]]>
  </style>
 </defs>
 <g id="Layer_x0020_1">
  <metadata id="CorelCorpID_0Corel-Layer"/>
  <g id="_2358005019760">
   <path class="fil0" d="M2270 3145c-15,0 -27,10 -27,23l-11 0c-17,0 -50,-23 -50,-23 -34,18 -179,24 -182,24l-209 0 0 9 208 0c123,2 189,16 189,16 13,-17 42,-21 55,-21 3,11 14,19 27,19 16,0 28,-11 28,-24 0,-13 -12,-23 -28,-23zm-89 43c0,0 -62,-14 -115,-15 0,0 81,-4 112,-19 0,0 22,14 31,17 0,0 -22,10 -28,17zm88 -3c-8,0 -15,-7 -15,-16 0,-8 7,-15 15,-15 8,0 15,7 15,15 0,9 -7,16 -15,16z"/>
   <path class="fil0" d="M3189 3169l-203 0c-3,0 -148,-6 -181,-24 0,0 -34,23 -51,23l-10 0c-1,-13 -13,-23 -28,-23 -15,0 -27,10 -27,23 0,13 12,24 27,24 14,0 25,-8 27,-19 14,0 42,4 55,21 0,0 67,-14 189,-16l202 0 0 -9zm-471 16c-9,0 -15,-7 -15,-16 0,-8 6,-15 15,-15 8,0 15,7 15,15 0,9 -7,16 -15,16zm87 3c-6,-7 -28,-17 -28,-17 9,-3 32,-17 32,-17 31,15 111,19 111,19 -52,1 -115,15 -115,15z"/>
   <path class="fil0" d="M2623 3130c-40,-3 -73,12 -106,26l-14 6c-34,14 -80,34 -123,32 -38,-1 -61,-11 -61,-28 0,-14 14,-22 41,-24 28,-3 51,14 52,14 2,1 4,1 6,-1 1,-2 1,-5 -1,-6 -1,-1 -27,-19 -57,-17 -41,4 -50,21 -50,34 0,13 9,36 70,37 45,2 90,-15 125,-30l14 -6c31,-14 66,-30 103,-28 45,3 51,18 51,30 0,3 -2,6 -5,9 -7,7 -23,11 -43,10 -23,0 -41,-7 -41,-7 -2,-1 -5,0 -6,2 -1,2 0,5 2,6 1,0 20,7 45,8 22,1 41,-4 50,-13 4,-4 7,-9 7,-15 0,-24 -19,-36 -59,-39z"/>
   <path class="fil0" d="M2133 2472c13,-3 24,-8 33,-13 10,-5 18,-12 27,-21 18,-21 27,-46 27,-74 0,-17 -3,-33 -9,-48 -7,-14 -17,-27 -28,-37 -12,-10 -26,-17 -42,-22 5,3 11,6 17,10 5,4 10,8 14,12 4,4 7,9 10,14 13,19 20,42 20,69 0,14 -2,28 -6,41 -3,13 -8,24 -15,34 -6,9 -12,15 -20,21 -7,5 -17,10 -28,14zm-106 -6l-6 5c10,-1 18,-2 26,-2 9,0 16,0 23,1l-7 -4c-3,-2 -5,-4 -7,-7 -1,-1 -2,-4 -2,-7 0,-2 0,-3 0,-6l0 -3 0 -156 0 -3c0,-2 0,-4 0,-6 0,-3 1,-5 2,-7 1,-2 3,-4 7,-7l9 -6c-10,1 -19,1 -25,1 -8,0 -16,0 -26,-1l-2 0 8 6c4,3 7,5 7,7 2,1 2,4 2,7 0,2 0,3 0,4l0 2 0 3 0 156 0 3 0 2c0,1 0,2 0,4 0,3 0,6 -1,7 -1,2 -4,4 -8,7zm42 -174l0 129c0,14 1,25 4,31 2,7 6,11 12,14 6,4 13,5 21,5 13,0 25,-2 36,-8 10,-4 20,-12 28,-22 8,-10 14,-22 19,-35 4,-14 6,-28 6,-44 0,-20 -4,-38 -11,-55 -8,-16 -18,-29 -32,-38 -13,-9 -28,-13 -45,-13 -13,0 -22,2 -28,8 -7,6 -10,15 -10,28zm-72 187l0 -5c13,-2 21,-7 27,-14 4,-5 6,-16 6,-32l0 -126c0,-9 0,-17 -1,-21 -2,-5 -4,-10 -7,-13 -5,-6 -13,-10 -25,-12l0 -5c6,0 8,0 7,0l20 1c6,1 13,1 20,1 13,0 27,-1 43,-2 13,-1 23,-2 31,-2 18,0 34,3 48,8 15,6 27,14 38,24 11,10 19,22 25,37 6,14 8,29 8,46 0,17 -3,33 -8,48 -6,14 -15,26 -26,36 -11,11 -24,18 -40,24 -15,5 -32,8 -51,8 -7,0 -18,0 -33,-2 -11,-1 -21,-1 -31,-1 -9,0 -17,0 -24,0l-23 2c-2,0 -3,0 -4,0zm424 -10c41,-24 61,-59 61,-104 0,-14 -2,-28 -7,-41 -4,-13 -11,-25 -19,-35 -8,-11 -18,-19 -29,-25 24,21 36,55 36,100 0,13 -1,26 -3,38 -3,12 -6,23 -10,32 -3,5 -5,9 -7,12 -3,4 -6,7 -9,11 -4,3 -8,7 -13,12zm-92 -1c-10,-7 -18,-16 -25,-26 -6,-10 -11,-22 -15,-34 -3,-14 -4,-28 -4,-44 0,-23 3,-43 10,-59 7,-16 19,-30 34,-42 -13,7 -25,16 -34,26 -10,11 -17,22 -22,35 -5,13 -7,26 -7,41 0,15 2,28 7,41 5,13 12,25 22,36 9,10 21,19 34,26zm-27 -104c0,17 1,32 5,46 4,14 9,25 16,35 7,11 15,18 25,23 9,5 20,8 32,8 19,0 36,-7 50,-23 8,-9 15,-21 20,-37 5,-15 7,-32 7,-52 0,-17 -2,-32 -5,-47 -4,-13 -9,-25 -16,-35 -7,-10 -15,-17 -24,-22 -10,-5 -21,-8 -33,-8 -11,0 -22,3 -32,8 -9,5 -17,13 -24,23 -7,10 -12,21 -16,35 -4,14 -5,30 -5,46zm-43 1c0,-16 4,-31 10,-46 6,-15 15,-27 26,-39 11,-11 24,-19 38,-26 15,-5 30,-8 46,-8 22,0 42,5 60,15 19,11 33,26 44,44 11,19 16,39 16,60 0,16 -3,32 -9,46 -6,15 -15,28 -26,39 -11,11 -24,19 -38,26 -15,6 -30,9 -46,9 -22,0 -42,-5 -61,-16 -18,-10 -33,-25 -44,-44 -10,-18 -16,-38 -16,-60zm376 113c-14,-3 -27,-9 -38,-16 -12,-7 -21,-16 -29,-26 -8,-10 -14,-22 -17,-35 -5,-12 -7,-26 -7,-41 0,-11 1,-21 3,-30 2,-9 6,-18 10,-26 5,-8 11,-15 17,-22 7,-7 16,-14 26,-21 -12,5 -23,12 -32,19 -8,7 -16,15 -22,24 -6,9 -10,19 -14,29 -3,11 -5,22 -5,34 0,12 2,24 6,36 3,11 8,21 15,31 6,9 14,18 24,24 9,6 19,11 29,15 10,3 21,5 34,5zm86 -224l20 59 -6 0c-6,-11 -11,-20 -17,-27 -6,-8 -12,-14 -19,-18 -6,-5 -13,-9 -21,-11 -7,-2 -16,-3 -25,-3 -13,0 -25,2 -36,7 -12,5 -22,12 -30,21 -8,10 -15,21 -19,33 -5,13 -7,26 -7,40 0,22 4,41 12,60 9,17 21,31 36,42 15,10 31,15 50,15 12,0 24,-3 35,-7 11,-5 21,-12 30,-21 8,-10 16,-21 22,-35l7 0c-10,24 -24,43 -43,56 -18,12 -42,19 -69,19 -31,0 -58,-9 -79,-26 -9,-8 -16,-16 -22,-25 -6,-10 -11,-20 -14,-31 -3,-12 -5,-24 -5,-35 0,-22 6,-43 17,-61 11,-19 27,-33 46,-44 20,-10 41,-15 66,-15 9,0 22,1 39,4 11,2 20,3 25,3 3,0 5,0 7,0zm75 212l-6 5 48 0 -6 -5c-4,-3 -6,-5 -7,-7 -1,-1 -2,-4 -2,-7l0 -4c0,0 0,-1 0,-2l0 -3 0 -156 0 -3c0,-1 0,-2 0,-2l0 -4c0,-3 1,-5 2,-7 1,-2 3,-4 7,-7l9 -7 -54 0 9 7c4,3 6,5 8,7 1,2 1,4 1,7 0,2 0,4 0,6l0 3 0 156 0 3c0,3 0,4 0,6 0,3 0,6 -1,7 -1,2 -4,4 -8,7zm125 5l31 0 9 -31c-3,4 -7,8 -12,12 -4,3 -8,7 -13,10 -6,4 -11,7 -15,9zm-15 -106l0 -22c-4,4 -6,6 -8,6 -1,1 -5,3 -11,5 7,2 13,6 19,11zm42 -86l-4 -22 -24 0c6,3 11,5 15,9 4,2 8,7 13,13zm-182 -28l191 0 6 62 -5 0c-6,-19 -15,-33 -26,-42 -12,-9 -27,-14 -45,-14l-9 0c-15,0 -25,3 -31,9 -6,5 -9,15 -9,28l0 57 22 0c17,0 29,-3 37,-8 7,-5 13,-15 16,-29l5 0 0 85 -5 0c-2,-11 -5,-20 -9,-26 -4,-6 -9,-10 -16,-12 -7,-3 -16,-4 -28,-4l-22 0 0 73c0,11 1,19 3,25 2,6 5,10 11,12 5,2 12,4 21,4l16 0c15,0 30,-5 43,-14 15,-11 30,-25 44,-44l2 -2 5 0 -19 68 -198 0 0 -5c12,-2 21,-7 26,-14 5,-5 7,-16 7,-32l0 -126c0,-10 -1,-18 -2,-22 -1,-5 -3,-9 -6,-12 -5,-6 -14,-10 -25,-12l0 -5z"/>
   <path class="fil0" d="M1831 2877l33 0c-3,-4 -6,-8 -7,-12 -2,-4 -3,-8 -3,-12 0,-2 0,-3 0,-4 -3,7 -7,12 -10,16 -3,4 -8,8 -13,12zm101 -202l-9 21 65 145 1 4c3,7 5,13 5,17 0,4 -2,10 -8,15l44 0c-5,-4 -9,-10 -13,-16 -4,-6 -8,-15 -13,-25l-72 -161zm-52 120l80 0 -40 -91 -40 91zm101 49l-18 -42 -86 0 -9 21c-5,10 -7,19 -7,26 0,6 1,10 4,15 2,4 6,7 12,10 5,3 12,5 20,7l0 5 -87 0 0 -5c11,-4 19,-10 27,-19 8,-8 16,-22 24,-42l74 -167 4 0 81 181c0,0 0,1 0,1 1,1 1,1 1,2 0,0 0,0 1,1l7 16c4,8 9,14 14,18 5,4 12,7 19,9l0 5 -106 0 0 -5c9,-1 15,-2 19,-4 8,-2 12,-8 12,-15 0,-4 -2,-10 -6,-18zm110 33l39 0c-6,-6 -10,-11 -11,-14 -2,-4 -4,-8 -5,-14 -2,6 -5,12 -9,16 -3,4 -7,8 -14,12zm50 -180l84 169 9 -22 -77 -153c-3,-8 -5,-13 -5,-17 0,-3 1,-7 3,-10l-39 0c6,4 11,9 14,14 4,7 8,13 11,19zm179 174l-9 6 51 0 -9 -7c-3,-3 -6,-9 -7,-19l-18 -160c-1,-4 -1,-6 -1,-6 0,-3 1,-5 2,-7 1,-1 3,-4 7,-7l9 -7 -38 0 21 184 0 4c0,4 0,6 0,6 0,3 0,5 -1,7 -1,1 -4,4 -7,6zm-16 -176l-76 181 -4 0 -92 -182 -9 113c-1,7 -1,13 -1,18 0,16 3,29 10,37 6,9 17,15 32,19l0 5 -92 0 0 -5c8,-3 16,-8 22,-13 6,-6 11,-13 15,-21 3,-9 6,-22 7,-41l11 -121c-4,-7 -9,-13 -15,-17 -5,-3 -12,-5 -21,-5l0 -5 81 0c0,0 0,1 0,1 0,0 0,1 0,1 -3,5 -3,9 -3,12 0,5 2,13 8,25l65 128 53 -125c5,-10 7,-17 7,-22 0,-6 -3,-13 -7,-20l80 0 0 5c-11,1 -19,5 -24,10 -5,5 -8,12 -8,22 0,2 1,5 1,8l1 4 14 124c0,1 0,2 0,3 0,0 0,1 0,2 1,0 1,1 1,3 0,2 0,4 1,7 1,11 5,19 10,24 5,5 12,9 23,11l0 5 -107 0 0 -5c12,-3 21,-7 26,-12 6,-4 8,-10 8,-18 0,-3 0,-7 -1,-14l-16 -142zm120 182l34 0c-4,-4 -6,-8 -8,-12 -2,-4 -2,-8 -2,-12 0,-2 0,-3 0,-4 -3,7 -7,12 -10,16 -4,4 -8,8 -14,12zm102 -202l-9 21 64 145 2 4c3,7 5,13 5,17 0,4 -3,10 -8,15l44 0c-5,-4 -10,-10 -13,-16 -4,-6 -8,-15 -13,-25l-72 -161zm-53 120l81 0 -41 -91 -40 91zm102 49l-18 -42 -86 0 -10 21c-4,10 -6,19 -6,26 0,6 1,10 4,15 2,4 6,7 11,10 5,3 12,5 21,7l0 5 -87 0 0 -5c10,-4 19,-10 27,-19 7,-8 15,-22 24,-42l74 -167 4 0 80 181c1,0 1,1 1,1 0,1 0,1 1,2 0,0 0,0 0,1l8 16c4,8 9,14 14,18 5,4 11,7 19,9l0 5 -107 0 0 -5c9,-1 16,-2 19,-4 8,-2 13,-8 13,-15 0,-4 -2,-10 -6,-18zm230 34c12,-3 24,-7 32,-12 10,-6 18,-13 27,-22 18,-21 27,-45 27,-74 0,-17 -3,-33 -9,-47 -7,-15 -16,-27 -28,-37 -12,-10 -26,-18 -42,-22 5,3 11,6 17,10 5,4 10,8 14,12 4,4 7,8 11,13 12,20 19,43 19,70 0,14 -2,27 -6,41 -3,13 -8,24 -15,34 -6,8 -12,15 -20,20 -7,6 -16,10 -27,14zm-106 -5l-7 4c10,-1 18,-1 26,-1 9,0 16,0 23,1l-7 -4c-3,-3 -5,-5 -6,-7 -2,-2 -3,-4 -3,-8 0,-1 0,-3 0,-5l0 -3 0 -156 0 -3c0,-3 0,-5 0,-6 0,-3 1,-6 2,-7 1,-2 4,-4 7,-7l9 -7c-10,1 -19,2 -25,2 -8,0 -16,-1 -25,-1l-3 -1 9 7c4,3 6,5 7,7 1,1 1,4 1,7 0,2 0,3 0,3l0 3 0 3 0 156 0 3 0 2c0,1 0,2 0,3 0,4 0,6 -1,8 -1,1 -3,3 -7,7zm41 -174l0 129c0,14 1,24 4,31 2,6 7,11 12,14 6,3 13,5 21,5 13,0 25,-3 36,-8 10,-5 20,-13 28,-23 8,-10 14,-21 19,-35 4,-13 6,-28 6,-43 0,-21 -4,-39 -11,-55 -7,-16 -18,-29 -32,-38 -13,-9 -28,-14 -45,-14 -13,0 -22,3 -28,9 -7,6 -10,15 -10,28zm-72 187l1 -5c12,-2 20,-7 26,-14 4,-6 6,-16 6,-32l0 -126c0,-10 0,-17 -1,-22 -1,-5 -4,-9 -7,-12 -5,-6 -13,-10 -24,-12l0 -5c5,0 7,0 6,0l20 1c6,0 13,1 20,1 13,0 27,-1 43,-3 13,-1 23,-1 31,-1 18,0 34,3 48,8 15,5 27,14 38,24 11,10 19,22 25,36 6,14 8,30 8,47 0,17 -3,33 -8,47 -6,15 -15,27 -26,37 -11,10 -24,18 -40,24 -15,5 -32,8 -51,8 -7,0 -18,-1 -33,-2 -11,-1 -21,-2 -31,-2 -9,0 -16,0 -24,1l-23 2c-1,0 -3,0 -4,0zm424 -11c41,-23 61,-58 61,-103 0,-15 -2,-29 -7,-42 -4,-13 -11,-24 -19,-35 -8,-10 -18,-18 -29,-24 24,21 36,54 36,99 0,14 -1,26 -3,39 -3,12 -6,22 -10,31 -3,6 -5,10 -7,12 -3,4 -6,8 -9,11 -3,4 -8,8 -13,12zm-92 0c-10,-7 -18,-16 -25,-26 -6,-10 -11,-22 -14,-35 -4,-13 -5,-27 -5,-43 0,-23 3,-43 10,-60 7,-16 19,-30 34,-41 -13,7 -25,15 -34,26 -9,10 -17,22 -22,35 -4,12 -7,26 -7,41 0,14 3,28 7,41 5,13 13,25 22,35 9,11 21,20 34,27zm-27 -104c0,16 2,31 5,45 4,14 9,26 16,36 7,10 15,18 25,23 9,5 20,8 32,8 19,0 36,-8 50,-23 9,-9 15,-22 20,-37 5,-15 7,-33 7,-52 0,-17 -2,-33 -5,-47 -4,-14 -9,-25 -16,-35 -7,-10 -15,-18 -24,-22 -10,-6 -21,-8 -33,-8 -11,0 -22,2 -32,8 -9,5 -17,12 -24,22 -7,10 -12,22 -16,36 -3,14 -5,29 -5,46zm-42 1c0,-16 3,-31 9,-46 6,-15 15,-28 26,-39 11,-11 24,-19 38,-26 15,-6 31,-9 46,-9 22,0 42,5 60,16 19,11 33,26 44,44 11,18 16,38 16,60 0,16 -3,31 -9,46 -6,15 -15,27 -26,38 -11,12 -24,20 -38,26 -15,7 -30,10 -46,10 -22,0 -42,-5 -61,-16 -18,-11 -33,-25 -43,-44 -11,-18 -16,-38 -16,-60z"/>
   <path class="fil0" d="M2264 1978c-15,0 -27,10 -27,23l-10 0c-17,0 -49,-23 -49,-23 -33,18 -174,24 -177,24l-204 0 0 9 203 0 0 0c119,2 184,16 184,16 13,-17 40,-20 53,-21 3,11 14,18 27,18 14,0 27,-10 27,-22 0,-13 -13,-24 -27,-24zm-87 42c0,0 -61,-13 -112,-14 0,0 79,-4 109,-19 0,0 21,14 30,17 0,0 -21,10 -27,16zm85 -2c-8,0 -14,-7 -14,-15 0,-9 6,-16 14,-16 8,0 15,7 15,16 0,8 -7,15 -15,15z"/>
   <path class="fil0" d="M3158 2002l-197 0c-3,0 -145,-6 -177,-24 0,0 -33,23 -49,23l-11 0c0,-13 -12,-23 -27,-23 -15,0 -26,11 -26,24 0,12 11,22 26,22 13,0 24,-7 27,-18 13,1 41,4 54,21 0,0 64,-14 183,-16l0 0 197 0 0 -9zm-459 16c-8,0 -15,-7 -15,-15 0,-9 7,-16 15,-16 8,0 14,7 14,16 0,8 -6,15 -14,15zm85 2c-5,-6 -27,-16 -27,-16 9,-3 31,-17 31,-17 30,15 108,19 108,19 -51,1 -112,14 -112,14z"/>
   <path class="fil0" d="M2660 1783c-22,-10 -42,-13 -60,-7 -32,11 -45,40 -46,44 -10,15 -24,63 -24,65 -20,67 -36,89 -41,95 0,0 -1,0 -1,0l-1 0 -103 107 1 2c2,16 17,19 18,19l2 0 106 -110 -1 -1c8,-7 30,-23 90,-47 2,0 49,-18 63,-29 4,-2 32,-17 40,-49 1,-5 1,-10 1,-16 0,-14 -4,-30 -14,-46 1,-1 1,-2 1,-3 0,-5 -8,-13 -11,-16 -10,-9 -16,-12 -20,-8zm36 87c-7,30 -36,45 -36,45l-1 0c-13,10 -61,29 -62,29 -34,13 -56,24 -71,33 14,-11 37,-26 69,-45 3,0 57,-28 76,-54 0,0 10,-13 15,-30 3,-7 5,-15 5,-21 6,15 8,30 5,43zm-16 -61c13,27 -14,64 -15,65 -18,24 -72,52 -73,52 -28,16 -48,29 -62,39 18,-17 43,-39 71,-57 2,-1 41,-25 57,-56 1,-2 14,-25 19,-45 1,1 2,2 3,2zm-28 39c-16,30 -55,54 -55,54 -25,16 -47,35 -65,52 15,-19 32,-44 46,-70 0,0 21,-41 49,-59 1,0 26,-17 44,-22 -4,18 -19,45 -19,45zm11 -54c1,0 1,2 3,3 -19,6 -41,22 -43,22 -30,19 -51,60 -52,62 -15,29 -35,56 -51,76 10,-16 21,-37 34,-66 1,-1 24,-57 47,-77 0,0 34,-30 62,-20zm-39 -4c-16,7 -27,18 -28,18 -24,21 -47,78 -48,80 -16,34 -29,58 -39,73 8,-15 17,-39 27,-74 1,-1 15,-50 24,-64l0 0c0,-1 12,-30 42,-40 13,-4 28,-3 44,2 -7,0 -14,2 -22,5z"/>
   <path class="fil0" d="M2317 1783c-4,-4 -10,-1 -20,8 -3,3 -11,11 -11,16 0,1 0,2 1,3 -10,16 -14,32 -14,46 0,6 0,11 2,16 7,32 35,47 39,49 14,11 61,29 63,29 60,24 82,40 90,47l-1 1 106 110 2 0c1,0 16,-3 18,-19l1 -2 -103 -107 -1 0c0,0 -1,0 -1,0 -5,-6 -21,-28 -40,-95 -1,-2 -15,-50 -25,-65 -1,-4 -14,-33 -46,-44 -18,-6 -38,-3 -60,7zm-31 44c0,6 2,14 5,21 5,17 15,30 15,30 19,26 73,54 76,54 32,19 55,34 69,45 -15,-9 -37,-20 -71,-33 -1,0 -49,-19 -62,-29l-1 0c0,0 -28,-15 -35,-45 -4,-13 -2,-28 4,-43zm14 -20c5,20 18,43 19,45 16,31 55,55 57,56 28,18 53,40 72,57 -15,-10 -35,-23 -63,-39 -1,0 -55,-28 -73,-52 -1,-1 -28,-38 -15,-65 1,0 2,-1 3,-2zm6 -4c18,5 43,22 44,22 28,18 49,59 49,59 14,26 31,51 46,70 -17,-17 -40,-36 -65,-52 0,0 -39,-24 -55,-54 0,0 -15,-27 -19,-45zm70 11c23,20 47,76 47,77 13,29 25,50 34,66 -16,-20 -36,-47 -51,-76 -1,-2 -22,-43 -52,-62 -1,0 -24,-16 -43,-22 1,-1 2,-3 3,-3 28,-10 62,20 62,20zm-45 -29c16,-5 31,-6 44,-2 30,10 42,39 42,40l0 0c9,14 24,63 24,64 10,35 19,59 27,74 -10,-15 -23,-39 -39,-73 -1,-2 -23,-59 -48,-80 0,0 -12,-11 -28,-18 -8,-3 -15,-5 -22,-5z"/>
  </g>
 </g>
 <g id="Layer_x0020_1_0">
  <metadata id="CorelCorpID_1Corel-Layer"/>
  <rect class="fil1" x="1543" y="395" width="128" height="128"/>
  <rect class="fil1" x="1670" y="395" width="128" height="128"/>
  <rect class="fil1" x="1925" y="395" width="128" height="128"/>
  <rect class="fil1" x="2053" y="395" width="128" height="128"/>
  <rect class="fil1" x="2180" y="395" width="128" height="128"/>
  <rect class="fil1" x="2308" y="395" width="128" height="128"/>
  <rect class="fil1" x="2817" y="395" width="128" height="128"/>
  <rect class="fil1" x="2945" y="395" width="128" height="128"/>
  <rect class="fil1" x="3073" y="395" width="128" height="128"/>
  <rect class="fil1" x="3200" y="395" width="128" height="128"/>
  <rect class="fil1" x="3455" y="395" width="128" height="128"/>
  <rect class="fil1" x="1415" y="523" width="128" height="128"/>
  <rect class="fil1" x="1543" y="523" width="128" height="128"/>
  <rect class="fil1" x="1670" y="523" width="128" height="128"/>
  <rect class="fil1" x="1797" y="523" width="128" height="128"/>
  <rect class="fil1" x="1925" y="523" width="128" height="128"/>
  <rect class="fil1" x="2053" y="523" width="128" height="128"/>
  <rect class="fil1" x="2180" y="523" width="128" height="128"/>
  <rect class="fil1" x="3073" y="523" width="128" height="128"/>
  <rect class="fil1" x="3200" y="523" width="128" height="128"/>
  <rect class="fil1" x="3328" y="523" width="128" height="128"/>
  <rect class="fil1" x="3455" y="523" width="128" height="128"/>
  <rect class="fil1" x="1415" y="650" width="128" height="128"/>
  <rect class="fil1" x="1543" y="650" width="128" height="128"/>
  <rect class="fil1" x="1670" y="650" width="128" height="128"/>
  <rect class="fil1" x="1797" y="650" width="128" height="128"/>
  <rect class="fil1" x="2053" y="650" width="128" height="128"/>
  <rect class="fil1" x="2180" y="650" width="128" height="128"/>
  <rect class="fil1" x="2308" y="650" width="128" height="128"/>
  <rect class="fil1" x="2690" y="650" width="128" height="128"/>
  <rect class="fil1" x="2945" y="650" width="128" height="128"/>
  <rect class="fil1" x="3073" y="650" width="128" height="128"/>
  <rect class="fil1" x="3200" y="650" width="128" height="128"/>
  <rect class="fil1" x="3455" y="650" width="128" height="128"/>
  <rect class="fil1" x="1415" y="777" width="128" height="128"/>
  <rect class="fil1" x="1797" y="777" width="128" height="128"/>
  <rect class="fil1" x="2563" y="777" width="128" height="128"/>
  <rect class="fil1" x="2817" y="777" width="128" height="128"/>
  <rect class="fil1" x="3073" y="777" width="128" height="128"/>
  <rect class="fil1" x="3455" y="777" width="128" height="128"/>
  <rect class="fil1" x="1415" y="905" width="128" height="128"/>
  <rect class="fil1" x="1670" y="905" width="128" height="128"/>
  <rect class="fil1" x="1797" y="905" width="128" height="128"/>
  <rect class="fil1" x="2180" y="905" width="128" height="128"/>
  <rect class="fil1" x="2308" y="905" width="128" height="128"/>
  <rect class="fil1" x="3073" y="905" width="128" height="128"/>
  <rect class="fil1" x="1415" y="1033" width="128" height="128"/>
  <rect class="fil1" x="1670" y="1033" width="128" height="128"/>
  <rect class="fil1" x="1797" y="1033" width="128" height="128"/>
  <rect class="fil1" x="2053" y="1033" width="128" height="128"/>
  <rect class="fil1" x="2180" y="1033" width="128" height="128"/>
  <rect class="fil1" x="2817" y="1033" width="128" height="128"/>
  <rect class="fil1" x="2945" y="1033" width="128" height="128"/>
  <rect class="fil1" x="3073" y="1033" width="128" height="128"/>
  <rect class="fil1" x="3200" y="1033" width="128" height="128"/>
  <rect class="fil1" x="3328" y="1033" width="128" height="128"/>
  <rect class="fil1" x="1415" y="1160" width="128" height="128"/>
  <rect class="fil1" x="1670" y="1160" width="128" height="128"/>
  <rect class="fil1" x="1925" y="1160" width="128" height="128"/>
  <rect class="fil1" x="2180" y="1160" width="128" height="128"/>
  <rect class="fil1" x="2435" y="1160" width="128" height="128"/>
  <rect class="fil1" x="2690" y="1160" width="128" height="128"/>
  <rect class="fil1" x="2945" y="1160" width="128" height="128"/>
  <rect class="fil1" x="3200" y="1160" width="128" height="128"/>
  <rect class="fil1" x="3455" y="1160" width="128" height="128"/>
  <rect class="fil1" x="1543" y="1288" width="128" height="128"/>
  <rect class="fil1" x="1670" y="1288" width="128" height="128"/>
  <rect class="fil1" x="2053" y="1288" width="128" height="128"/>
  <rect class="fil1" x="2180" y="1288" width="128" height="128"/>
  <rect class="fil1" x="2690" y="1288" width="128" height="128"/>
  <rect class="fil1" x="3073" y="1288" width="128" height="128"/>
  <rect class="fil1" x="3328" y="1288" width="128" height="128"/>
  <rect class="fil1" x="3455" y="1288" width="128" height="128"/>
  <rect class="fil1" x="650" y="1415" width="128" height="128"/>
  <rect class="fil1" x="1033" y="1415" width="128" height="128"/>
  <rect class="fil1" x="1160" y="1415" width="128" height="128"/>
  <rect class="fil1" x="1288" y="1415" width="128" height="128"/>
  <rect class="fil1" x="1415" y="1415" width="128" height="128"/>
  <rect class="fil1" x="1543" y="1415" width="128" height="128"/>
  <rect class="fil1" x="1670" y="1415" width="128" height="128"/>
  <rect class="fil1" x="1797" y="1415" width="128" height="128"/>
  <rect class="fil1" x="1925" y="1415" width="128" height="128"/>
  <rect class="fil1" x="2053" y="1415" width="128" height="128"/>
  <rect class="fil1" x="2180" y="1415" width="128" height="128"/>
  <rect class="fil1" x="2563" y="1415" width="128" height="128"/>
  <rect class="fil1" x="3328" y="1415" width="128" height="128"/>
  <rect class="fil1" x="3583" y="1415" width="128" height="128"/>
  <rect class="fil1" x="3838" y="1415" width="128" height="128"/>
  <rect class="fil1" x="3965" y="1415" width="128" height="128"/>
  <rect class="fil1" x="4093" y="1415" width="128" height="128"/>
  <rect class="fil1" x="4220" y="1415" width="128" height="128"/>
  <rect class="fil1" x="4348" y="1415" width="128" height="128"/>
  <rect class="fil1" x="395" y="1543" width="128" height="128"/>
  <rect class="fil1" x="523" y="1543" width="128" height="128"/>
  <rect class="fil1" x="777" y="1543" width="128" height="128"/>
  <rect class="fil1" x="905" y="1543" width="128" height="128"/>
  <rect class="fil1" x="1288" y="1543" width="128" height="128"/>
  <rect class="fil1" x="1797" y="1543" width="128" height="128"/>
  <rect class="fil1" x="1925" y="1543" width="128" height="128"/>
  <rect class="fil1" x="2053" y="1543" width="128" height="128"/>
  <rect class="fil1" x="2435" y="1543" width="128" height="128"/>
  <rect class="fil1" x="2690" y="1543" width="128" height="128"/>
  <rect class="fil1" x="2817" y="1543" width="128" height="128"/>
  <rect class="fil1" x="2945" y="1543" width="128" height="128"/>
  <rect class="fil1" x="3200" y="1543" width="128" height="128"/>
  <rect class="fil1" x="3328" y="1543" width="128" height="128"/>
  <rect class="fil1" x="3838" y="1543" width="128" height="128"/>
  <rect class="fil1" x="4093" y="1543" width="128" height="128"/>
  <rect class="fil1" x="4348" y="1543" width="128" height="128"/>
  <rect class="fil1" x="4475" y="1543" width="128" height="128"/>
  <rect class="fil1" x="395" y="1670" width="128" height="128"/>
  <rect class="fil1" x="777" y="1670" width="128" height="128"/>
  <rect class="fil1" x="1033" y="1670" width="128" height="128"/>
  <rect class="fil1" x="1160" y="1670" width="128" height="128"/>
  <rect class="fil1" x="1288" y="1670" width="128" height="128"/>
  <rect class="fil1" x="1543" y="1670" width="128" height="128"/>
  <rect class="fil1" x="3328" y="1670" width="128" height="128"/>
  <rect class="fil1" x="3455" y="1670" width="128" height="128"/>
  <rect class="fil1" x="3583" y="1670" width="128" height="128"/>
  <rect class="fil1" x="3710" y="1670" width="128" height="128"/>
  <rect class="fil1" x="4093" y="1670" width="128" height="128"/>
  <rect class="fil1" x="4475" y="1670" width="128" height="128"/>
  <rect class="fil1" x="395" y="1797" width="128" height="128"/>
  <rect class="fil1" x="523" y="1797" width="128" height="128"/>
  <rect class="fil1" x="650" y="1797" width="128" height="128"/>
  <rect class="fil1" x="777" y="1797" width="128" height="128"/>
  <rect class="fil1" x="905" y="1797" width="128" height="128"/>
  <rect class="fil1" x="1033" y="1797" width="128" height="128"/>
  <rect class="fil1" x="1288" y="1797" width="128" height="128"/>
  <rect class="fil1" x="1415" y="1797" width="128" height="128"/>
  <rect class="fil1" x="1543" y="1797" width="128" height="128"/>
  <rect class="fil1" x="3328" y="1797" width="128" height="128"/>
  <rect class="fil1" x="3455" y="1797" width="128" height="128"/>
  <rect class="fil1" x="3710" y="1797" width="128" height="128"/>
  <rect class="fil1" x="3838" y="1797" width="128" height="128"/>
  <rect class="fil1" x="4093" y="1797" width="128" height="128"/>
  <rect class="fil1" x="4220" y="1797" width="128" height="128"/>
  <rect class="fil1" x="4348" y="1797" width="128" height="128"/>
  <rect class="fil1" x="4475" y="1797" width="128" height="128"/>
  <rect class="fil1" x="523" y="1925" width="128" height="128"/>
  <rect class="fil1" x="650" y="1925" width="128" height="128"/>
  <rect class="fil1" x="777" y="1925" width="128" height="128"/>
  <rect class="fil1" x="905" y="1925" width="128" height="128"/>
  <rect class="fil1" x="1160" y="1925" width="128" height="128"/>
  <rect class="fil1" x="1543" y="1925" width="128" height="128"/>
  <rect class="fil1" x="3328" y="1925" width="128" height="128"/>
  <rect class="fil1" x="3838" y="1925" width="128" height="128"/>
  <rect class="fil1" x="4220" y="1925" width="128" height="128"/>
  <rect class="fil1" x="4475" y="1925" width="128" height="128"/>
  <rect class="fil1" x="395" y="2053" width="128" height="128"/>
  <rect class="fil1" x="523" y="2053" width="128" height="128"/>
  <rect class="fil1" x="650" y="2053" width="128" height="128"/>
  <rect class="fil1" x="905" y="2053" width="128" height="128"/>
  <rect class="fil1" x="1033" y="2053" width="128" height="128"/>
  <rect class="fil1" x="1288" y="2053" width="128" height="128"/>
  <rect class="fil1" x="1543" y="2053" width="128" height="128"/>
  <rect class="fil1" x="3328" y="2053" width="128" height="128"/>
  <rect class="fil1" x="3455" y="2053" width="128" height="128"/>
  <rect class="fil1" x="3710" y="2053" width="128" height="128"/>
  <rect class="fil1" x="4093" y="2053" width="128" height="128"/>
  <rect class="fil1" x="395" y="2180" width="128" height="128"/>
  <rect class="fil1" x="777" y="2180" width="128" height="128"/>
  <rect class="fil1" x="905" y="2180" width="128" height="128"/>
  <rect class="fil1" x="1033" y="2180" width="128" height="128"/>
  <rect class="fil1" x="1160" y="2180" width="128" height="128"/>
  <rect class="fil1" x="3455" y="2180" width="128" height="128"/>
  <rect class="fil1" x="3710" y="2180" width="128" height="128"/>
  <rect class="fil1" x="4093" y="2180" width="128" height="128"/>
  <rect class="fil1" x="4475" y="2180" width="128" height="128"/>
  <rect class="fil1" x="395" y="2308" width="128" height="128"/>
  <rect class="fil1" x="523" y="2308" width="128" height="128"/>
  <rect class="fil1" x="650" y="2308" width="128" height="128"/>
  <rect class="fil1" x="905" y="2308" width="128" height="128"/>
  <rect class="fil1" x="1288" y="2308" width="128" height="128"/>
  <rect class="fil1" x="1543" y="2308" width="128" height="128"/>
  <rect class="fil1" x="3328" y="2308" width="128" height="128"/>
  <rect class="fil1" x="3455" y="2308" width="128" height="128"/>
  <rect class="fil1" x="3710" y="2308" width="128" height="128"/>
  <rect class="fil1" x="3838" y="2308" width="128" height="128"/>
  <rect class="fil1" x="4475" y="2308" width="128" height="128"/>
  <rect class="fil1" x="523" y="2435" width="128" height="128"/>
  <rect class="fil1" x="777" y="2435" width="128" height="128"/>
  <rect class="fil1" x="1160" y="2435" width="128" height="128"/>
  <rect class="fil1" x="1543" y="2435" width="128" height="128"/>
  <rect class="fil1" x="3328" y="2435" width="128" height="128"/>
  <rect class="fil1" x="3455" y="2435" width="128" height="128"/>
  <rect class="fil1" x="3838" y="2435" width="128" height="128"/>
  <rect class="fil1" x="3965" y="2435" width="128" height="128"/>
  <rect class="fil1" x="4348" y="2435" width="128" height="128"/>
  <rect class="fil1" x="395" y="2563" width="128" height="128"/>
  <rect class="fil1" x="523" y="2563" width="128" height="128"/>
  <rect class="fil1" x="650" y="2563" width="128" height="128"/>
  <rect class="fil1" x="777" y="2563" width="128" height="128"/>
  <rect class="fil1" x="905" y="2563" width="128" height="128"/>
  <rect class="fil1" x="1033" y="2563" width="128" height="128"/>
  <rect class="fil1" x="1415" y="2563" width="128" height="128"/>
  <rect class="fil1" x="1543" y="2563" width="128" height="128"/>
  <rect class="fil1" x="3583" y="2563" width="128" height="128"/>
  <rect class="fil1" x="3710" y="2563" width="128" height="128"/>
  <rect class="fil1" x="3838" y="2563" width="128" height="128"/>
  <rect class="fil1" x="4348" y="2563" width="128" height="128"/>
  <rect class="fil1" x="4475" y="2563" width="128" height="128"/>
  <rect class="fil1" x="395" y="2690" width="128" height="128"/>
  <rect class="fil1" x="523" y="2690" width="128" height="128"/>
  <rect class="fil1" x="650" y="2690" width="128" height="128"/>
  <rect class="fil1" x="777" y="2690" width="128" height="128"/>
  <rect class="fil1" x="905" y="2690" width="128" height="128"/>
  <rect class="fil1" x="1160" y="2690" width="128" height="128"/>
  <rect class="fil1" x="1415" y="2690" width="128" height="128"/>
  <rect class="fil1" x="1543" y="2690" width="128" height="128"/>
  <rect class="fil1" x="3328" y="2690" width="128" height="128"/>
  <rect class="fil1" x="3710" y="2690" width="128" height="128"/>
  <rect class="fil1" x="3838" y="2690" width="128" height="128"/>
  <rect class="fil1" x="4220" y="2690" width="128" height="128"/>
  <rect class="fil1" x="395" y="2817" width="128" height="128"/>
  <rect class="fil1" x="777" y="2817" width="128" height="128"/>
  <rect class="fil1" x="1288" y="2817" width="128" height="128"/>
  <rect class="fil1" x="1415" y="2817" width="128" height="128"/>
  <rect class="fil1" x="1543" y="2817" width="128" height="128"/>
  <rect class="fil1" x="3328" y="2817" width="128" height="128"/>
  <rect class="fil1" x="3455" y="2817" width="128" height="128"/>
  <rect class="fil1" x="3583" y="2817" width="128" height="128"/>
  <rect class="fil1" x="3710" y="2817" width="128" height="128"/>
  <rect class="fil1" x="3838" y="2817" width="128" height="128"/>
  <rect class="fil1" x="4093" y="2817" width="128" height="128"/>
  <rect class="fil1" x="4220" y="2817" width="128" height="128"/>
  <rect class="fil1" x="4475" y="2817" width="128" height="128"/>
  <rect class="fil1" x="523" y="2945" width="128" height="128"/>
  <rect class="fil1" x="650" y="2945" width="128" height="128"/>
  <rect class="fil1" x="905" y="2945" width="128" height="128"/>
  <rect class="fil1" x="1160" y="2945" width="128" height="128"/>
  <rect class="fil1" x="1415" y="2945" width="128" height="128"/>
  <rect class="fil1" x="3328" y="2945" width="128" height="128"/>
  <rect class="fil1" x="3710" y="2945" width="128" height="128"/>
  <rect class="fil1" x="4348" y="2945" width="128" height="128"/>
  <rect class="fil1" x="4475" y="2945" width="128" height="128"/>
  <rect class="fil1" x="523" y="3073" width="128" height="128"/>
  <rect class="fil1" x="777" y="3073" width="128" height="128"/>
  <rect class="fil1" x="1288" y="3073" width="128" height="128"/>
  <rect class="fil1" x="1415" y="3073" width="128" height="128"/>
  <rect class="fil1" x="1543" y="3073" width="128" height="128"/>
  <rect class="fil1" x="3838" y="3073" width="128" height="128"/>
  <rect class="fil1" x="4093" y="3073" width="128" height="128"/>
  <rect class="fil1" x="4348" y="3073" width="128" height="128"/>
  <rect class="fil1" x="395" y="3200" width="128" height="128"/>
  <rect class="fil1" x="523" y="3200" width="128" height="128"/>
  <rect class="fil1" x="650" y="3200" width="128" height="128"/>
  <rect class="fil1" x="777" y="3200" width="128" height="128"/>
  <rect class="fil1" x="1160" y="3200" width="128" height="128"/>
  <rect class="fil1" x="1288" y="3200" width="128" height="128"/>
  <rect class="fil1" x="1415" y="3200" width="128" height="128"/>
  <rect class="fil1" x="1543" y="3200" width="128" height="128"/>
  <rect class="fil1" x="3328" y="3200" width="128" height="128"/>
  <rect class="fil1" x="3455" y="3200" width="128" height="128"/>
  <rect class="fil1" x="3710" y="3200" width="128" height="128"/>
  <rect class="fil1" x="4348" y="3200" width="128" height="128"/>
  <rect class="fil1" x="4475" y="3200" width="128" height="128"/>
  <rect class="fil1" x="777" y="3328" width="128" height="128"/>
  <rect class="fil1" x="1288" y="3328" width="128" height="128"/>
  <rect class="fil1" x="1415" y="3328" width="128" height="128"/>
  <rect class="fil1" x="1543" y="3328" width="128" height="128"/>
  <rect class="fil1" x="1670" y="3328" width="128" height="128"/>
  <rect class="fil1" x="1797" y="3328" width="128" height="128"/>
  <rect class="fil1" x="1925" y="3328" width="128" height="128"/>
  <rect class="fil1" x="2053" y="3328" width="128" height="128"/>
  <rect class="fil1" x="2308" y="3328" width="128" height="128"/>
  <rect class="fil1" x="2690" y="3328" width="128" height="128"/>
  <rect class="fil1" x="2817" y="3328" width="128" height="128"/>
  <rect class="fil1" x="2945" y="3328" width="128" height="128"/>
  <rect class="fil1" x="3073" y="3328" width="128" height="128"/>
  <rect class="fil1" x="3328" y="3328" width="128" height="128"/>
  <rect class="fil1" x="3455" y="3328" width="128" height="128"/>
  <rect class="fil1" x="3583" y="3328" width="128" height="128"/>
  <rect class="fil1" x="3710" y="3328" width="128" height="128"/>
  <rect class="fil1" x="3838" y="3328" width="128" height="128"/>
  <rect class="fil1" x="4093" y="3328" width="128" height="128"/>
  <rect class="fil1" x="4475" y="3328" width="128" height="128"/>
  <rect class="fil1" x="395" y="3455" width="128" height="128"/>
  <rect class="fil1" x="523" y="3455" width="128" height="128"/>
  <rect class="fil1" x="777" y="3455" width="128" height="128"/>
  <rect class="fil1" x="905" y="3455" width="128" height="128"/>
  <rect class="fil1" x="1033" y="3455" width="128" height="128"/>
  <rect class="fil1" x="1160" y="3455" width="128" height="128"/>
  <rect class="fil1" x="1415" y="3455" width="128" height="128"/>
  <rect class="fil1" x="1543" y="3455" width="128" height="128"/>
  <rect class="fil1" x="1797" y="3455" width="128" height="128"/>
  <rect class="fil1" x="1925" y="3455" width="128" height="128"/>
  <rect class="fil1" x="2180" y="3455" width="128" height="128"/>
  <rect class="fil1" x="2563" y="3455" width="128" height="128"/>
  <rect class="fil1" x="2945" y="3455" width="128" height="128"/>
  <rect class="fil1" x="3073" y="3455" width="128" height="128"/>
  <rect class="fil1" x="3328" y="3455" width="128" height="128"/>
  <rect class="fil1" x="3455" y="3455" width="128" height="128"/>
  <rect class="fil1" x="3583" y="3455" width="128" height="128"/>
  <rect class="fil1" x="3710" y="3455" width="128" height="128"/>
  <rect class="fil1" x="3838" y="3455" width="128" height="128"/>
  <rect class="fil1" x="3965" y="3455" width="128" height="128"/>
  <rect class="fil1" x="4475" y="3455" width="128" height="128"/>
  <rect class="fil1" x="1415" y="3583" width="128" height="128"/>
  <rect class="fil1" x="1670" y="3583" width="128" height="128"/>
  <rect class="fil1" x="1925" y="3583" width="128" height="128"/>
  <rect class="fil1" x="2180" y="3583" width="128" height="128"/>
  <rect class="fil1" x="2435" y="3583" width="128" height="128"/>
  <rect class="fil1" x="2945" y="3583" width="128" height="128"/>
  <rect class="fil1" x="3073" y="3583" width="128" height="128"/>
  <rect class="fil1" x="3200" y="3583" width="128" height="128"/>
  <rect class="fil1" x="3455" y="3583" width="128" height="128"/>
  <rect class="fil1" x="3965" y="3583" width="128" height="128"/>
  <rect class="fil1" x="4093" y="3583" width="128" height="128"/>
  <rect class="fil1" x="4348" y="3583" width="128" height="128"/>
  <rect class="fil1" x="4475" y="3583" width="128" height="128"/>
  <rect class="fil1" x="1415" y="3710" width="128" height="128"/>
  <rect class="fil1" x="1543" y="3710" width="128" height="128"/>
  <rect class="fil1" x="1925" y="3710" width="128" height="128"/>
  <rect class="fil1" x="2180" y="3710" width="128" height="128"/>
  <rect class="fil1" x="2308" y="3710" width="128" height="128"/>
  <rect class="fil1" x="2563" y="3710" width="128" height="128"/>
  <rect class="fil1" x="2690" y="3710" width="128" height="128"/>
  <rect class="fil1" x="2817" y="3710" width="128" height="128"/>
  <rect class="fil1" x="3455" y="3710" width="128" height="128"/>
  <rect class="fil1" x="3710" y="3710" width="128" height="128"/>
  <rect class="fil1" x="3965" y="3710" width="128" height="128"/>
  <rect class="fil1" x="4093" y="3710" width="128" height="128"/>
  <rect class="fil1" x="1415" y="3838" width="128" height="128"/>
  <rect class="fil1" x="1543" y="3838" width="128" height="128"/>
  <rect class="fil1" x="1925" y="3838" width="128" height="128"/>
  <rect class="fil1" x="2053" y="3838" width="128" height="128"/>
  <rect class="fil1" x="2308" y="3838" width="128" height="128"/>
  <rect class="fil1" x="2945" y="3838" width="128" height="128"/>
  <rect class="fil1" x="3073" y="3838" width="128" height="128"/>
  <rect class="fil1" x="3328" y="3838" width="128" height="128"/>
  <rect class="fil1" x="3455" y="3838" width="128" height="128"/>
  <rect class="fil1" x="3965" y="3838" width="128" height="128"/>
  <rect class="fil1" x="4475" y="3838" width="128" height="128"/>
  <rect class="fil1" x="1543" y="3965" width="128" height="128"/>
  <rect class="fil1" x="1670" y="3965" width="128" height="128"/>
  <rect class="fil1" x="1797" y="3965" width="128" height="128"/>
  <rect class="fil1" x="2053" y="3965" width="128" height="128"/>
  <rect class="fil1" x="2180" y="3965" width="128" height="128"/>
  <rect class="fil1" x="2308" y="3965" width="128" height="128"/>
  <rect class="fil1" x="2435" y="3965" width="128" height="128"/>
  <rect class="fil1" x="2563" y="3965" width="128" height="128"/>
  <rect class="fil1" x="2690" y="3965" width="128" height="128"/>
  <rect class="fil1" x="2817" y="3965" width="128" height="128"/>
  <rect class="fil1" x="2945" y="3965" width="128" height="128"/>
  <rect class="fil1" x="3073" y="3965" width="128" height="128"/>
  <rect class="fil1" x="3455" y="3965" width="128" height="128"/>
  <rect class="fil1" x="3583" y="3965" width="128" height="128"/>
  <rect class="fil1" x="3710" y="3965" width="128" height="128"/>
  <rect class="fil1" x="3838" y="3965" width="128" height="128"/>
  <rect class="fil1" x="3965" y="3965" width="128" height="128"/>
  <rect class="fil1" x="4220" y="3965" width="128" height="128"/>
  <rect class="fil1" x="4348" y="3965" width="128" height="128"/>
  <rect class="fil1" x="4475" y="3965" width="128" height="128"/>
  <rect class="fil1" x="1670" y="4093" width="128" height="128"/>
  <rect class="fil1" x="1797" y="4093" width="128" height="128"/>
  <rect class="fil1" x="2180" y="4093" width="128" height="128"/>
  <rect class="fil1" x="2817" y="4093" width="128" height="128"/>
  <rect class="fil1" x="2945" y="4093" width="128" height="128"/>
  <rect class="fil1" x="3073" y="4093" width="128" height="128"/>
  <rect class="fil1" x="3455" y="4093" width="128" height="128"/>
  <rect class="fil1" x="3583" y="4093" width="128" height="128"/>
  <rect class="fil1" x="4093" y="4093" width="128" height="128"/>
  <rect class="fil1" x="4348" y="4093" width="128" height="128"/>
  <rect class="fil1" x="1415" y="4220" width="128" height="128"/>
  <rect class="fil1" x="1543" y="4220" width="128" height="128"/>
  <rect class="fil1" x="1670" y="4220" width="128" height="128"/>
  <rect class="fil1" x="1925" y="4220" width="128" height="128"/>
  <rect class="fil1" x="2308" y="4220" width="128" height="128"/>
  <rect class="fil1" x="2563" y="4220" width="128" height="128"/>
  <rect class="fil1" x="2817" y="4220" width="128" height="128"/>
  <rect class="fil1" x="3328" y="4220" width="128" height="128"/>
  <rect class="fil1" x="3455" y="4220" width="128" height="128"/>
  <rect class="fil1" x="3583" y="4220" width="128" height="128"/>
  <rect class="fil1" x="3710" y="4220" width="128" height="128"/>
  <rect class="fil1" x="3838" y="4220" width="128" height="128"/>
  <rect class="fil1" x="4093" y="4220" width="128" height="128"/>
  <rect class="fil1" x="4348" y="4220" width="128" height="128"/>
  <rect class="fil1" x="4475" y="4220" width="128" height="128"/>
  <rect class="fil1" x="1670" y="4348" width="128" height="128"/>
  <rect class="fil1" x="1925" y="4348" width="128" height="128"/>
  <rect class="fil1" x="2053" y="4348" width="128" height="128"/>
  <rect class="fil1" x="2180" y="4348" width="128" height="128"/>
  <rect class="fil1" x="2308" y="4348" width="128" height="128"/>
  <rect class="fil1" x="2563" y="4348" width="128" height="128"/>
  <rect class="fil1" x="2690" y="4348" width="128" height="128"/>
  <rect class="fil1" x="2945" y="4348" width="128" height="128"/>
  <rect class="fil1" x="3073" y="4348" width="128" height="128"/>
  <rect class="fil1" x="3200" y="4348" width="128" height="128"/>
  <rect class="fil1" x="3583" y="4348" width="128" height="128"/>
  <rect class="fil1" x="3965" y="4348" width="128" height="128"/>
  <rect class="fil1" x="4348" y="4348" width="128" height="128"/>
  <rect class="fil1" x="4475" y="4348" width="128" height="128"/>
  <rect class="fil1" x="1543" y="4475" width="128" height="128"/>
  <rect class="fil1" x="1670" y="4475" width="128" height="128"/>
  <rect class="fil1" x="1925" y="4475" width="128" height="128"/>
  <rect class="fil1" x="2180" y="4475" width="128" height="128"/>
  <rect class="fil1" x="2435" y="4475" width="128" height="128"/>
  <rect class="fil1" x="2690" y="4475" width="128" height="128"/>
  <rect class="fil1" x="2817" y="4475" width="128" height="128"/>
  <rect class="fil1" x="3073" y="4475" width="128" height="128"/>
  <rect class="fil1" x="3200" y="4475" width="128" height="128"/>
  <rect class="fil1" x="3455" y="4475" width="128" height="128"/>
  <rect class="fil1" x="3583" y="4475" width="128" height="128"/>
  <rect class="fil1" x="3965" y="4475" width="128" height="128"/>
  <rect class="fil1" x="4220" y="4475" width="128" height="128"/>
  <rect class="fil1" x="4475" y="4475" width="128" height="128"/>
  <path class="fil1" d="M1161 395l-127 0 -128 0 0 0 -127 0 -128 0 -127 0 -128 0 0 127 0 128 0 128 0 127 0 128 0 127 0 128 128 -1 127 0 128 0 127 0 0 0 128 0 127 0 127 0 0 -892 -127 0zm0 255l0 128 0 127 0 128 0 127 -127 0 -128 0 0 0 -127 0 -128 0 -127 0 0 -127 0 -128 0 -127 0 -128 0 -128 127 0 128 0 127 0 0 0 128 0 127 0 0 128z"/>
  <polygon class="fil1" points="905,650 905,650 778,650 650,650 650,778 650,905 650,1033 778,1033 905,1033 905,1033 1033,1033 1033,905 1033,778 1033,650 "/>
  <path class="fil1" d="M4476 395l-127 0 -128 0 0 0 -127 0 -128 0 -127 0 -128 0 0 127 0 128 0 128 0 127 0 128 0 127 0 128 128 -1 127 0 128 0 127 0 0 0 128 0 127 0 127 0 0 -892 -127 0zm0 255l0 128 0 127 0 128 0 127 -127 0 -128 0 0 0 -127 0 -128 0 -127 0 0 -127 0 -128 0 -127 0 -128 0 -128 127 0 128 0 127 0 0 0 128 0 127 0 0 128z"/>
  <polygon class="fil1" points="4220,650 4220,650 4093,650 3965,650 3965,778 3965,905 3965,1033 4093,1033 4220,1033 4220,1033 4347,1033 4347,905 4347,778 4347,650 "/>
  <path class="fil1" d="M1161 3710l-127 0 -128 0 0 0 -127 0 -128 0 -127 0 -128 0 0 128 0 127 0 128 0 127 0 128 0 127 0 128 128 0 127 0 128 0 127 0 0 0 128 0 127 0 127 0 0 -893 -127 0zm0 255l0 128 0 127 0 128 0 127 -127 0 -128 0 0 0 -127 0 -128 0 -127 0 0 -127 0 -128 0 -127 0 -128 0 -127 127 0 128 0 127 0 0 0 128 0 127 0 0 127z"/>
  <polygon class="fil1" points="905,3965 905,3965 778,3965 650,3965 650,4093 650,4220 650,4348 778,4348 905,4348 905,4348 1033,4348 1033,4220 1033,4093 1033,3965 "/>
 </g>
</svg>
